<svg xmlns="http://www.w3.org/2000/svg" width="15" height="15" viewBox="0 0 15 15">
  <defs/>
  <path fill="currentColor" d="M0.877,7.5 C0.877,3.842 3.842,0.877 7.5,0.877 C11.158,0.877 14.123,3.842 14.123,7.5 C14.123,11.158 11.158,14.123 7.5,14.123 C3.842,14.123 0.877,11.158 0.877,7.5 Z M7.5,1.827 C4.367,1.827 1.827,4.367 1.827,7.5 C1.827,10.633 4.367,13.173 7.5,13.173 C10.633,13.173 13.173,10.633 13.173,7.5 C13.173,4.367 10.633,1.827 7.5,1.827 Z M7.125,9 C7.07,9.127 6.332,11.959 6.332,11.959 C6.26,12.226 5.986,12.384 5.719,12.313 C5.453,12.241 5.294,11.967 5.366,11.7 C5.366,11.7 6.247,8.873 6.247,8.27 L6.247,6.801 L4.288,6.276 C4.021,6.205 3.863,5.93 3.934,5.664 C4.006,5.397 4.28,5.239 4.546,5.31 C4.546,5.31 6.2,5.873 6.846,5.873 L8.155,5.873 C8.8,5.873 10.453,5.31 10.453,5.31 C10.72,5.239 10.994,5.397 11.066,5.664 C11.137,5.931 10.979,6.205 10.712,6.276 L8.747,6.803 L8.747,8.27 C8.747,8.873 9.627,11.697 9.627,11.697 C9.698,11.964 9.54,12.238 9.273,12.309 C9.006,12.381 8.732,12.223 8.661,11.956 C8.661,11.956 7.92,9.127 7.869,9 C7.82,8.873 7.65,8.873 7.65,8.873 L7.343,8.873 C7.343,8.873 7.17,8.873 7.125,9 Z M7.5,5.12 C6.879,5.12 6.375,4.616 6.375,3.995 C6.375,3.374 6.879,2.87 7.5,2.87 C8.122,2.87 8.625,3.374 8.625,3.995 C8.625,4.616 8.122,5.12 7.5,5.12 Z"/>
</svg>

