<svg xmlns="http://www.w3.org/2000/svg" width="15" height="15" viewBox="0 0 15 15">
  <defs/>
  <path fill="currentColor" d="M5,3.75 C5,3.336 5.336,3 5.75,3 L9.25,3 C9.664,3 10,3.336 10,3.75 L10,11.25 C10,11.664 9.664,12 9.25,12 L5.75,12 C5.336,12 5,11.664 5,11.25 Z M6,11 L9,11 L9,4 L6,4 Z M1.05,1.5 C1.05,1.251 1.251,1.05 1.5,1.05 L13.5,1.05 C13.748,1.05 13.95,1.251 13.95,1.5 C13.95,1.749 13.748,1.95 13.5,1.95 L1.5,1.95 C1.251,1.95 1.05,1.749 1.05,1.5 Z M1.05,13.5 C1.05,13.252 1.251,13.05 1.5,13.05 L13.5,13.05 C13.748,13.05 13.95,13.252 13.95,13.5 C13.95,13.748 13.748,13.95 13.5,13.95 L1.5,13.95 C1.251,13.95 1.05,13.748 1.05,13.5 Z"/>
</svg>

