<svg xmlns="http://www.w3.org/2000/svg" width="15" height="15" viewBox="0 0 15 15">
  <defs/>
  <path fill="currentColor" d="M10.5,1.75 C10.711,1.75 10.899,1.882 10.97,2.08 L13.97,10.4 C14.064,10.66 13.929,10.946 13.67,11.04 C13.41,11.134 13.123,10.999 13.03,10.739 L12.048,8.016 L8.952,8.016 L7.97,10.739 C7.877,10.999 7.59,11.134 7.33,11.04 C7.071,10.946 6.936,10.66 7.03,10.4 L10.03,2.08 C10.101,1.882 10.289,1.75 10.5,1.75 Z M0.1,13.5 C0.1,13.279 0.279,13.1 0.5,13.1 L14.5,13.1 C14.721,13.1 14.9,13.279 14.9,13.5 C14.9,13.721 14.721,13.9 14.5,13.9 L0.5,13.9 C0.279,13.9 0.1,13.721 0.1,13.5 Z M2.499,2.1 C2.72,2.1 2.899,2.279 2.899,2.5 L2.899,9.534 L4.217,8.217 C4.373,8.061 4.626,8.061 4.782,8.217 C4.939,8.373 4.939,8.627 4.782,8.783 L2.782,10.783 C2.707,10.858 2.606,10.9 2.499,10.9 C2.393,10.9 2.292,10.858 2.217,10.783 L0.217,8.783 C0.06,8.627 0.06,8.373 0.217,8.217 C0.373,8.061 0.626,8.061 0.782,8.217 L2.099,9.534 L2.099,2.5 C2.099,2.279 2.279,2.1 2.499,2.1 Z M10.5,3.724 L9.259,7.166 L11.741,7.166 Z"/>
</svg>

