<svg xmlns="http://www.w3.org/2000/svg" width="15" height="15" viewBox="0 0 15 15">
  <defs/>
  <path fill="currentColor" d="M2,3.25 C2,2.56 2.56,2 3.25,2 L11.75,2 C12.44,2 13,2.56 13,3.25 L13,5.75 C13,6.44 12.44,7 11.75,7 L3.25,7 C2.56,7 2,6.44 2,5.75 Z M4,9.25 C4,8.56 4.56,8 5.25,8 L9.75,8 C10.44,8 11,8.56 11,9.25 L11,11.75 C11,12.44 10.44,13 9.75,13 L5.25,13 C4.56,13 4,12.44 4,11.75 Z M3.25,3 C3.112,3 3,3.112 3,3.25 L3,5.75 C3,5.888 3.112,6 3.25,6 L11.75,6 C11.888,6 12,5.888 12,5.75 L12,3.25 C12,3.112 11.888,3 11.75,3 Z"/>
</svg>

