<svg xmlns="http://www.w3.org/2000/svg" width="15" height="15" viewBox="0 0 15 15">
  <defs/>
  <path fill="currentColor" d="M11.5,1 C11.776,1 12,1.224 12,1.5 L12,13.5 C12,13.776 11.776,14 11.5,14 C11.224,14 11,13.776 11,13.5 L11,1.5 C11,1.224 11.224,1 11.5,1 Z M9.5,3 C9.776,3 10,3.224 10,3.5 L10,13.5 C10,13.776 9.776,14 9.5,14 C9.224,14 9,13.776 9,13.5 L9,3.5 C9,3.224 9.224,3 9.5,3 Z M13.5,3 C13.776,3 14,3.224 14,3.5 L14,13.5 C14,13.776 13.776,14 13.5,14 C13.224,14 13,13.776 13,13.5 L13,3.5 C13,3.224 13.224,3 13.5,3 Z M5.5,4 C5.776,4 6,4.224 6,4.5 L6,13.5 C6,13.776 5.776,14 5.5,14 C5.224,14 5,13.776 5,13.5 L5,4.5 C5,4.224 5.224,4 5.5,4 Z M7.5,5 C7.776,5 8,5.224 8,5.5 L8,13.5 C8,13.776 7.776,14 7.5,14 C7.224,14 7,13.776 7,13.5 L7,5.5 C7,5.224 7.224,5 7.5,5 Z M1.5,5 C1.776,5 2,5.224 2,5.5 L2,13.5 C2,13.776 1.776,14 1.5,14 C1.224,14 1,13.776 1,13.5 L1,5.5 C1,5.224 1.224,5 1.5,5 Z M3.5,7 C3.776,7 4,7.224 4,7.5 L4,13.5 C4,13.776 3.776,14 3.5,14 C3.224,14 3,13.776 3,13.5 L3,7.5 C3,7.224 3.224,7 3.5,7 Z"/>
</svg>

