<svg xmlns="http://www.w3.org/2000/svg" width="15" height="15" viewBox="0 0 15 15">
  <defs/>
  <path fill="currentColor" d="M8.601,1.251 C8.601,1.755 8.263,2.179 7.801,2.31 C10.146,2.465 12,4.416 12,6.8 L12,10.25 C12,11.056 12.033,11.707 12.724,12.053 C12.931,12.156 13.04,12.389 12.987,12.615 C12.933,12.841 12.732,13 12.5,13 L8.161,13 C8.369,13.183 8.5,13.451 8.5,13.75 C8.5,14.302 8.052,14.75 7.5,14.75 C6.948,14.75 6.5,14.302 6.5,13.75 C6.5,13.451 6.631,13.183 6.839,13 L2.5,13 C2.268,13 2.067,12.841 2.013,12.615 C1.96,12.389 2.069,12.156 2.276,12.053 C2.967,11.707 3,11.056 3,10.25 L3,6.8 C3,4.415 4.855,2.464 7.2,2.31 C6.739,2.179 6.4,1.754 6.4,1.251 C6.4,0.643 6.893,0.15 7.501,0.15 C8.109,0.15 8.601,0.643 8.601,1.251 Z M7.5,3.3 C5.567,3.3 4,4.867 4,6.8 L4,10.25 L4,10.301 C4.001,10.746 4.001,11.408 3.699,12 L11.301,12 C10.999,11.408 11,10.746 11,10.301 L11,6.8 C11,4.867 9.433,3.3 7.5,3.3 Z"/>
</svg>

