<svg xmlns="http://www.w3.org/2000/svg" width="15" height="15" viewBox="0 0 15 15">
  <defs/>
  <path fill="currentColor" d="M14,1.75 L1,1.75 L1,0.25 L14,0.25 L14,1.75 Z"/>
  <path fill="currentColor" d="M7.5,10 L7.5,10 C7.224,10 7,9.776 7,9.5 L7,9.5 C7,9.224 7.224,9 7.5,9 L7.5,9 C7.776,9 8,9.224 8,9.5 L8,9.5 C8,9.776 7.776,10 7.5,10 Z"/>
  <path fill="currentColor" d="M1.5,10 L1.5,10 C1.224,10 1,9.776 1,9.5 L1,9.5 C1,9.224 1.224,9 1.5,9 L1.5,9 C1.776,9 2,9.224 2,9.5 L2,9.5 C2,9.776 1.776,10 1.5,10 Z"/>
  <path fill="currentColor" d="M7.5,12 L7.5,12 C7.224,12 7,11.776 7,11.5 L7,11.5 C7,11.224 7.224,11 7.5,11 L7.5,11 C7.776,11 8,11.224 8,11.5 L8,11.5 C8,11.776 7.776,12 7.5,12 Z"/>
  <path fill="currentColor" d="M1.5,12 L1.5,12 C1.224,12 1,11.776 1,11.5 L1,11.5 C1,11.224 1.224,11 1.5,11 L1.5,11 C1.776,11 2,11.224 2,11.5 L2,11.5 C2,11.776 1.776,12 1.5,12 Z"/>
  <path fill="currentColor" d="M7.5,8 L7.5,8 C7.224,8 7,7.776 7,7.5 L7,7.5 C7,7.224 7.224,7 7.5,7 L7.5,7 C7.776,7 8,7.224 8,7.5 L8,7.5 C8,7.776 7.776,8 7.5,8 Z"/>
  <path fill="currentColor" d="M7.5,14 L7.5,14 C7.224,14 7,13.776 7,13.5 L7,13.5 C7,13.224 7.224,13 7.5,13 L7.5,13 C7.776,13 8,13.224 8,13.5 L8,13.5 C8,13.776 7.776,14 7.5,14 Z"/>
  <path fill="currentColor" d="M1.5,8 L1.5,8 C1.224,8 1,7.776 1,7.5 L1,7.5 C1,7.224 1.224,7 1.5,7 L1.5,7 C1.776,7 2,7.224 2,7.5 L2,7.5 C2,7.776 1.776,8 1.5,8 Z"/>
  <path fill="currentColor" d="M1.5,14 L1.5,14 C1.224,14 1,13.776 1,13.5 L1,13.5 C1,13.224 1.224,13 1.5,13 L1.5,13 C1.776,13 2,13.224 2,13.5 L2,13.5 C2,13.776 1.776,14 1.5,14 Z"/>
  <path fill="currentColor" d="M9.5,8 L9.5,8 C9.224,8 9,7.776 9,7.5 L9,7.5 C9,7.224 9.224,7 9.5,7 L9.5,7 C9.776,7 10,7.224 10,7.5 L10,7.5 C10,7.776 9.776,8 9.5,8 Z"/>
  <path fill="currentColor" d="M9.5,14 L9.5,14 C9.224,14 9,13.776 9,13.5 L9,13.5 C9,13.224 9.224,13 9.5,13 L9.5,13 C9.776,13 10,13.224 10,13.5 L10,13.5 C10,13.776 9.776,14 9.5,14 Z"/>
  <path fill="currentColor" d="M11.5,8 L11.5,8 C11.224,8 11,7.776 11,7.5 L11,7.5 C11,7.224 11.224,7 11.5,7 L11.5,7 C11.776,7 12,7.224 12,7.5 L12,7.5 C12,7.776 11.776,8 11.5,8 Z"/>
  <path fill="currentColor" d="M11.5,14 L11.5,14 C11.224,14 11,13.776 11,13.5 L11,13.5 C11,13.224 11.224,13 11.5,13 L11.5,13 C11.776,13 12,13.224 12,13.5 L12,13.5 C12,13.776 11.776,14 11.5,14 Z"/>
  <path fill="currentColor" d="M5.5,8 L5.5,8 C5.224,8 5,7.776 5,7.5 L5,7.5 C5,7.224 5.224,7 5.5,7 L5.5,7 C5.776,7 6,7.224 6,7.5 L6,7.5 C6,7.776 5.776,8 5.5,8 Z"/>
  <path fill="currentColor" d="M5.5,14 L5.5,14 C5.224,14 5,13.776 5,13.5 L5,13.5 C5,13.224 5.224,13 5.5,13 L5.5,13 C5.776,13 6,13.224 6,13.5 L6,13.5 C6,13.776 5.776,14 5.5,14 Z"/>
  <path fill="currentColor" d="M3.5,8 L3.5,8 C3.224,8 3,7.776 3,7.5 L3,7.5 C3,7.224 3.224,7 3.5,7 L3.5,7 C3.776,7 4,7.224 4,7.5 L4,7.5 C4,7.776 3.776,8 3.5,8 Z"/>
  <path fill="currentColor" d="M3.5,14 L3.5,14 C3.224,14 3,13.776 3,13.5 L3,13.5 C3,13.224 3.224,13 3.5,13 L3.5,13 C3.776,13 4,13.224 4,13.5 L4,13.5 C4,13.776 3.776,14 3.5,14 Z"/>
  <path fill="currentColor" d="M7.5,6 L7.5,6 C7.224,6 7,5.776 7,5.5 L7,5.5 C7,5.224 7.224,5 7.5,5 L7.5,5 C7.776,5 8,5.224 8,5.5 L8,5.5 C8,5.776 7.776,6 7.5,6 Z"/>
  <path fill="currentColor" d="M1.5,6 L1.5,6 C1.224,6 1,5.776 1,5.5 L1,5.5 C1,5.224 1.224,5 1.5,5 L1.5,5 C1.776,5 2,5.224 2,5.5 L2,5.5 C2,5.776 1.776,6 1.5,6 Z"/>
  <path fill="currentColor" d="M7.5,4 L7.5,4 C7.224,4 7,3.776 7,3.5 L7,3.5 C7,3.224 7.224,3 7.5,3 L7.5,3 C7.776,3 8,3.224 8,3.5 L8,3.5 C8,3.776 7.776,4 7.5,4 Z"/>
  <path fill="currentColor" d="M1.5,4 L1.5,4 C1.224,4 1,3.776 1,3.5 L1,3.5 C1,3.224 1.224,3 1.5,3 L1.5,3 C1.776,3 2,3.224 2,3.5 L2,3.5 C2,3.776 1.776,4 1.5,4 Z"/>
  <path fill="currentColor" d="M13.5,10 L13.5,10 C13.224,10 13,9.776 13,9.5 L13,9.5 C13,9.224 13.224,9 13.5,9 L13.5,9 C13.776,9 14,9.224 14,9.5 L14,9.5 C14,9.776 13.776,10 13.5,10 Z"/>
  <path fill="currentColor" d="M13.5,12 L13.5,12 C13.224,12 13,11.776 13,11.5 L13,11.5 C13,11.224 13.224,11 13.5,11 L13.5,11 C13.776,11 14,11.224 14,11.5 L14,11.5 C14,11.776 13.776,12 13.5,12 Z"/>
  <path fill="currentColor" d="M13.5,8 L13.5,8 C13.224,8 13,7.776 13,7.5 L13,7.5 C13,7.224 13.224,7 13.5,7 L13.5,7 C13.776,7 14,7.224 14,7.5 L14,7.5 C14,7.776 13.776,8 13.5,8 Z"/>
  <path fill="currentColor" d="M13.5,14 L13.5,14 C13.224,14 13,13.776 13,13.5 L13,13.5 C13,13.224 13.224,13 13.5,13 L13.5,13 C13.776,13 14,13.224 14,13.5 L14,13.5 C14,13.776 13.776,14 13.5,14 Z"/>
  <path fill="currentColor" d="M13.5,6 L13.5,6 C13.224,6 13,5.776 13,5.5 L13,5.5 C13,5.224 13.224,5 13.5,5 L13.5,5 C13.776,5 14,5.224 14,5.5 L14,5.5 C14,5.776 13.776,6 13.5,6 Z"/>
  <path fill="currentColor" d="M13.5,4 L13.5,4 C13.224,4 13,3.776 13,3.5 L13,3.5 C13,3.224 13.224,3 13.5,3 L13.5,3 C13.776,3 14,3.224 14,3.5 L14,3.5 C14,3.776 13.776,4 13.5,4 Z"/>
</svg>

