<svg xmlns="http://www.w3.org/2000/svg" width="15" height="15" viewBox="0 0 15 15">
  <defs/>
  <path fill="currentColor" d="M1.5,3 L13.5,3 C13.776,3 14,3.224 14,3.5 C14,3.776 13.776,4 13.5,4 L1.5,4 C1.224,4 1,3.776 1,3.5 C1,3.224 1.224,3 1.5,3 Z M6.5,7 L8.5,7 C8.776,7 9,7.224 9,7.5 C9,7.776 8.776,8 8.5,8 L6.5,8 C6.224,8 6,7.776 6,7.5 C6,7.224 6.224,7 6.5,7 Z M1,7.5 C1,7.224 1.224,7 1.5,7 L3.5,7 C3.776,7 4,7.224 4,7.5 C4,7.776 3.776,8 3.5,8 L1.5,8 C1.224,8 1,7.776 1,7.5 Z M11,7.5 C11,7.224 11.224,7 11.5,7 L13.5,7 C13.776,7 14,7.224 14,7.5 C14,7.776 13.776,8 13.5,8 L11.5,8 C11.224,8 11,7.776 11,7.5 Z M5.5,11 C5.776,11 6,11.224 6,11.5 C6,11.776 5.776,12 5.5,12 C5.224,12 5,11.776 5,11.5 C5,11.224 5.224,11 5.5,11 Z M7,11.5 C7,11.224 7.224,11 7.5,11 C7.776,11 8,11.224 8,11.5 C8,11.776 7.776,12 7.5,12 C7.224,12 7,11.776 7,11.5 Z M9.5,11 C9.776,11 10,11.224 10,11.5 C10,11.776 9.776,12 9.5,12 C9.224,12 9,11.776 9,11.5 C9,11.224 9.224,11 9.5,11 Z M1,11.5 C1,11.224 1.224,11 1.5,11 C1.776,11 2,11.224 2,11.5 C2,11.776 1.776,12 1.5,12 C1.224,12 1,11.776 1,11.5 Z M3,11.5 C3,11.224 3.224,11 3.5,11 C3.776,11 4,11.224 4,11.5 C4,11.776 3.776,12 3.5,12 C3.224,12 3,11.776 3,11.5 Z M11,11.5 C11,11.224 11.224,11 11.5,11 C11.776,11 12,11.224 12,11.5 C12,11.776 11.776,12 11.5,12 C11.224,12 11,11.776 11,11.5 Z M13.5,11 C13.776,11 14,11.224 14,11.5 C14,11.776 13.776,12 13.5,12 C13.224,12 13,11.776 13,11.5 C13,11.224 13.224,11 13.5,11 Z"/>
</svg>

