<svg xmlns="http://www.w3.org/2000/svg" width="15" height="15" viewBox="0 0 15 15">
  <defs/>
  <path fill="currentColor" d="M13.25,1 L14.75,1 L14.75,14 L13.25,14 L13.25,1 Z"/>
  <path fill="currentColor" d="M5,7.5 L5,7.5 C5,7.776 5.224,8 5.5,8 L5.5,8 C5.776,8 6,7.776 6,7.5 L6,7.5 C6,7.224 5.776,7 5.5,7 L5.5,7 C5.224,7 5,7.224 5,7.5 Z"/>
  <path fill="currentColor" d="M5,13.5 L5,13.5 C5,13.776 5.224,14 5.5,14 L5.5,14 C5.776,14 6,13.776 6,13.5 L6,13.5 C6,13.224 5.776,13 5.5,13 L5.5,13 C5.224,13 5,13.224 5,13.5 Z"/>
  <path fill="currentColor" d="M3,7.5 L3,7.5 C3,7.776 3.224,8 3.5,8 L3.5,8 C3.776,8 4,7.776 4,7.5 L4,7.5 C4,7.224 3.776,7 3.5,7 L3.5,7 C3.224,7 3,7.224 3,7.5 Z"/>
  <path fill="currentColor" d="M3,13.5 L3,13.5 C3,13.776 3.224,14 3.5,14 L3.5,14 C3.776,14 4,13.776 4,13.5 L4,13.5 C4,13.224 3.776,13 3.5,13 L3.5,13 C3.224,13 3,13.224 3,13.5 Z"/>
  <path fill="currentColor" d="M7,7.5 L7,7.5 C7,7.776 7.224,8 7.5,8 L7.5,8 C7.776,8 8,7.776 8,7.5 L8,7.5 C8,7.224 7.776,7 7.5,7 L7.5,7 C7.224,7 7,7.224 7,7.5 Z"/>
  <path fill="currentColor" d="M1,7.5 L1,7.5 C1,7.776 1.224,8 1.5,8 L1.5,8 C1.776,8 2,7.776 2,7.5 L2,7.5 C2,7.224 1.776,7 1.5,7 L1.5,7 C1.224,7 1,7.224 1,7.5 Z"/>
  <path fill="currentColor" d="M7,13.5 L7,13.5 C7,13.776 7.224,14 7.5,14 L7.5,14 C7.776,14 8,13.776 8,13.5 L8,13.5 C8,13.224 7.776,13 7.5,13 L7.5,13 C7.224,13 7,13.224 7,13.5 Z"/>
  <path fill="currentColor" d="M1,13.5 L1,13.5 C1,13.776 1.224,14 1.5,14 L1.5,14 C1.776,14 2,13.776 2,13.5 L2,13.5 C2,13.224 1.776,13 1.5,13 L1.5,13 C1.224,13 1,13.224 1,13.5 Z"/>
  <path fill="currentColor" d="M7,5.5 L7,5.5 C7,5.776 7.224,6 7.5,6 L7.5,6 C7.776,6 8,5.776 8,5.5 L8,5.5 C8,5.224 7.776,5 7.5,5 L7.5,5 C7.224,5 7,5.224 7,5.5 Z"/>
  <path fill="currentColor" d="M1,5.5 L1,5.5 C1,5.776 1.224,6 1.5,6 L1.5,6 C1.776,6 2,5.776 2,5.5 L2,5.5 C2,5.224 1.776,5 1.5,5 L1.5,5 C1.224,5 1,5.224 1,5.5 Z"/>
  <path fill="currentColor" d="M7,3.5 L7,3.5 C7,3.776 7.224,4 7.5,4 L7.5,4 C7.776,4 8,3.776 8,3.5 L8,3.5 C8,3.224 7.776,3 7.5,3 L7.5,3 C7.224,3 7,3.224 7,3.5 Z"/>
  <path fill="currentColor" d="M1,3.5 L1,3.5 C1,3.776 1.224,4 1.5,4 L1.5,4 C1.776,4 2,3.776 2,3.5 L2,3.5 C2,3.224 1.776,3 1.5,3 L1.5,3 C1.224,3 1,3.224 1,3.5 Z"/>
  <path fill="currentColor" d="M7,9.5 L7,9.5 C7,9.776 7.224,10 7.5,10 L7.5,10 C7.776,10 8,9.776 8,9.5 L8,9.5 C8,9.224 7.776,9 7.5,9 L7.5,9 C7.224,9 7,9.224 7,9.5 Z"/>
  <path fill="currentColor" d="M1,9.5 L1,9.5 C1,9.776 1.224,10 1.5,10 L1.5,10 C1.776,10 2,9.776 2,9.5 L2,9.5 C2,9.224 1.776,9 1.5,9 L1.5,9 C1.224,9 1,9.224 1,9.5 Z"/>
  <path fill="currentColor" d="M7,11.5 L7,11.5 C7,11.776 7.224,12 7.5,12 L7.5,12 C7.776,12 8,11.776 8,11.5 L8,11.5 C8,11.224 7.776,11 7.5,11 L7.5,11 C7.224,11 7,11.224 7,11.5 Z"/>
  <path fill="currentColor" d="M1,11.5 L1,11.5 C1,11.776 1.224,12 1.5,12 L1.5,12 C1.776,12 2,11.776 2,11.5 L2,11.5 C2,11.224 1.776,11 1.5,11 L1.5,11 C1.224,11 1,11.224 1,11.5 Z"/>
  <path fill="currentColor" d="M9,7.5 L9,7.5 C9,7.776 9.224,8 9.5,8 L9.5,8 C9.776,8 10,7.776 10,7.5 L10,7.5 C10,7.224 9.776,7 9.5,7 L9.5,7 C9.224,7 9,7.224 9,7.5 Z"/>
  <path fill="currentColor" d="M9,13.5 L9,13.5 C9,13.776 9.224,14 9.5,14 L9.5,14 C9.776,14 10,13.776 10,13.5 L10,13.5 C10,13.224 9.776,13 9.5,13 L9.5,13 C9.224,13 9,13.224 9,13.5 Z"/>
  <path fill="currentColor" d="M11,7.5 L11,7.5 C11,7.776 11.224,8 11.5,8 L11.5,8 C11.776,8 12,7.776 12,7.5 L12,7.5 C12,7.224 11.776,7 11.5,7 L11.5,7 C11.224,7 11,7.224 11,7.5 Z"/>
  <path fill="currentColor" d="M11,13.5 L11,13.5 C11,13.776 11.224,14 11.5,14 L11.5,14 C11.776,14 12,13.776 12,13.5 L12,13.5 C12,13.224 11.776,13 11.5,13 L11.5,13 C11.224,13 11,13.224 11,13.5 Z"/>
  <path fill="currentColor" d="M5,1.5 L5,1.5 C5,1.776 5.224,2 5.5,2 L5.5,2 C5.776,2 6,1.776 6,1.5 L6,1.5 C6,1.224 5.776,1 5.5,1 L5.5,1 C5.224,1 5,1.224 5,1.5 Z"/>
  <path fill="currentColor" d="M3,1.5 L3,1.5 C3,1.776 3.224,2 3.5,2 L3.5,2 C3.776,2 4,1.776 4,1.5 L4,1.5 C4,1.224 3.776,1 3.5,1 L3.5,1 C3.224,1 3,1.224 3,1.5 Z"/>
  <path fill="currentColor" d="M7,1.5 L7,1.5 C7,1.776 7.224,2 7.5,2 L7.5,2 C7.776,2 8,1.776 8,1.5 L8,1.5 C8,1.224 7.776,1 7.5,1 L7.5,1 C7.224,1 7,1.224 7,1.5 Z"/>
  <path fill="currentColor" d="M1,1.5 L1,1.5 C1,1.776 1.224,2 1.5,2 L1.5,2 C1.776,2 2,1.776 2,1.5 L2,1.5 C2,1.224 1.776,1 1.5,1 L1.5,1 C1.224,1 1,1.224 1,1.5 Z"/>
  <path fill="currentColor" d="M9,1.5 L9,1.5 C9,1.776 9.224,2 9.5,2 L9.5,2 C9.776,2 10,1.776 10,1.5 L10,1.5 C10,1.224 9.776,1 9.5,1 L9.5,1 C9.224,1 9,1.224 9,1.5 Z"/>
  <path fill="currentColor" d="M11,1.5 L11,1.5 C11,1.776 11.224,2 11.5,2 L11.5,2 C11.776,2 12,1.776 12,1.5 L12,1.5 C12,1.224 11.776,1 11.5,1 L11.5,1 C11.224,1 11,1.224 11,1.5 Z"/>
</svg>

