<svg xmlns="http://www.w3.org/2000/svg" width="15" height="15" viewBox="0 0 15 15">
  <defs/>
  <path fill="currentColor" d="M7.5,5.025 L7.5,5.025 A0.5 0.5 0 0 1 8,5.525 L8,5.525 A0.5 0.5 0 0 1 7.5,6.025 L7.5,6.025 A0.5 0.5 0 0 1 7,5.525 L7,5.525 A0.5 0.5 0 0 1 7.5,5.025 Z"/>
  <path fill="currentColor" d="M7.5,3.025 L7.5,3.025 A0.5 0.5 0 0 1 8,3.525 L8,3.525 A0.5 0.5 0 0 1 7.5,4.025 L7.5,4.025 A0.5 0.5 0 0 1 7,3.525 L7,3.525 A0.5 0.5 0 0 1 7.5,3.025 Z"/>
  <path fill="currentColor" d="M7.5,7.025 L7.5,7.025 A0.5 0.5 0 0 1 8,7.525 L8,7.525 A0.5 0.5 0 0 1 7.5,8.025 L7.5,8.025 A0.5 0.5 0 0 1 7,7.525 L7,7.525 A0.5 0.5 0 0 1 7.5,7.025 Z"/>
  <path fill="currentColor" d="M7.5,13.025 L7.5,13.025 A0.5 0.5 0 0 1 8,13.525 L8,13.525 A0.5 0.5 0 0 1 7.5,14.025 L7.5,14.025 A0.5 0.5 0 0 1 7,13.525 L7,13.525 A0.5 0.5 0 0 1 7.5,13.025 Z"/>
  <path fill="currentColor" d="M7.5,1.025 L7.5,1.025 A0.5 0.5 0 0 1 8,1.525 L8,1.525 A0.5 0.5 0 0 1 7.5,2.025 L7.5,2.025 A0.5 0.5 0 0 1 7,1.525 L7,1.525 A0.5 0.5 0 0 1 7.5,1.025 Z"/>
  <path fill="currentColor" d="M13.5,7.025 L13.5,7.025 A0.5 0.5 0 0 1 14,7.525 L14,7.525 A0.5 0.5 0 0 1 13.5,8.025 L13.5,8.025 A0.5 0.5 0 0 1 13,7.525 L13,7.525 A0.5 0.5 0 0 1 13.5,7.025 Z"/>
  <path fill="currentColor" d="M5.5,7.025 L5.5,7.025 A0.5 0.5 0 0 1 6,7.525 L6,7.525 A0.5 0.5 0 0 1 5.5,8.025 L5.5,8.025 A0.5 0.5 0 0 1 5,7.525 L5,7.525 A0.5 0.5 0 0 1 5.5,7.025 Z"/>
  <path fill="currentColor" d="M3.5,7.025 L3.5,7.025 A0.5 0.5 0 0 1 4,7.525 L4,7.525 A0.5 0.5 0 0 1 3.5,8.025 L3.5,8.025 A0.5 0.5 0 0 1 3,7.525 L3,7.525 A0.5 0.5 0 0 1 3.5,7.025 Z"/>
  <path fill="currentColor" d="M9.5,7.025 L9.5,7.025 A0.5 0.5 0 0 1 10,7.525 L10,7.525 A0.5 0.5 0 0 1 9.5,8.025 L9.5,8.025 A0.5 0.5 0 0 1 9,7.525 L9,7.525 A0.5 0.5 0 0 1 9.5,7.025 Z"/>
  <path fill="currentColor" d="M11.5,7.025 L11.5,7.025 A0.5 0.5 0 0 1 12,7.525 L12,7.525 A0.5 0.5 0 0 1 11.5,8.025 L11.5,8.025 A0.5 0.5 0 0 1 11,7.525 L11,7.525 A0.5 0.5 0 0 1 11.5,7.025 Z"/>
  <path fill="currentColor" d="M7.5,9.025 L7.5,9.025 A0.5 0.5 0 0 1 8,9.525 L8,9.525 A0.5 0.5 0 0 1 7.5,10.025 L7.5,10.025 A0.5 0.5 0 0 1 7,9.525 L7,9.525 A0.5 0.5 0 0 1 7.5,9.025 Z"/>
  <path fill="currentColor" d="M7.5,11.025 L7.5,11.025 A0.5 0.5 0 0 1 8,11.525 L8,11.525 A0.5 0.5 0 0 1 7.5,12.025 L7.5,12.025 A0.5 0.5 0 0 1 7,11.525 L7,11.525 A0.5 0.5 0 0 1 7.5,11.025 Z"/>
  <path fill="currentColor" d="M1.5,7.025 L1.5,7.025 A0.5 0.5 0 0 1 2,7.525 L2,7.525 A0.5 0.5 0 0 1 1.5,8.025 L1.5,8.025 A0.5 0.5 0 0 1 1,7.525 L1,7.525 A0.5 0.5 0 0 1 1.5,7.025 Z"/>
  <path fill="currentColor" d="M1,1.5 C1,1.224 1.224,1 1.5,1 L6,1 L6,2 L2,2 L2,6 L1,6 Z M13,2 L9,2 L9,1 L13.5,1 C13.776,1 14,1.224 14,1.5 L14,6 L13,6 Z M1,13.5 L1,9 L2,9 L2,13 L6,13 L6,14 L1.5,14 C1.224,14 1,13.776 1,13.5 Z M13,13 L13,9 L14,9 L14,13.5 C14,13.776 13.776,14 13.5,14 L9.5,14 L9.5,13 Z"/>
</svg>

