<svg xmlns="http://www.w3.org/2000/svg" width="15" height="15" viewBox="0 0 15 15">
  <defs/>
  <path fill="currentColor" d="M0,6 C0,4.895 0.895,4 2,4 L13,4 C14.105,4 15,4.895 15,6 L15,9 C15,10.105 14.105,11 13,11 L2,11 C0.895,11 0,10.105 0,9 Z M2,5 C1.448,5 1,5.448 1,6 L1,9 C1,9.552 1.448,10 2,10 L13,10 C13.552,10 14,9.552 14,9 L14,6 C14,5.448 13.552,5 13,5 Z M6.75,7.5 C6.75,7.086 7.086,6.75 7.5,6.75 C7.914,6.75 8.25,7.086 8.25,7.5 C8.25,7.914 7.914,8.25 7.5,8.25 C7.086,8.25 6.75,7.914 6.75,7.5 Z M4.5,6.75 C4.914,6.75 5.25,7.086 5.25,7.5 C5.25,7.914 4.914,8.25 4.5,8.25 C4.086,8.25 3.75,7.914 3.75,7.5 C3.75,7.086 4.086,6.75 4.5,6.75 Z M10.5,6.75 C10.914,6.75 11.25,7.086 11.25,7.5 C11.25,7.914 10.914,8.25 10.5,8.25 C10.086,8.25 9.75,7.914 9.75,7.5 C9.75,7.086 10.086,6.75 10.5,6.75 Z"/>
</svg>

