<svg xmlns="http://www.w3.org/2000/svg" width="15" height="15" viewBox="0 0 15 15">
  <defs/>
  <path fill="currentColor" d="M2,10.915 C1.417,10.709 1,10.153 1,9.5 L1,3.5 C1,2.672 1.672,2 2.5,2 L12.5,2 C13.328,2 14,2.672 14,3.5 L14,9.5 C14,10.153 13.583,10.709 13,10.915 L13,11.5 C13,12.328 12.328,13 11.5,13 L3.5,13 C2.672,13 2,12.328 2,11.5 Z M2,3.5 L2,9.5 C2,9.776 2.224,10 2.5,10 L12.5,10 C12.776,10 13,9.776 13,9.5 L13,3.5 C13,3.224 12.776,3 12.5,3 L2.5,3 C2.224,3 2,3.224 2,3.5 Z M12,11 L3,11 L3,11.5 C3,11.776 3.224,12 3.5,12 L11.5,12 C11.776,12 12,11.776 12,11.5 Z M5,6.5 C5,6.224 5.224,6 5.5,6 L7,6 L7,4.5 C7,4.224 7.224,4 7.5,4 C7.776,4 8,4.224 8,4.5 L8,6 L9.5,6 C9.776,6 10,6.224 10,6.5 C10,6.776 9.776,7 9.5,7 L8,7 L8,8.5 C8,8.776 7.776,9 7.5,9 C7.224,9 7,8.776 7,8.5 L7,7 L5.5,7 C5.224,7 5,6.776 5,6.5 Z"/>
</svg>

