<svg xmlns="http://www.w3.org/2000/svg" width="15" height="15" viewBox="0 0 15 15">
  <defs/>
  <path fill="currentColor" d="M7.5,0.877 C11.158,0.877 14.123,3.842 14.123,7.5 C14.123,11.158 11.158,14.123 7.5,14.123 C3.842,14.123 0.877,11.158 0.877,7.5 C0.877,3.842 3.842,0.877 7.5,0.877 Z M1.827,7.5 C1.827,10.633 4.367,13.173 7.5,13.173 C10.633,13.173 13.173,10.633 13.173,7.5 C13.173,4.367 10.633,1.827 7.5,1.827 C4.367,1.827 1.827,4.367 1.827,7.5 Z M10.159,5.538 L6.992,10.038 C6.907,10.159 6.772,10.236 6.624,10.248 C6.476,10.26 6.331,10.206 6.227,10.1 L4.643,8.488 C4.45,8.291 4.453,7.974 4.65,7.781 C4.847,7.587 5.163,7.59 5.357,7.787 L6.52,8.972 L9.341,4.962 C9.5,4.736 9.812,4.682 10.038,4.841 C10.264,5 10.318,5.312 10.159,5.538 Z"/>
</svg>

