<svg xmlns="http://www.w3.org/2000/svg" width="15" height="15" viewBox="0 0 15 15">
  <defs/>
  <path fill="currentColor" d="M4.75,0 L10.25,0 C10.664,0 11,0.336 11,0.75 L11,1 L11.5,1 C12.328,1 13,1.672 13,2.5 L13,12.5 C13,13.328 12.328,14 11.5,14 L3.5,14 C2.672,14 2,13.328 2,12.5 L2,2.5 C2,1.672 2.672,1 3.5,1 L4,1 L4,0.75 C4,0.336 4.336,0 4.75,0 Z M11,2 L11,2.25 C11,2.664 10.664,3 10.25,3 L4.75,3 C4.336,3 4,2.664 4,2.25 L4,2 L3.5,2 C3.224,2 3,2.224 3,2.5 L3,12.5 C3,12.776 3.224,13 3.5,13 L11.5,13 C11.776,13 12,12.776 12,12.5 L12,2.5 C12,2.224 11.776,2 11.5,2 Z M5,2 L10,2 L10,1 L5,1 Z"/>
</svg>

