<svg xmlns="http://www.w3.org/2000/svg" width="15" height="15" viewBox="0 0 15 15">
  <defs/>
  <path fill="currentColor" d="M7.5,0.877 C11.158,0.877 14.123,3.842 14.123,7.5 C14.123,11.158 11.158,14.123 7.5,14.123 C3.842,14.123 0.877,11.158 0.877,7.5 C0.877,3.842 3.842,0.877 7.5,0.877 Z M1.827,7.5 C1.827,10.633 4.367,13.173 7.5,13.173 C10.633,13.173 13.173,10.633 13.173,7.5 C13.173,4.367 10.633,1.827 7.5,1.827 C4.367,1.827 1.827,4.367 1.827,7.5 Z M8,4.5 L8,7.293 L9.854,9.146 C10.049,9.342 10.049,9.658 9.854,9.854 C9.658,10.049 9.342,10.049 9.146,9.854 L7.146,7.854 C7.053,7.76 7,7.633 7,7.5 L7,4.5 C7,4.224 7.224,4 7.5,4 C7.776,4 8,4.224 8,4.5 Z"/>
</svg>

