<svg xmlns="http://www.w3.org/2000/svg" width="15" height="15" viewBox="0 0 15 15">
  <defs/>
  <path fill="currentColor" d="M9.964,2.686 L5.964,12.686 C5.862,12.942 5.571,13.067 5.314,12.964 C5.058,12.862 4.933,12.571 5.036,12.314 L9.036,2.314 C9.138,2.058 9.429,1.933 9.686,2.036 C9.942,2.138 10.067,2.429 9.964,2.686 Z M11.146,5.146 C11.342,4.951 11.658,4.951 11.854,5.146 L13.854,7.146 C14.049,7.342 14.049,7.658 13.854,7.854 L11.854,9.854 C11.658,10.049 11.342,10.049 11.146,9.854 C10.951,9.658 10.951,9.342 11.146,9.146 L12.793,7.5 L11.146,5.854 C10.951,5.658 10.951,5.342 11.146,5.146 Z M3.854,5.146 C4.049,5.342 4.049,5.658 3.854,5.854 L2.207,7.5 L3.854,9.146 C4.049,9.342 4.049,9.658 3.854,9.854 C3.658,10.049 3.342,10.049 3.146,9.854 L1.146,7.854 C0.951,7.658 0.951,7.342 1.146,7.146 L3.146,5.146 C3.342,4.951 3.658,4.951 3.854,5.146 Z"/>
</svg>

