<svg xmlns="http://www.w3.org/2000/svg" width="15" height="15" viewBox="0 0 15 15">
  <defs/>
  <path fill="currentColor" d="M0.877,7.5 C0.877,3.842 3.842,0.877 7.5,0.877 C11.158,0.877 14.123,3.842 14.123,7.5 C14.123,11.158 11.158,14.123 7.5,14.123 C3.842,14.123 0.877,11.158 0.877,7.5 Z M3.781,3.216 L7.1,6.534 L7.1,1.841 C5.834,1.929 4.683,2.432 3.781,3.216 Z M3.216,3.781 C2.432,4.683 1.929,5.834 1.841,7.1 L6.534,7.1 Z M11.219,3.216 C10.317,2.432 9.166,1.929 7.9,1.841 L7.9,6.534 Z M6.534,7.9 L1.841,7.9 C1.929,9.166 2.433,10.317 3.216,11.219 Z M8.466,7.1 L13.159,7.1 C13.071,5.834 12.567,4.683 11.784,3.781 Z M3.781,11.784 C4.683,12.567 5.834,13.071 7.1,13.159 L7.1,8.466 Z M11.784,11.218 C12.567,10.317 13.071,9.166 13.159,7.9 L8.466,7.9 Z M7.9,8.466 L7.9,13.159 C9.166,13.071 10.317,12.567 11.218,11.784 Z"/>
</svg>

