<svg xmlns="http://www.w3.org/2000/svg" width="15" height="15" viewBox="0 0 15 15">
  <defs/>
  <path fill="currentColor" d="M0.671,7.146 L3.146,4.672 C3.341,4.476 3.658,4.476 3.853,4.672 L6.328,7.146 C6.523,7.342 6.523,7.658 6.328,7.854 L3.853,10.328 C3.658,10.524 3.341,10.524 3.146,10.328 L0.671,7.854 C0.476,7.658 0.476,7.342 0.671,7.146 Z M4.671,11.854 C4.476,11.658 4.476,11.342 4.671,11.146 L7.146,8.671 C7.341,8.476 7.658,8.476 7.853,8.671 L10.328,11.146 C10.523,11.342 10.523,11.658 10.328,11.854 L7.853,14.328 C7.658,14.524 7.341,14.524 7.146,14.328 Z M4.671,3.146 L7.146,0.671 C7.341,0.476 7.658,0.476 7.853,0.671 L10.328,3.146 C10.523,3.342 10.523,3.658 10.328,3.853 L7.853,6.328 C7.658,6.524 7.341,6.524 7.146,6.328 L4.671,3.853 C4.476,3.658 4.476,3.342 4.671,3.146 Z M8.671,7.146 L11.146,4.671 C11.341,4.476 11.658,4.476 11.853,4.671 L14.328,7.146 C14.523,7.342 14.523,7.658 14.328,7.853 L11.853,10.328 C11.658,10.524 11.341,10.524 11.146,10.328 L8.671,7.853 C8.476,7.658 8.476,7.342 8.671,7.146 Z M5.732,11.5 L7.5,13.268 L9.267,11.5 L7.5,9.732 Z M11.5,9.268 L13.267,7.5 L11.5,5.732 L9.732,7.5 Z M7.5,5.268 L9.267,3.5 L7.5,1.732 L5.732,3.5 Z M3.5,9.268 L5.267,7.5 L3.5,5.732 L1.732,7.5 Z"/>
</svg>

