<svg xmlns="http://www.w3.org/2000/svg" width="15" height="15" viewBox="0 0 15 15">
  <defs/>
  <path fill="currentColor" d="M9.268,11.389 C9.463,11.584 9.463,11.901 9.268,12.096 C9.073,12.292 8.756,12.292 8.561,12.096 C8.365,11.901 8.365,11.584 8.561,11.389 C8.756,11.194 9.073,11.194 9.268,11.389 Z M7.147,13.51 C6.951,13.315 6.951,12.999 7.147,12.803 C7.171,12.779 7.197,12.757 7.225,12.739 C7.419,12.611 7.683,12.632 7.854,12.803 C8.049,12.999 8.049,13.315 7.854,13.51 C7.658,13.706 7.342,13.706 7.147,13.51 Z M12.096,8.561 C12.292,8.756 12.292,9.073 12.096,9.268 C11.901,9.463 11.584,9.463 11.389,9.268 C11.194,9.073 11.194,8.756 11.389,8.561 C11.584,8.365 11.901,8.365 12.096,8.561 Z M12.803,7.146 C12.999,6.951 13.315,6.951 13.51,7.146 C13.706,7.342 13.706,7.658 13.51,7.854 C13.315,8.049 12.999,8.049 12.803,7.854 C12.608,7.658 12.608,7.342 12.803,7.146 Z M10.682,9.975 C10.877,10.17 10.877,10.487 10.682,10.682 C10.487,10.877 10.17,10.877 9.975,10.682 C9.78,10.487 9.78,10.17 9.975,9.975 C10.17,9.78 10.487,9.78 10.682,9.975 Z"/>
  <path fill="currentColor" d="M2.904,8.561 C2.709,8.756 2.709,9.072 2.904,9.268 C3.099,9.463 3.416,9.463 3.611,9.268 C3.806,9.072 3.806,8.756 3.611,8.561 C3.416,8.365 3.099,8.365 2.904,8.561 Z M4.318,9.975 C4.123,10.17 4.123,10.487 4.318,10.682 C4.513,10.877 4.83,10.877 5.025,10.682 C5.22,10.487 5.22,10.17 5.025,9.975 C4.83,9.78 4.513,9.78 4.318,9.975 Z M5.732,11.389 C5.537,11.584 5.537,11.901 5.732,12.096 C5.928,12.291 6.244,12.291 6.439,12.096 C6.635,11.901 6.635,11.584 6.439,11.389 C6.244,11.194 5.928,11.194 5.732,11.389 Z M2.197,7.854 C2.368,7.683 2.389,7.419 2.261,7.225 C2.09,6.967 1.711,6.925 1.49,7.146 C1.294,7.342 1.294,7.658 1.49,7.854 C1.685,8.049 2.001,8.049 2.197,7.854 Z M3.611,5.732 C3.416,5.537 3.099,5.537 2.904,5.732 C2.709,5.927 2.709,6.244 2.904,6.439 C3.099,6.635 3.416,6.635 3.611,6.439 C3.806,6.244 3.806,5.927 3.611,5.732 Z M5.025,4.318 C4.83,4.123 4.513,4.123 4.318,4.318 C4.123,4.513 4.123,4.83 4.318,5.025 C4.513,5.22 4.83,5.22 5.025,5.025 C5.22,4.83 5.22,4.513 5.025,4.318 Z M6.439,2.904 C6.244,2.709 5.928,2.709 5.732,2.904 C5.537,3.099 5.537,3.416 5.732,3.611 C5.928,3.806 6.244,3.806 6.439,3.611 C6.635,3.416 6.635,3.099 6.439,2.904 Z M7.854,1.49 C7.658,1.294 7.342,1.294 7.146,1.49 C6.951,1.685 6.951,2.001 7.146,2.197 C7.342,2.392 7.658,2.392 7.854,2.197 C8.049,2.001 8.049,1.685 7.854,1.49 Z M9.268,2.904 C9.073,2.709 8.756,2.709 8.561,2.904 C8.365,3.099 8.365,3.416 8.561,3.611 C8.756,3.806 9.073,3.806 9.268,3.611 C9.463,3.416 9.463,3.099 9.268,2.904 Z M10.682,4.318 C10.487,4.123 10.17,4.123 9.975,4.318 C9.78,4.513 9.78,4.83 9.975,5.025 C10.17,5.22 10.487,5.22 10.682,5.025 C10.877,4.83 10.877,4.513 10.682,4.318 Z M12.096,5.732 C11.901,5.537 11.584,5.537 11.389,5.732 C11.194,5.927 11.194,6.244 11.389,6.439 C11.584,6.635 11.901,6.635 12.096,6.439 C12.291,6.244 12.291,5.927 12.096,5.732 Z"/>
</svg>

