<svg xmlns="http://www.w3.org/2000/svg" width="15" height="15" viewBox="0 0 15 15">
  <defs/>
  <path fill="currentColor" d="M9.877,12 C8.776,12 7.919,12 7.232,11.944 C6.534,11.887 5.967,11.769 5.457,11.509 C4.61,11.078 3.922,10.39 3.49,9.543 C3.231,9.033 3.113,8.466 3.056,7.768 C3,7.081 3,6.224 3,5.123 L3,3.5 C3,3.224 3.224,3 3.5,3 C3.776,3 4,3.224 4,3.5 L4,5.1 C4,6.228 4,7.045 4.053,7.686 C4.105,8.323 4.205,8.743 4.381,9.089 C4.717,9.748 5.252,10.283 5.911,10.618 C6.257,10.795 6.677,10.895 7.314,10.947 C7.955,11 8.772,11 9.9,11 L11.5,11 C11.776,11 12,11.224 12,11.5 C12,11.776 11.776,12 11.5,12 Z"/>
</svg>

