<svg xmlns="http://www.w3.org/2000/svg" width="15" height="15" viewBox="0 0 15 15">
  <defs/>
  <path fill="currentColor" d="M13.15,7.5 C13.15,4.665 10.94,1.85 7.5,1.85 C4.722,1.85 3.349,3.906 2.763,5 L4.5,5 C4.776,5 5,5.224 5,5.5 C5,5.776 4.776,6 4.5,6 L1.5,6 C1.224,6 1,5.776 1,5.5 L1,2.5 C1,2.224 1.224,2 1.5,2 C1.776,2 2,2.224 2,2.5 L2,4.313 C2.705,3.071 4.334,0.85 7.5,0.85 C11.563,0.85 14.15,4.185 14.15,7.5 C14.15,10.815 11.563,14.15 7.5,14.15 C5.556,14.15 3.938,13.381 2.785,12.208 C2.169,11.581 1.687,10.839 1.358,10.041 C1.253,9.785 1.375,9.493 1.63,9.388 C1.886,9.283 2.178,9.405 2.283,9.66 C2.564,10.342 2.975,10.974 3.499,11.507 C4.471,12.496 5.835,13.15 7.5,13.15 C10.94,13.15 13.15,10.335 13.15,7.5 Z M7,10 L7,5 L8,5 L8,10 Z"/>
</svg>

