<svg xmlns="http://www.w3.org/2000/svg" width="15" height="15" viewBox="0 0 15 15">
  <defs/>
  <path fill="currentColor" d="M4,0.5 L4,3 L11.5,3 C11.776,3 12,3.224 12,3.5 L12,11 L14.5,11 C14.776,11 15,11.224 15,11.5 C15,11.776 14.776,12 14.5,12 L12,12 L12,14.5 C12,14.776 11.776,15 11.5,15 C11.224,15 11,14.776 11,14.5 L11,12 L3.5,12 C3.224,12 3,11.776 3,11.5 L3,4 L0.5,4 C0.224,4 0,3.776 0,3.5 C0,3.224 0.224,3 0.5,3 L3,3 L3,0.5 C3,0.224 3.224,0 3.5,0 C3.776,0 4,0.224 4,0.5 Z M4,4 L4,11 L11,11 L11,4 Z"/>
</svg>

