<svg xmlns="http://www.w3.org/2000/svg" width="15" height="15" viewBox="0 0 15 15">
  <defs/>
  <path fill="currentColor" d="M11.782,4.032 L8.313,7.5 L11.782,10.968 C12.006,11.193 12.006,11.557 11.782,11.782 C11.557,12.006 11.193,12.006 10.969,11.782 L7.5,8.313 L4.032,11.782 C3.807,12.006 3.443,12.006 3.218,11.782 C2.994,11.557 2.994,11.193 3.218,10.968 L6.687,7.5 L3.218,4.032 C2.994,3.807 2.994,3.443 3.218,3.218 C3.443,2.994 3.807,2.994 4.032,3.218 L7.5,6.687 L10.969,3.218 C11.193,2.994 11.557,2.994 11.782,3.218 C12.006,3.443 12.006,3.807 11.782,4.032 Z"/>
</svg>

