<svg xmlns="http://www.w3.org/2000/svg" width="15" height="15" viewBox="0 0 15 15">
  <defs/>
  <path fill="currentColor" d="M0.877,7.5 C0.877,3.842 3.842,0.877 7.5,0.877 C11.158,0.877 14.123,3.842 14.123,7.5 C14.123,11.158 11.158,14.123 7.5,14.123 C3.842,14.123 0.877,11.158 0.877,7.5 Z M7.5,1.827 C4.367,1.827 1.827,4.367 1.827,7.5 C1.827,10.633 4.367,13.173 7.5,13.173 C10.633,13.173 13.173,10.633 13.173,7.5 C13.173,4.367 10.633,1.827 7.5,1.827 Z M9.854,5.146 C10.049,5.342 10.049,5.658 9.854,5.854 L8.207,7.5 L9.854,9.146 C10.049,9.342 10.049,9.658 9.854,9.854 C9.658,10.049 9.342,10.049 9.146,9.854 L7.5,8.207 L5.854,9.854 C5.658,10.049 5.342,10.049 5.146,9.854 C4.951,9.658 4.951,9.342 5.146,9.146 L6.793,7.5 L5.146,5.854 C4.951,5.658 4.951,5.342 5.146,5.146 C5.342,4.951 5.658,4.951 5.854,5.146 L7.5,6.793 L9.146,5.146 C9.342,4.951 9.658,4.951 9.854,5.146 Z"/>
</svg>

