<svg xmlns="http://www.w3.org/2000/svg" width="15" height="15" viewBox="0 0 15 15">
  <defs/>
  <path fill="currentColor" d="M0.877,7.502 C0.877,3.843 3.843,0.877 7.502,0.877 C11.161,0.877 14.127,3.843 14.127,7.502 C14.127,11.161 11.161,14.127 7.502,14.127 C3.843,14.127 0.877,11.161 0.877,7.502 Z M1.849,7 L4.5,7 C4.776,7 5,7.224 5,7.5 C5,7.776 4.776,8 4.5,8 L1.849,8 C2.086,10.736 4.265,12.915 7,13.155 L7,10.5 C7,10.224 7.224,10 7.5,10 C7.776,10 8,10.224 8,10.5 L8,13.156 C10.737,12.918 12.918,10.737 13.156,8 L10.5,8 C10.224,8 10,7.776 10,7.5 C10,7.224 10.224,7 10.5,7 L13.155,7 C12.915,4.265 10.736,2.086 8,1.849 L8,4.5 C8,4.776 7.776,5 7.5,5 C7.224,5 7,4.776 7,4.5 L7,1.849 C4.266,2.089 2.089,4.266 1.849,7 Z"/>
</svg>

