<svg xmlns="http://www.w3.org/2000/svg" width="15" height="15" viewBox="0 0 15 15">
  <defs/>
  <path fill="currentColor" d="M7.289,0.797 C7.423,0.734 7.577,0.734 7.711,0.797 L13.711,3.597 C13.887,3.679 14,3.856 14,4.05 L14,10.95 C14,11.144 13.887,11.321 13.711,11.403 L7.711,14.203 C7.577,14.266 7.423,14.266 7.289,14.203 L1.289,11.403 C1.113,11.321 1,11.144 1,10.95 L1,4.05 C1,3.856 1.113,3.679 1.289,3.597 Z M2,4.806 L2,10.632 L7,12.965 L7,6.931 Z M8,12.965 L13,10.632 L13,4.806 L8,6.931 Z M7.5,6.057 L12.272,4.029 L7.5,1.802 L2.728,4.029 Z"/>
</svg>

