<svg xmlns="http://www.w3.org/2000/svg" width="15" height="15" viewBox="0 0 15 15">
  <defs/>
  <path fill="currentColor" d="M2.5,4 L9.5,4 C10.328,4 11,4.672 11,5.5 L11,12.5 C11,13.328 10.328,14 9.5,14 L2.5,14 C1.672,14 1,13.328 1,12.5 L1,5.5 C1,4.672 1.672,4 2.5,4 Z M9.5,5 L2.5,5 C2.224,5 2,5.224 2,5.5 L2,12.5 C2,12.776 2.224,13 2.5,13 L9.5,13 C9.776,13 10,12.776 10,12.5 L10,5.5 C10,5.224 9.776,5 9.5,5 Z M3,2.739 C3,2.947 2.761,3.064 2.597,2.936 L1.004,1.697 C0.875,1.597 0.875,1.403 1.004,1.303 L2.597,0.064 C2.761,-0.064 3,0.053 3,0.261 L3,1 L9,1 L9,0.261 C9,0.053 9.239,-0.064 9.404,0.064 L10.996,1.303 C11.125,1.403 11.125,1.597 10.996,1.697 L9.404,2.936 C9.239,3.064 9,2.947 9,2.739 L9,2 L3,2 Z M14.739,6 L14,6 L14,12 L14.739,12 C14.947,12 15.064,12.239 14.936,12.403 L13.697,13.996 C13.597,14.125 13.403,14.125 13.303,13.996 L12.064,12.403 C11.936,12.239 12.053,12 12.261,12 L13,12 L13,6 L12.261,6 C12.053,6 11.936,5.761 12.064,5.597 L13.303,4.004 C13.403,3.875 13.597,3.875 13.697,4.004 L14.936,5.597 C15.064,5.761 14.947,6 14.739,6 Z"/>
</svg>

