<svg xmlns="http://www.w3.org/2000/svg" width="15" height="15" viewBox="0 0 15 15">
  <defs/>
  <path fill="currentColor" d="M8.625,2.5 C8.625,3.121 8.121,3.625 7.5,3.625 C6.879,3.625 6.375,3.121 6.375,2.5 C6.375,1.879 6.879,1.375 7.5,1.375 C8.121,1.375 8.625,1.879 8.625,2.5 Z M8.625,7.5 C8.625,8.121 8.121,8.625 7.5,8.625 C6.879,8.625 6.375,8.121 6.375,7.5 C6.375,6.879 6.879,6.375 7.5,6.375 C8.121,6.375 8.625,6.879 8.625,7.5 Z M7.5,13.625 C6.879,13.625 6.375,13.121 6.375,12.5 C6.375,11.879 6.879,11.375 7.5,11.375 C8.121,11.375 8.625,11.879 8.625,12.5 C8.625,13.121 8.121,13.625 7.5,13.625 Z"/>
</svg>

