<svg xmlns="http://www.w3.org/2000/svg" width="15" height="15" viewBox="0 0 15 15">
  <defs/>
  <path fill="currentColor" d="M3.625,7.5 C3.625,8.121 3.121,8.625 2.5,8.625 C1.879,8.625 1.375,8.121 1.375,7.5 C1.375,6.879 1.879,6.375 2.5,6.375 C3.121,6.375 3.625,6.879 3.625,7.5 Z M8.625,7.5 C8.625,8.121 8.121,8.625 7.5,8.625 C6.879,8.625 6.375,8.121 6.375,7.5 C6.375,6.879 6.879,6.375 7.5,6.375 C8.121,6.375 8.625,6.879 8.625,7.5 Z M12.5,8.625 C11.879,8.625 11.375,8.121 11.375,7.5 C11.375,6.879 11.879,6.375 12.5,6.375 C13.121,6.375 13.625,6.879 13.625,7.5 C13.625,8.121 13.121,8.625 12.5,8.625 Z"/>
</svg>

