<svg xmlns="http://www.w3.org/2000/svg" width="15" height="15" viewBox="0 0 15 15">
  <defs/>
  <path fill="currentColor" d="M11.146,12.854 L7.5,9.207 L3.854,12.854 C3.658,13.049 3.342,13.049 3.146,12.854 C2.951,12.658 2.951,12.342 3.146,12.146 L7.146,8.146 C7.342,7.951 7.658,7.951 7.854,8.146 L11.854,12.146 C12.049,12.342 12.049,12.658 11.854,12.854 C11.658,13.049 11.342,13.049 11.146,12.854 Z M11.146,6.854 L7.5,3.207 L3.854,6.854 C3.658,7.049 3.342,7.049 3.146,6.854 C2.951,6.658 2.951,6.342 3.146,6.146 L7.146,2.146 C7.342,1.951 7.658,1.951 7.854,2.146 L11.854,6.146 C12.049,6.342 12.049,6.658 11.854,6.854 C11.658,7.049 11.342,7.049 11.146,6.854 Z"/>
</svg>

