<svg xmlns="http://www.w3.org/2000/svg" width="15" height="15" viewBox="0 0 15 15">
  <defs/>
  <path fill="currentColor" d="M3.854,8.146 L7.5,11.793 L11.146,8.146 C11.342,7.951 11.658,7.951 11.854,8.146 C12.049,8.342 12.049,8.658 11.854,8.854 L7.854,12.854 C7.658,13.049 7.342,13.049 7.146,12.854 L3.146,8.854 C2.951,8.658 2.951,8.342 3.146,8.146 C3.342,7.951 3.658,7.951 3.854,8.146 Z M3.854,2.146 L7.5,5.793 L11.146,2.146 C11.342,1.951 11.658,1.951 11.854,2.146 C12.049,2.342 12.049,2.658 11.854,2.854 L7.854,6.854 C7.658,7.049 7.342,7.049 7.146,6.854 L3.146,2.854 C2.951,2.658 2.951,2.342 3.146,2.146 C3.342,1.951 3.658,1.951 3.854,2.146 Z"/>
</svg>

