<svg xmlns="http://www.w3.org/2000/svg" width="15" height="15" viewBox="0 0 15 15">
  <defs/>
  <path fill="currentColor" d="M2.5,10 C2.776,10 3,10.224 3,10.5 L3,12 C3,12.554 3.446,13 3.996,13 L11.001,13 C11.553,13 12,12.553 12,12 L12,10.5 C12,10.224 12.224,10 12.5,10 C12.776,10 13,10.224 13,10.5 L13,12 C13,13.104 12.106,14 11.001,14 L3.996,14 C2.89,14 2,13.103 2,12 L2,10.5 C2,10.224 2.224,10 2.5,10 Z M7.5,1.05 C7.749,1.05 7.95,1.251 7.95,1.5 L7.95,8.414 L10.182,6.182 C10.358,6.006 10.642,6.006 10.818,6.182 C10.994,6.358 10.994,6.642 10.818,6.818 L7.818,9.818 C7.643,9.994 7.358,9.994 7.182,9.818 L4.182,6.818 C4.006,6.642 4.006,6.358 4.182,6.182 C4.358,6.006 4.643,6.006 4.818,6.182 L7.05,8.414 L7.05,1.5 C7.05,1.251 7.252,1.05 7.5,1.05 Z"/>
</svg>

