<svg xmlns="http://www.w3.org/2000/svg" width="15" height="15" viewBox="0 0 15 15">
  <defs/>
  <path fill="currentColor" d="M2.5,6.1 L12.5,6.1 C12.721,6.1 12.9,6.279 12.9,6.5 C12.9,6.721 12.721,6.9 12.5,6.9 L2.5,6.9 C2.279,6.9 2.1,6.721 2.1,6.5 C2.1,6.279 2.279,6.1 2.5,6.1 Z M2.5,4.1 L12.5,4.1 C12.721,4.1 12.9,4.279 12.9,4.5 C12.9,4.721 12.721,4.9 12.5,4.9 L2.5,4.9 C2.279,4.9 2.1,4.721 2.1,4.5 C2.1,4.279 2.279,4.1 2.5,4.1 Z M2.1,8.5 C2.1,8.279 2.279,8.1 2.5,8.1 L12.5,8.1 C12.721,8.1 12.9,8.279 12.9,8.5 C12.9,8.721 12.721,8.9 12.5,8.9 L2.5,8.9 C2.279,8.9 2.1,8.721 2.1,8.5 Z M2.5,10.1 L12.5,10.1 C12.721,10.1 12.9,10.279 12.9,10.5 C12.9,10.721 12.721,10.9 12.5,10.9 L2.5,10.9 C2.279,10.9 2.1,10.721 2.1,10.5 C2.1,10.279 2.279,10.1 2.5,10.1 Z"/>
</svg>

