<svg xmlns="http://www.w3.org/2000/svg" width="15" height="15" viewBox="0 0 15 15">
  <defs/>
  <path fill="currentColor" d="M5.1,2.5 A0.6 0.6 0 1 1 3.9,2.5 A0.6 0.6 0 1 1 5.1,2.5 Z"/>
  <path fill="currentColor" d="M5.1,4.5 A0.6 0.6 0 1 1 3.9,4.5 A0.6 0.6 0 1 1 5.1,4.5 Z"/>
  <path fill="currentColor" d="M5.1,6.499 A0.6 0.6 0 1 1 3.9,6.499 A0.6 0.6 0 1 1 5.1,6.499 Z"/>
  <path fill="currentColor" d="M5.1,8.499 A0.6 0.6 0 1 1 3.9,8.499 A0.6 0.6 0 1 1 5.1,8.499 Z"/>
  <path fill="currentColor" d="M5.1,10.498 A0.6 0.6 0 1 1 3.9,10.498 A0.6 0.6 0 1 1 5.1,10.498 Z"/>
  <path fill="currentColor" d="M5.1,12.498 A0.6 0.6 0 1 1 3.9,12.498 A0.6 0.6 0 1 1 5.1,12.498 Z"/>
  <path fill="currentColor" d="M7.1,2.5 A0.6 0.6 0 1 1 5.9,2.5 A0.6 0.6 0 1 1 7.1,2.5 Z"/>
  <path fill="currentColor" d="M7.1,4.5 A0.6 0.6 0 1 1 5.9,4.5 A0.6 0.6 0 1 1 7.1,4.5 Z"/>
  <path fill="currentColor" d="M7.1,6.499 A0.6 0.6 0 1 1 5.9,6.499 A0.6 0.6 0 1 1 7.1,6.499 Z"/>
  <path fill="currentColor" d="M7.1,8.499 A0.6 0.6 0 1 1 5.9,8.499 A0.6 0.6 0 1 1 7.1,8.499 Z"/>
  <path fill="currentColor" d="M7.1,10.498 A0.6 0.6 0 1 1 5.9,10.498 A0.6 0.6 0 1 1 7.1,10.498 Z"/>
  <path fill="currentColor" d="M7.1,12.498 A0.6 0.6 0 1 1 5.9,12.498 A0.6 0.6 0 1 1 7.1,12.498 Z"/>
  <path fill="currentColor" d="M9.099,2.5 A0.6 0.6 0 1 1 7.899,2.5 A0.6 0.6 0 1 1 9.099,2.5 Z"/>
  <path fill="currentColor" d="M9.099,4.5 A0.6 0.6 0 1 1 7.899,4.5 A0.6 0.6 0 1 1 9.099,4.5 Z"/>
  <path fill="currentColor" d="M9.099,6.499 A0.6 0.6 0 1 1 7.899,6.499 A0.6 0.6 0 1 1 9.099,6.499 Z"/>
  <path fill="currentColor" d="M9.099,8.499 A0.6 0.6 0 1 1 7.899,8.499 A0.6 0.6 0 1 1 9.099,8.499 Z"/>
  <path fill="currentColor" d="M9.099,10.498 A0.6 0.6 0 1 1 7.899,10.498 A0.6 0.6 0 1 1 9.099,10.498 Z"/>
  <path fill="currentColor" d="M9.099,12.498 A0.6 0.6 0 1 1 7.899,12.498 A0.6 0.6 0 1 1 9.099,12.498 Z"/>
  <path fill="currentColor" d="M11.099,2.5 A0.6 0.6 0 1 1 9.899,2.5 A0.6 0.6 0 1 1 11.099,2.5 Z"/>
  <path fill="currentColor" d="M11.099,4.5 A0.6 0.6 0 1 1 9.899,4.5 A0.6 0.6 0 1 1 11.099,4.5 Z"/>
  <path fill="currentColor" d="M11.099,6.499 A0.6 0.6 0 1 1 9.899,6.499 A0.6 0.6 0 1 1 11.099,6.499 Z"/>
  <path fill="currentColor" d="M11.099,8.499 A0.6 0.6 0 1 1 9.899,8.499 A0.6 0.6 0 1 1 11.099,8.499 Z"/>
  <path fill="currentColor" d="M11.099,10.498 A0.6 0.6 0 1 1 9.899,10.498 A0.6 0.6 0 1 1 11.099,10.498 Z"/>
  <path fill="currentColor" d="M11.099,12.498 A0.6 0.6 0 1 1 9.899,12.498 A0.6 0.6 0 1 1 11.099,12.498 Z"/>
</svg>

