<svg xmlns="http://www.w3.org/2000/svg" width="15" height="15" viewBox="0 0 15 15">
  <defs/>
  <path fill="currentColor" d="M5.5,4.625 C4.879,4.625 4.375,4.121 4.375,3.5 C4.375,2.879 4.879,2.375 5.5,2.375 C6.121,2.375 6.625,2.879 6.625,3.5 C6.625,4.121 6.121,4.625 5.5,4.625 Z M5.5,8.625 C4.879,8.625 4.375,8.121 4.375,7.5 C4.375,6.879 4.879,6.375 5.5,6.375 C6.121,6.375 6.625,6.879 6.625,7.5 C6.625,8.121 6.121,8.625 5.5,8.625 Z M9.5,4.625 C8.879,4.625 8.375,4.121 8.375,3.5 C8.375,2.879 8.879,2.375 9.5,2.375 C10.121,2.375 10.625,2.879 10.625,3.5 C10.625,4.121 10.121,4.625 9.5,4.625 Z M10.625,7.5 C10.625,8.121 10.121,8.625 9.5,8.625 C8.879,8.625 8.375,8.121 8.375,7.5 C8.375,6.879 8.879,6.375 9.5,6.375 C10.121,6.375 10.625,6.879 10.625,7.5 Z M5.5,12.625 C4.879,12.625 4.375,12.121 4.375,11.5 C4.375,10.879 4.879,10.375 5.5,10.375 C6.121,10.375 6.625,10.879 6.625,11.5 C6.625,12.121 6.121,12.625 5.5,12.625 Z M10.625,11.5 C10.625,12.121 10.121,12.625 9.5,12.625 C8.879,12.625 8.375,12.121 8.375,11.5 C8.375,10.879 8.879,10.375 9.5,10.375 C10.121,10.375 10.625,10.879 10.625,11.5 Z"/>
</svg>

