<svg xmlns="http://www.w3.org/2000/svg" width="15" height="15" viewBox="0 0 15 15">
  <defs/>
  <path fill="currentColor" d="M8.361,0.729 C8.556,0.534 8.872,0.534 9.068,0.729 L14.271,5.932 C14.466,6.128 14.466,6.444 14.271,6.639 L8.955,11.955 L7.347,13.564 C6.761,14.149 5.811,14.149 5.225,13.564 L1.436,9.775 C0.851,9.189 0.851,8.239 1.436,7.653 L3.045,6.045 Z M8.714,1.79 L4.106,6.398 L8.602,10.894 L13.21,6.286 Z M7.894,11.601 L3.398,7.106 L2.143,8.36 C1.948,8.556 1.948,8.872 2.143,9.068 L5.932,12.856 C6.128,13.052 6.444,13.052 6.639,12.856 Z"/>
</svg>

