<svg xmlns="http://www.w3.org/2000/svg" width="15" height="15" viewBox="0 0 15 15">
  <defs/>
  <path fill="currentColor" d="M5.5,2 C5.776,2 6,2.224 6,2.5 L6,5.5 C6,5.776 5.776,6 5.5,6 L2.5,6 C2.224,6 2,5.776 2,5.5 C2,5.224 2.224,5 2.5,5 L5,5 L5,2.5 C5,2.224 5.224,2 5.5,2 Z M2,9.5 C2,9.224 2.224,9 2.5,9 L5.5,9 C5.776,9 6,9.224 6,9.5 L6,12.5 C6,12.776 5.776,13 5.5,13 C5.224,13 5,12.776 5,12.5 L5,10 L2.5,10 C2.224,10 2,9.776 2,9.5 Z M9.5,2 C9.776,2 10,2.224 10,2.5 L10,5 L12.5,5 C12.776,5 13,5.224 13,5.5 C13,5.776 12.776,6 12.5,6 L9.5,6 C9.224,6 9,5.776 9,5.5 L9,2.5 C9,2.224 9.224,2 9.5,2 Z M9,9.5 C9,9.224 9.224,9 9.5,9 L12.5,9 C12.776,9 13,9.224 13,9.5 C13,9.776 12.776,10 12.5,10 L10,10 L10,12.5 C10,12.776 9.776,13 9.5,13 C9.224,13 9,12.776 9,12.5 Z"/>
</svg>

