<svg xmlns="http://www.w3.org/2000/svg" width="15" height="15" viewBox="0 0 15 15">
  <defs/>
  <path fill="currentColor" d="M5.675,3.5 C5.675,3.252 5.876,3.05 6.125,3.05 L10.625,3.05 C10.873,3.05 11.075,3.252 11.075,3.5 C11.075,3.749 10.873,3.95 10.625,3.95 L9.006,3.95 L7.231,11.05 L8.875,11.05 C9.123,11.05 9.325,11.252 9.325,11.5 C9.325,11.749 9.123,11.95 8.875,11.95 L4.375,11.95 C4.126,11.95 3.925,11.749 3.925,11.5 C3.925,11.252 4.126,11.05 4.375,11.05 L5.994,11.05 L7.769,3.95 L6.125,3.95 C5.876,3.95 5.675,3.749 5.675,3.5 Z"/>
</svg>

