<svg xmlns="http://www.w3.org/2000/svg" width="15" height="15" viewBox="0 0 15 15">
  <defs/>
  <path fill="currentColor" d="M5.105,12 C4.708,12 4.424,11.912 4.252,11.736 C4.084,11.556 4,11.271 4,10.883 L4,4.117 C4,3.72 4.086,3.436 4.258,3.264 C4.434,3.088 4.716,3 5.105,3 C6.427,3 8.256,3 9.029,3 C10.137,3 11.054,3.982 11.054,5.185 C11.054,6.085 10.604,6.819 9.703,7.236 C10.866,7.449 11.518,8.628 11.518,9.481 C11.518,10.512 10.99,12 9.277,12 C8.777,12 6.426,12 5.105,12 Z M8.379,8.003 L5.8,8.003 L5.8,10.631 L8.379,10.631 C8.9,10.631 9.63,10.121 9.63,9.299 C9.63,8.476 8.9,8.003 8.379,8.003 Z M5.8,4.369 L5.8,6.696 L8.18,6.696 C8.539,6.696 9.277,6.359 9.277,5.5 C9.277,4.641 8.48,4.369 8.18,4.369 L5.8,4.369 Z"/>
</svg>

