<svg xmlns="http://www.w3.org/2000/svg" width="15" height="15" viewBox="0 0 15 15">
  <defs/>
  <path fill="currentColor" d="M7.071,0.65 L7.928,0.65 C8.325,0.65 8.669,0.925 8.757,1.312 L8.995,2.362 C9.374,2.472 9.736,2.623 10.075,2.81 L10.986,2.236 C11.322,2.024 11.76,2.073 12.041,2.354 L12.647,2.96 C12.928,3.24 12.977,3.678 12.765,4.014 L12.191,4.925 C12.377,5.264 12.528,5.626 12.638,6.005 L13.688,6.243 C14.075,6.331 14.35,6.675 14.35,7.072 L14.35,7.929 C14.35,8.326 14.075,8.67 13.688,8.758 L12.638,8.996 C12.528,9.375 12.377,9.737 12.19,10.076 L12.764,10.987 C12.976,11.323 12.927,11.76 12.646,12.041 L12.04,12.647 C11.759,12.928 11.322,12.977 10.986,12.765 L10.075,12.191 C9.736,12.377 9.374,12.528 8.995,12.638 L8.757,13.688 C8.669,14.075 8.325,14.35 7.928,14.35 L7.071,14.35 C6.674,14.35 6.33,14.075 6.242,13.688 L6.004,12.638 C5.625,12.528 5.264,12.377 4.925,12.191 L4.014,12.765 C3.678,12.977 3.24,12.928 2.96,12.647 L2.353,12.041 C2.073,11.76 2.024,11.323 2.235,10.987 L2.81,10.075 C2.623,9.737 2.472,9.375 2.362,8.996 L1.312,8.758 C0.925,8.67 0.65,8.326 0.65,7.929 L0.65,7.072 C0.65,6.675 0.925,6.331 1.312,6.243 L2.362,6.005 C2.472,5.626 2.623,5.265 2.809,4.926 L2.235,4.014 C2.023,3.678 2.072,3.241 2.353,2.96 L2.959,2.354 C3.24,2.073 3.677,2.024 4.013,2.236 L4.924,2.81 C5.263,2.624 5.625,2.473 6.004,2.362 L6.242,1.312 C6.33,0.925 6.674,0.65 7.071,0.65 Z M4.921,3.813 L3.56,2.955 L2.954,3.561 L3.812,4.922 C3.443,5.448 3.184,6.058 3.068,6.716 L1.5,7.072 L1.5,7.929 L3.068,8.285 C3.184,8.943 3.443,9.553 3.812,10.079 L2.954,11.44 L3.561,12.046 L4.921,11.188 C5.448,11.557 6.057,11.816 6.715,11.932 L7.071,13.5 L7.928,13.5 L8.284,11.932 C8.942,11.817 9.552,11.558 10.079,11.189 L11.439,12.046 L12.045,11.44 L11.188,10.08 C11.557,9.553 11.816,8.943 11.932,8.284 L13.5,7.929 L13.5,7.072 L11.932,6.716 C11.816,6.057 11.557,5.448 11.188,4.921 L12.046,3.561 L11.44,2.955 L10.079,3.812 C9.552,3.443 8.943,3.184 8.284,3.068 L7.928,1.5 L7.071,1.5 L6.715,3.068 C6.057,3.184 5.447,3.443 4.921,3.813 Z M9.925,7.5 C9.925,8.839 8.839,9.925 7.5,9.925 C6.161,9.925 5.075,8.839 5.075,7.5 C5.075,6.161 6.161,5.075 7.5,5.075 C8.839,5.075 9.925,6.161 9.925,7.5 Z M9.025,7.5 C9.025,6.658 8.342,5.975 7.5,5.975 C6.658,5.975 5.975,6.658 5.975,7.5 C5.975,8.342 6.658,9.025 7.5,9.025 C8.342,9.025 9.025,8.342 9.025,7.5 Z"/>
</svg>

