<svg xmlns="http://www.w3.org/2000/svg" width="15" height="15" viewBox="0 0 15 15">
  <defs/>
  <path fill="currentColor" d="M1,7.5 C1,7.224 1.224,7 1.5,7 L13.5,7 C13.776,7 14,7.224 14,7.5 C14,7.776 13.776,8 13.5,8 L1.5,8 C1.224,8 1,7.776 1,7.5 Z M1.5,3 L13.5,3 C13.776,3 14,3.224 14,3.5 C14,3.776 13.776,4 13.5,4 L1.5,4 C1.224,4 1,3.776 1,3.5 C1,3.224 1.224,3 1.5,3 Z M1,11.5 C1,11.224 1.224,11 1.5,11 L13.5,11 C13.776,11 14,11.224 14,11.5 C14,11.776 13.776,12 13.5,12 L1.5,12 C1.224,12 1,11.776 1,11.5 Z"/>
</svg>

