<svg xmlns="http://www.w3.org/2000/svg" width="15" height="15" viewBox="0 0 15 15">
  <defs/>
  <path fill="currentColor" d="M12.354,13.354 C12.158,13.549 11.842,13.549 11.646,13.354 L6.396,8.104 C6.365,8.072 6.338,8.037 6.317,8 L5,8 C4.787,8 4.598,7.865 4.528,7.664 L2.128,0.764 C2.053,0.548 2.134,0.309 2.324,0.183 C2.515,0.057 2.767,0.076 2.936,0.23 L8.336,5.13 C8.44,5.224 8.5,5.359 8.5,5.5 L8.5,5.817 C8.537,5.838 8.572,5.865 8.604,5.896 L13.854,11.146 C14.049,11.342 14.049,11.658 13.854,11.854 Z M8.25,6.957 L7.457,7.75 L12,12.293 L12.793,11.5 Z M3.717,2.288 L5.355,7 L6.293,7 L7.5,5.793 L7.5,5.721 Z"/>
</svg>

