<svg xmlns="http://www.w3.org/2000/svg" width="15" height="15" viewBox="0 0 15 15">
  <defs/>
  <path fill="currentColor" d="M2.5,1 L12.5,1 C13.328,1 14,1.672 14,2.5 L14,12.5 C14,13.328 13.328,14 12.5,14 L2.5,14 C1.672,14 1,13.328 1,12.5 L1,2.5 C1,1.672 1.672,1 2.5,1 Z M2.5,2 C2.224,2 2,2.224 2,2.5 L2,8.364 L3.682,6.682 C3.768,6.596 3.886,6.548 4.008,6.55 C4.13,6.552 4.246,6.604 4.329,6.693 L7.874,10.49 L10.682,7.682 C10.858,7.506 11.142,7.506 11.318,7.682 L13,9.364 L13,2.5 C13,2.224 12.776,2 12.5,2 Z M2,12.5 C2,12.776 2.224,13 2.5,13 L8.941,13 L7.531,11.442 L3.989,7.648 L2,9.636 Z M12.5,13 C12.776,13 13,12.776 13,12.5 L13,10.636 L11,8.636 L8.483,11.153 L10.155,13 Z M7.5,3.749 C8.467,3.749 9.251,4.533 9.251,5.5 C9.251,6.467 8.467,7.251 7.5,7.251 C6.533,7.251 5.749,6.467 5.749,5.5 C5.749,4.533 6.533,3.749 7.5,3.749 Z M6.649,5.5 C6.649,5.97 7.03,6.351 7.5,6.351 C7.97,6.351 8.351,5.97 8.351,5.5 C8.351,5.03 7.97,4.649 7.5,4.649 C7.03,4.649 6.649,5.03 6.649,5.5 Z"/>
</svg>

