<svg xmlns="http://www.w3.org/2000/svg" width="15" height="15" viewBox="0 0 15 15">
  <defs/>
  <path fill="currentColor" d="M7.5,0.877 C11.158,0.877 14.123,3.842 14.123,7.5 C14.123,11.157 11.158,14.123 7.5,14.123 C3.842,14.123 0.877,11.157 0.877,7.5 C0.877,3.842 3.842,0.877 7.5,0.877 Z M1.827,7.5 C1.827,10.633 4.367,13.173 7.5,13.173 C10.633,13.173 13.173,10.633 13.173,7.5 C13.173,4.367 10.633,1.827 7.5,1.827 C4.367,1.827 1.827,4.367 1.827,7.5 Z M6,6 L7.5,6 C7.776,6 8,6.224 8,6.5 L8,10 L9,10 L9,11 L6,11 L6,10 L7,10 L7,7 L6,7 Z M8.25,4.5 C8.25,4.914 7.914,5.25 7.5,5.25 C7.086,5.25 6.75,4.914 6.75,4.5 C6.75,4.086 7.086,3.75 7.5,3.75 C7.914,3.75 8.25,4.086 8.25,4.5 Z"/>
</svg>

