<svg xmlns="http://www.w3.org/2000/svg" width="15" height="15" viewBox="0 0 15 15">
  <defs/>
  <path fill="currentColor" d="M6.5,1 C7.373,1 8.043,1.3 8.469,1.897 C8.48,1.911 8.49,1.926 8.5,1.941 C8.51,1.926 8.52,1.911 8.531,1.897 C8.957,1.3 9.627,1 10.5,1 C10.776,1 11,1.224 11,1.5 C11,1.776 10.776,2 10.5,2 C9.873,2 9.543,2.2 9.344,2.478 C9.122,2.79 9,3.288 9,4 L9,11 C9,11.712 9.122,12.21 9.344,12.522 C9.543,12.8 9.873,13 10.5,13 C10.776,13 11,13.224 11,13.5 C11,13.776 10.776,14 10.5,14 C9.627,14 8.957,13.7 8.531,13.103 C8.52,13.089 8.51,13.074 8.5,13.059 C8.49,13.074 8.48,13.089 8.469,13.103 C8.043,13.7 7.373,14 6.5,14 C6.224,14 6,13.776 6,13.5 C6,13.224 6.224,13 6.5,13 C7.127,13 7.457,12.8 7.656,12.522 C7.878,12.21 8,11.712 8,11 L8,4 C8,3.288 7.878,2.79 7.656,2.478 C7.457,2.2 7.127,2 6.5,2 C6.224,2 6,1.776 6,1.5 C6,1.224 6.224,1 6.5,1 Z M6,4 L6,5 L1,5 L1,10 L6,10 L6,11 L1,11 C0.448,11 0,10.552 0,10 L0,5 C0,4.448 0.448,4 1,4 Z M14,5 L11,5 L11,4 L14,4 C14.552,4 15,4.448 15,5 L15,10 C15,10.552 14.552,11 14,11 L11,11 L11,10 L14,10 Z"/>
</svg>

