<svg xmlns="http://www.w3.org/2000/svg" width="15" height="15" viewBox="0 0 15 15">
  <defs/>
  <path fill="currentColor" d="M4.797,0.54 Q5.666,0.5 7.5,0.5 Q9.335,0.5 10.203,0.54 Q11.191,0.585 11.934,0.873 Q12.696,1.16 13.259,1.734 Q13.84,2.304 14.125,3.061 Q14.415,3.809 14.46,4.797 Q14.5,5.666 14.5,7.5 Q14.5,9.334 14.46,10.203 Q14.415,11.192 14.125,11.938 Q13.834,12.692 13.263,13.262 Q12.692,13.834 11.939,14.125 Q11.192,14.415 10.203,14.46 Q9.334,14.5 7.5,14.5 Q5.667,14.5 4.797,14.46 Q3.809,14.415 3.066,14.127 Q2.304,13.84 1.741,13.266 Q1.16,12.695 0.875,11.939 Q0.585,11.192 0.54,10.203 L0.536,10.13 L1.002,8.262 Q1,7.905 1,7.5 Q1,5.676 1.039,4.82 L1.04,4.815 Q1.08,3.914 1.341,3.242 L1.342,3.24 Q1.589,2.584 2.091,2.091 L2.095,2.087 Q2.351,1.826 2.654,1.634 L2.82,0.969 L3.061,0.875 Q3.808,0.585 4.797,0.54 Z M4.866,2.038 Q4.123,2.072 3.603,2.274 L3.595,2.277 Q3.555,2.292 3.517,2.308 L2.003,8.382 Q2.01,9.52 2.038,10.134 Q2.072,10.877 2.274,11.397 L2.277,11.406 Q2.447,11.857 2.794,12.197 L2.805,12.208 Q3.143,12.553 3.595,12.723 L3.605,12.727 Q4.123,12.928 4.866,12.962 Q5.701,13 7.5,13 Q9.3,13 10.134,12.962 Q10.878,12.928 11.401,12.725 L11.397,12.726 Q11.855,12.549 12.202,12.202 Q12.549,11.855 12.724,11.402 L12.727,11.395 Q12.928,10.877 12.962,10.134 Q13,9.299 13,7.5 Q13,5.7 12.962,4.866 Q12.928,4.123 12.725,3.6 L12.723,3.594 Q12.553,3.143 12.205,2.802 L12.195,2.792 Q11.857,2.447 11.404,2.277 L11.396,2.273 Q10.877,2.072 10.134,2.038 L10.134,2.038 L10.121,2.038 Q9.286,2 7.5,2 Q5.7,2 4.866,2.038 Z"/>
  <path fill="currentColor" d="M10.75,7.5 Q10.75,10.75 7.5,10.75 Q6.154,10.75 5.202,9.798 Q4.25,8.846 4.25,7.5 Q4.25,6.154 5.202,5.202 Q6.154,4.25 7.5,4.25 Q9.125,4.25 9.938,5.062 Q10.75,5.875 10.75,7.5 Z M9.75,7.5 Q9.75,6.375 9.188,5.812 Q8.625,5.25 7.5,5.25 Q6.568,5.25 5.909,5.909 Q5.25,6.568 5.25,7.5 Q5.25,8.432 5.909,9.091 Q6.568,9.75 7.5,9.75 Q9.75,9.75 9.75,7.5 Z"/>
  <path fill="currentColor" d="M11.72,4.03 A0.75 0.75 0 1 1 10.22,4.03 A0.75 0.75 0 1 1 11.72,4.03 Z"/>
</svg>

