<svg xmlns="http://www.w3.org/2000/svg" width="15" height="15" viewBox="0 0 15 15">
  <defs/>
  <path fill="currentColor" d="M1.5,3 L13.5,3 Q15,3 15,4.5 L15,10.5 Q15,12 13.5,12 L1.5,12 Q0,12 0,10.5 L0,4.5 Q0,3 1.5,3 Z M1.5,4 Q1,4 1,4.5 L1,10.5 Q1,11 1.5,11 L13.5,11 Q14,11 14,10.5 L14,4.5 Q14,4 13.5,4 Z"/>
  <path fill="currentColor" d="M2,5 L3,5 L3,6 L2,6 Z M4,5 L5,5 L5,6 L4,6 Z M6,5 L7,5 L7,6 L6,6 Z M8,5 L9,5 L9,6 L8,6 Z M10,5 L11,5 L11,6 L10,6 Z M12,5 L13,5 L13,6 L12,6 Z M11,7 L12,7 L12,8 L11,8 Z M12,9 L13,9 L13,10 L12,10 Z M9,7 L10,7 L10,8 L9,8 Z M7,7 L8,7 L8,8 L7,8 Z M5,7 L6,7 L6,8 L5,8 Z M3,7 L4,7 L4,8 L3,8 Z M2,9 L3,9 L3,10 L2,10 Z M4,9 L11,9 L11,10 L4,10 Z"/>
</svg>

