<svg xmlns="http://www.w3.org/2000/svg" width="15" height="15" viewBox="0 0 15 15">
  <defs/>
  <path fill="currentColor" d="M7.754,0.82 L13.254,4.07 C13.407,4.159 13.5,4.323 13.5,4.5 C13.5,4.677 13.407,4.841 13.254,4.93 L7.754,8.18 C7.597,8.273 7.403,8.273 7.246,8.18 L1.746,4.93 C1.593,4.841 1.5,4.677 1.5,4.5 C1.5,4.323 1.593,4.159 1.746,4.07 L7.246,0.82 C7.403,0.727 7.597,0.727 7.754,0.82 Z M7.5,7.169 L12.017,4.5 L7.5,1.831 L2.983,4.5 Z M1.569,10.496 C1.71,10.258 2.017,10.179 2.254,10.319 L7.5,13.419 L12.746,10.319 C12.983,10.179 13.29,10.258 13.43,10.496 C13.571,10.733 13.492,11.04 13.254,11.181 L7.754,14.431 C7.597,14.523 7.403,14.523 7.246,14.431 L1.746,11.181 C1.508,11.04 1.429,10.733 1.569,10.496 Z M1.569,7.496 C1.71,7.258 2.017,7.179 2.254,7.32 L7.5,10.419 L12.746,7.32 C12.983,7.179 13.29,7.258 13.43,7.496 C13.571,7.733 13.492,8.04 13.254,8.18 L7.754,11.431 C7.597,11.523 7.403,11.523 7.246,11.431 L1.746,8.18 C1.508,8.04 1.429,7.733 1.569,7.496 Z"/>
</svg>

