<svg xmlns="http://www.w3.org/2000/svg" width="15" height="15" viewBox="0 0 15 15">
  <defs/>
  <path fill="currentColor" d="M4.553,1 C4.753,1 4.934,1.119 5.012,1.303 L8.011,8.3 C8.12,8.554 8.002,8.848 7.748,8.956 C7.495,9.065 7.201,8.948 7.092,8.694 L6.116,6.417 L2.99,6.417 L2.014,8.694 C1.905,8.948 1.611,9.065 1.357,8.956 C1.104,8.848 0.986,8.554 1.095,8.3 L4.093,1.303 C4.172,1.119 4.353,1 4.553,1 Z M14.954,12.5 C14.954,12.606 14.911,12.708 14.837,12.783 L12.837,14.783 C12.68,14.939 12.427,14.939 12.271,14.783 C12.115,14.627 12.115,14.373 12.271,14.217 L13.588,12.9 L1.519,12.9 L2.837,14.217 C2.993,14.373 2.993,14.627 2.837,14.783 C2.68,14.939 2.427,14.939 2.271,14.783 L0.271,12.783 C0.196,12.708 0.154,12.606 0.154,12.5 C0.154,12.394 0.196,12.292 0.271,12.217 L2.271,10.217 C2.427,10.061 2.68,10.061 2.837,10.217 C2.993,10.373 2.993,10.627 2.837,10.783 L1.519,12.1 L13.588,12.1 L12.271,10.783 C12.115,10.627 12.115,10.373 12.271,10.217 C12.427,10.061 12.68,10.061 12.837,10.217 L14.837,12.217 C14.911,12.292 14.954,12.394 14.954,12.5 Z M11.056,9.002 C10.851,9.002 10.666,8.876 10.591,8.685 L7.839,1.683 C7.738,1.426 7.864,1.136 8.122,1.035 C8.378,0.934 8.669,1.06 8.77,1.317 L11.056,7.135 L13.343,1.317 C13.444,1.06 13.734,0.934 13.991,1.035 C14.248,1.136 14.374,1.426 14.273,1.683 L11.521,8.685 C11.446,8.876 11.262,9.002 11.056,9.002 Z M4.553,2.769 L3.354,5.567 L5.752,5.567 Z"/>
</svg>

