<svg xmlns="http://www.w3.org/2000/svg" width="15" height="15" viewBox="0 0 15 15">
  <defs/>
  <path fill="currentColor" d="M7.765,3.699 L7.146,4.318 C6.951,4.513 6.634,4.513 6.439,4.318 C6.244,4.123 6.244,3.806 6.439,3.611 L7.058,2.992 L7.101,2.949 L7.101,2.949 C7.47,2.58 7.707,2.343 7.95,2.178 C8.944,1.503 10.237,1.468 11.227,2.118 C11.469,2.277 11.7,2.508 12.051,2.859 L12.096,2.904 L12.14,2.949 C12.492,3.3 12.723,3.531 12.882,3.772 C13.532,4.762 13.497,6.056 12.822,7.05 C12.656,7.293 12.42,7.53 12.05,7.899 L12.007,7.942 L11.389,8.561 C11.193,8.756 10.877,8.756 10.682,8.561 C10.486,8.365 10.486,8.049 10.682,7.854 L11.3,7.235 C11.727,6.808 11.889,6.642 11.994,6.488 C12.454,5.812 12.463,4.957 12.046,4.321 C11.951,4.177 11.8,4.023 11.389,3.611 C10.977,3.199 10.823,3.049 10.678,2.954 C10.043,2.537 9.188,2.546 8.512,3.005 C8.357,3.11 8.192,3.272 7.765,3.699 Z M2.992,7.058 L3.611,6.439 C3.806,6.244 4.122,6.244 4.318,6.439 C4.513,6.635 4.513,6.951 4.318,7.146 L3.699,7.765 C3.272,8.192 3.11,8.358 3.005,8.512 C2.545,9.188 2.536,10.043 2.954,10.679 C3.048,10.823 3.199,10.977 3.611,11.389 C4.022,11.801 4.177,11.951 4.321,12.046 C4.956,12.463 5.811,12.454 6.488,11.995 C6.642,11.89 6.807,11.728 7.234,11.301 L7.853,10.682 C8.048,10.487 8.365,10.487 8.56,10.682 C8.756,10.877 8.756,11.194 8.56,11.389 L7.942,12.008 L7.899,12.051 C7.529,12.42 7.293,12.657 7.05,12.822 C6.056,13.497 4.762,13.532 3.772,12.882 C3.53,12.723 3.299,12.492 2.948,12.141 L2.948,12.141 L2.904,12.096 L2.859,12.052 L2.859,12.052 C2.507,11.7 2.276,11.469 2.118,11.228 C1.468,10.238 1.502,8.944 2.178,7.95 C2.343,7.707 2.579,7.47 2.949,7.101 Z M12.146,12.146 C12.342,11.951 12.658,11.951 12.853,12.146 L14.353,13.646 C14.549,13.842 14.549,14.158 14.353,14.353 C14.158,14.549 13.841,14.549 13.646,14.353 L12.146,12.853 C11.951,12.658 11.951,12.342 12.146,12.146 Z M0.646,0.646 C0.842,0.451 1.158,0.451 1.354,0.646 L2.854,2.146 C3.049,2.342 3.049,2.658 2.854,2.854 C2.658,3.049 2.342,3.049 2.146,2.854 L0.646,1.354 C0.451,1.158 0.451,0.842 0.646,0.646 Z M12,10.5 C12,10.224 12.224,10 12.5,10 L14.5,10 C14.776,10 15,10.224 15,10.5 C15,10.776 14.776,11 14.5,11 L12.5,11 C12.224,11 12,10.776 12,10.5 Z M10.5,12 C10.776,12 11,12.224 11,12.5 L11,14.5 C11,14.776 10.776,15 10.5,15 C10.224,15 10,14.776 10,14.5 L10,12.5 C10,12.224 10.224,12 10.5,12 Z M4.5,0 C4.776,0 5,0.224 5,0.5 L5,2.5 C5,2.776 4.776,3 4.5,3 C4.224,3 4,2.776 4,2.5 L4,0.5 C4,0.224 4.224,0 4.5,0 Z M0,4.5 C0,4.224 0.224,4 0.5,4 L2.5,4 C2.776,4 3,4.224 3,4.5 C3,4.776 2.776,5 2.5,5 L0.5,5 C0.224,5 0,4.776 0,4.5 Z"/>
</svg>

