<svg xmlns="http://www.w3.org/2000/svg" width="15" height="15" viewBox="0 0 15 15">
  <defs/>
  <path fill="currentColor" d="M2,7.5 C2,9.433 3.567,11 5.5,11 L12.793,11 L11.646,9.854 C11.451,9.658 11.451,9.342 11.646,9.146 C11.842,8.951 12.158,8.951 12.354,9.146 L14.354,11.146 C14.549,11.342 14.549,11.658 14.354,11.854 L12.354,13.854 C12.158,14.049 11.842,14.049 11.646,13.854 C11.451,13.658 11.451,13.342 11.646,13.146 L12.793,12 L5.5,12 C3.015,12 1,9.985 1,7.5 C1,7.224 1.224,7 1.5,7 C1.776,7 2,7.224 2,7.5 Z M3.354,1.854 L2.207,3 L9.5,3 C11.985,3 14,5.015 14,7.5 C14,7.776 13.776,8 13.5,8 C13.224,8 13,7.776 13,7.5 C13,5.567 11.433,4 9.5,4 L2.207,4 L3.354,5.146 C3.549,5.342 3.549,5.658 3.354,5.854 C3.158,6.049 2.842,6.049 2.646,5.854 L0.646,3.854 C0.451,3.658 0.451,3.342 0.646,3.146 L2.646,1.146 C2.842,0.951 3.158,0.951 3.354,1.146 C3.549,1.342 3.549,1.658 3.354,1.854 Z"/>
</svg>

