<svg xmlns="http://www.w3.org/2000/svg" width="15" height="15" viewBox="0 0 15 15">
  <defs/>
  <path fill="currentColor" d="M11.95,10.998 C11.72,12.14 10.71,13 9.5,13 C8.29,13 7.28,12.14 7.05,10.998 C7.033,10.999 7.017,11 7,11 L1.5,11 C1.224,11 1,10.776 1,10.5 C1,10.224 1.224,10 1.5,10 L7,10 C7.017,10 7.033,10.001 7.05,10.002 C7.28,8.86 8.29,8 9.5,8 C10.71,8 11.72,8.86 11.95,10.002 C11.967,10.001 11.983,10 12,10 L13.5,10 C13.776,10 14,10.224 14,10.5 C14,10.776 13.776,11 13.5,11 L12,11 C11.983,11 11.967,10.999 11.95,10.998 Z M3,5 L1.5,5 C1.224,5 1,4.776 1,4.5 C1,4.224 1.224,4 1.5,4 L3,4 C3.017,4 3.033,4.001 3.05,4.002 C3.28,2.86 4.29,2 5.5,2 C6.71,2 7.72,2.86 7.95,4.002 C7.967,4.001 7.983,4 8,4 L13.5,4 C13.776,4 14,4.224 14,4.5 C14,4.776 13.776,5 13.5,5 L8,5 C7.983,5 7.967,4.999 7.95,4.998 C7.72,6.14 6.71,7 5.5,7 C4.29,7 3.28,6.14 3.05,4.998 C3.033,4.999 3.017,5 3,5 Z M5.5,3 C4.672,3 4,3.672 4,4.5 C4,5.328 4.672,6 5.5,6 C6.328,6 7,5.328 7,4.5 C7,3.672 6.328,3 5.5,3 Z M8,10.5 C8,11.328 8.672,12 9.5,12 C10.328,12 11,11.328 11,10.5 C11,9.672 10.328,9 9.5,9 C8.672,9 8,9.672 8,10.5 Z"/>
</svg>

