<svg xmlns="http://www.w3.org/2000/svg" width="15" height="15" viewBox="0 0 15 15">
  <defs/>
  <path fill="currentColor" d="M4.5,1 L10.5,1 C11.328,1 12,1.672 12,2.5 L12,12.5 C12,13.328 11.328,14 10.5,14 L4.5,14 C3.672,14 3,13.328 3,12.5 L3,2.5 C3,1.672 3.672,1 4.5,1 Z M4,2.5 L4,12.5 C4,12.776 4.224,13 4.5,13 L10.5,13 C10.776,13 11,12.776 11,12.5 L11,2.5 C11,2.224 10.776,2 10.5,2 L4.5,2 C4.224,2 4,2.224 4,2.5 Z M6,11.65 L9,11.65 C9.193,11.65 9.35,11.807 9.35,12 C9.35,12.193 9.193,12.35 9,12.35 L6,12.35 C5.807,12.35 5.65,12.193 5.65,12 C5.65,11.807 5.807,11.65 6,11.65 Z"/>
</svg>

