<svg xmlns="http://www.w3.org/2000/svg" width="15" height="15" viewBox="0 0 15 15">
  <defs/>
  <path fill="currentColor" d="M8.544,0.982 L8.836,1.035 L9.101,1.095 L9.426,1.185 L9.678,1.267 L9.955,1.371 L10.194,1.472 L10.307,1.524 L10.635,1.689 L10.956,1.874 L11.248,2.065 L11.493,2.242 L11.813,2.502 L12.035,2.702 L12.196,2.86 L12.316,2.984 L12.479,3.164 L12.678,3.404 L12.831,3.604 C13.035,3.883 13.218,4.178 13.377,4.487 L13.451,4.635 L13.528,4.801 L13.641,5.069 C13.738,5.314 13.821,5.567 13.889,5.826 C13.945,6.041 13.991,6.261 14.026,6.484 L14.062,6.761 C14.089,7.004 14.103,7.25 14.103,7.5 C14.103,11.145 11.148,14.1 7.503,14.1 C7.374,14.1 7.246,14.097 7.119,14.089 L6.852,14.068 L6.535,14.03 C6.407,14.011 6.28,13.988 6.154,13.962 C6.048,13.94 5.943,13.915 5.839,13.889 C5.701,13.853 5.566,13.813 5.432,13.769 L5.188,13.683 L4.886,13.561 L4.625,13.441 L4.362,13.306 C4.235,13.238 4.112,13.165 3.991,13.089 L3.815,12.974 L3.628,12.843 L3.507,12.753 L3.319,12.604 L3.059,12.38 L2.987,12.313 C2.915,12.246 2.846,12.177 2.777,12.107 C2.627,11.953 2.746,11.702 2.96,11.691 C3.21,11.677 3.457,11.65 3.699,11.61 C6.822,11.088 9.203,8.372 9.203,5.1 C9.203,3.969 8.919,2.905 8.418,1.974 C8.3,1.756 8.17,1.545 8.029,1.342 C7.907,1.166 8.033,0.918 8.246,0.942 Z M10.403,5.3 C10.403,5.605 10.385,5.905 10.351,6.2 C11.041,6.2 11.6,6.76 11.6,7.45 C11.6,8.14 11.04,8.7 10.35,8.7 C10.109,8.7 9.884,8.632 9.693,8.513 C9.637,8.633 9.577,8.752 9.515,8.868 C9.85,8.944 10.099,9.243 10.099,9.6 C10.099,10.014 9.763,10.35 9.349,10.35 C9.1,10.35 8.88,10.228 8.743,10.042 C7.811,11.208 6.542,12.094 5.084,12.552 C5.816,12.904 6.636,13.1 7.503,13.1 C10.596,13.1 13.103,10.593 13.103,7.5 C13.103,5.239 11.762,3.29 9.832,2.406 C10.2,3.298 10.403,4.276 10.403,5.3 Z M2.9,0.5 L2.9,1.1 L3.5,1.1 C3.721,1.1 3.9,1.279 3.9,1.5 C3.9,1.721 3.721,1.9 3.5,1.9 L2.9,1.9 L2.9,2.5 C2.9,2.721 2.721,2.9 2.5,2.9 C2.279,2.9 2.1,2.721 2.1,2.5 L2.1,1.9 L1.5,1.9 C1.279,1.9 1.1,1.721 1.1,1.5 C1.1,1.279 1.279,1.1 1.5,1.1 L2.1,1.1 L2.1,0.5 C2.1,0.279 2.279,0.1 2.5,0.1 C2.721,0.1 2.9,0.279 2.9,0.5 Z M5.9,3.5 L5.9,4.1 L6.5,4.1 C6.721,4.1 6.9,4.279 6.9,4.5 C6.9,4.721 6.721,4.9 6.5,4.9 L5.9,4.9 L5.9,5.5 C5.9,5.721 5.721,5.9 5.5,5.9 C5.279,5.9 5.1,5.721 5.1,5.5 L5.1,4.9 L4.5,4.9 C4.279,4.9 4.1,4.721 4.1,4.5 C4.1,4.279 4.279,4.1 4.5,4.1 L5.1,4.1 L5.1,3.5 C5.1,3.279 5.279,3.1 5.5,3.1 C5.721,3.1 5.9,3.279 5.9,3.5 Z M1.9,6.5 L1.9,7.1 L2.5,7.1 C2.721,7.1 2.9,7.279 2.9,7.5 C2.9,7.721 2.721,7.9 2.5,7.9 L1.9,7.9 L1.9,8.5 C1.9,8.721 1.721,8.9 1.5,8.9 C1.279,8.9 1.1,8.721 1.1,8.5 L1.1,7.9 L0.5,7.9 C0.279,7.9 0.1,7.721 0.1,7.5 C0.1,7.279 0.279,7.1 0.5,7.1 L1.1,7.1 L1.1,6.5 C1.1,6.279 1.279,6.1 1.5,6.1 C1.721,6.1 1.9,6.279 1.9,6.5 Z"/>
</svg>

