<svg xmlns="http://www.w3.org/2000/svg" width="15" height="15" viewBox="0 0 15 15">
  <defs/>
  <path fill="currentColor" d="M3.318,6.068 L2.386,7 L5.5,7 C5.776,7 6,7.224 6,7.5 C6,7.776 5.776,8 5.5,8 L2.386,8 L3.318,8.932 C3.494,9.108 3.494,9.392 3.318,9.568 C3.142,9.744 2.858,9.744 2.682,9.568 L0.932,7.818 C0.756,7.642 0.756,7.358 0.932,7.182 L2.682,5.432 C2.858,5.256 3.142,5.256 3.318,5.432 C3.494,5.608 3.494,5.892 3.318,6.068 Z M7.818,0.932 L9.568,2.682 C9.744,2.858 9.744,3.142 9.568,3.318 C9.392,3.494 9.108,3.494 8.932,3.318 L8,2.386 L8,5.5 C8,5.776 7.776,6 7.5,6 C7.224,6 7,5.776 7,5.5 L7,2.386 L6.068,3.318 C5.892,3.494 5.608,3.494 5.432,3.318 C5.256,3.142 5.256,2.858 5.432,2.682 L7.182,0.932 C7.358,0.756 7.642,0.756 7.818,0.932 Z M8,9.5 L8,12.614 L8.932,11.682 C9.108,11.506 9.392,11.506 9.568,11.682 C9.744,11.858 9.744,12.142 9.568,12.318 L7.818,14.068 C7.642,14.244 7.358,14.244 7.182,14.068 L5.432,12.318 C5.256,12.142 5.256,11.858 5.432,11.682 C5.608,11.506 5.892,11.506 6.068,11.682 L7,12.614 L7,9.5 C7,9.224 7.224,9 7.5,9 C7.776,9 8,9.224 8,9.5 Z M9,7.5 C9,7.224 9.224,7 9.5,7 L12.614,7 L11.682,6.068 C11.506,5.892 11.506,5.608 11.682,5.432 C11.858,5.256 12.142,5.256 12.318,5.432 L14.068,7.182 C14.244,7.358 14.244,7.642 14.068,7.818 L12.318,9.568 C12.142,9.744 11.858,9.744 11.682,9.568 C11.506,9.392 11.506,9.108 11.682,8.932 L12.614,8 L9.5,8 C9.224,8 9,7.776 9,7.5 Z"/>
</svg>

