<svg xmlns="http://www.w3.org/2000/svg" width="15" height="15" viewBox="0 0 15 15">
  <defs/>
  <path fill="currentColor" d="M13,12 C13,12.552 12.552,13 12,13 L8.5,13 C8.224,13 8,12.776 8,12.5 C8,12.224 8.224,12 8.5,12 L12,12 L12,3 L3,3 L3,6.5 C3,6.776 2.776,7 2.5,7 C2.224,7 2,6.776 2,6.5 L2,3 C2,2.448 2.448,2 3,2 L12,2 C12.552,2 13,2.448 13,3 Z"/>
  <path fill="currentColor" d="M5.5,6 L8.5,6 Q8.707,6 8.854,6.146 Q9,6.293 9,6.5 L9,9.5 Q9,9.707 8.854,9.854 Q8.707,10 8.5,10 Q8.293,10 8.146,9.854 Q8,9.707 8,9.5 L8,7 L5.5,7 Q5.293,7 5.146,6.854 Q5,6.707 5,6.5 Q5,6.293 5.146,6.146 Q5.293,6 5.5,6 Z"/>
  <path fill="currentColor" d="M2.146,12.146 L8.146,6.146 Q8.293,6 8.5,6 Q8.707,6 8.854,6.146 Q9,6.293 9,6.5 Q9,6.707 8.854,6.854 L2.854,12.854 Q2.707,13 2.5,13 Q2.293,13 2.146,12.854 Q2,12.707 2,12.5 Q2,12.293 2.146,12.146 Z"/>
</svg>

