<svg xmlns="http://www.w3.org/2000/svg" width="15" height="15" viewBox="0 0 15 15">
  <defs/>
  <path fill="currentColor" d="M5,4.25 L5,9.55 C5,10.931 6.119,12.05 7.5,12.05 C8.881,12.05 10,10.931 10,9.55 L10,4.25 C10,3.974 10.224,3.75 10.5,3.75 C10.776,3.75 11,3.974 11,4.25 L11,9.55 C11,11.483 9.433,13.05 7.5,13.05 C5.567,13.05 4,11.483 4,9.55 L4,4.25 C4,3.974 4.224,3.75 4.5,3.75 C4.776,3.75 5,3.974 5,4.25 Z M3.5,1.1 L11.5,1.1 C11.721,1.1 11.9,1.279 11.9,1.5 C11.9,1.721 11.721,1.9 11.5,1.9 L3.5,1.9 C3.279,1.9 3.1,1.721 3.1,1.5 C3.1,1.279 3.279,1.1 3.5,1.1 Z"/>
</svg>

