<svg xmlns="http://www.w3.org/2000/svg" width="15" height="15" viewBox="0 0 15 15">
  <defs/>
  <path fill="currentColor" d="M1.203,1.043 L14.703,7.043 C14.884,7.123 15,7.302 15,7.5 C15,7.698 14.884,7.877 14.703,7.957 L1.203,13.957 C1.005,14.045 0.772,13.995 0.628,13.834 C0.483,13.672 0.459,13.436 0.568,13.248 L3.921,7.5 L0.568,1.752 C0.459,1.565 0.483,1.328 0.628,1.166 C0.772,1.005 1.005,0.955 1.203,1.043 Z M4.846,7.1 L9,7.1 C9.221,7.1 9.4,7.279 9.4,7.5 C9.4,7.721 9.221,7.9 9,7.9 L4.846,7.9 L2.212,12.414 L13.269,7.5 L2.212,2.586 Z"/>
</svg>

