<svg xmlns="http://www.w3.org/2000/svg" width="15" height="15" viewBox="0 0 15 15">
  <defs/>
  <path fill="currentColor" d="M7.5,0.875 C9.502,0.875 11.125,2.498 11.125,4.5 C11.125,6.153 10.019,7.547 8.506,7.984 C9.7,8.129 10.724,8.551 11.496,9.312 C12.478,10.279 12.975,11.72 12.975,13.6 C12.975,13.862 12.762,14.075 12.5,14.075 C12.238,14.075 12.025,13.862 12.025,13.6 C12.025,11.88 11.572,10.721 10.829,9.988 C10.085,9.255 8.973,8.875 7.5,8.875 C6.027,8.875 4.915,9.255 4.171,9.988 C3.428,10.721 2.975,11.88 2.975,13.6 C2.975,13.862 2.762,14.075 2.5,14.075 C2.238,14.075 2.025,13.862 2.025,13.6 C2.025,11.72 2.522,10.279 3.504,9.312 C4.276,8.551 5.3,8.129 6.494,7.984 C4.981,7.547 3.875,6.153 3.875,4.5 C3.875,2.498 5.498,0.875 7.5,0.875 Z M4.825,4.5 C4.825,5.977 6.023,7.175 7.5,7.175 C8.977,7.175 10.175,5.977 10.175,4.5 C10.175,3.023 8.977,1.825 7.5,1.825 C6.023,1.825 4.825,3.023 4.825,4.5 Z"/>
</svg>

