<svg xmlns="http://www.w3.org/2000/svg" width="15" height="15" viewBox="0 0 15 15">
  <defs/>
  <path fill="currentColor" d="M7.5,0.85 C11.173,0.85 14.15,3.828 14.15,7.5 C14.15,11.173 11.173,14.151 7.5,14.151 C3.827,14.151 0.85,11.173 0.85,7.5 C0.85,3.828 3.827,0.85 7.5,0.85 Z M1.85,7.5 C1.85,10.621 4.38,13.151 7.5,13.151 C10.62,13.151 13.15,10.621 13.15,7.5 C13.15,4.38 10.62,1.85 7.5,1.85 C4.38,1.85 1.85,4.38 1.85,7.5 Z M7,8 L7,3.128 C7.164,3.11 7.331,3.1 7.5,3.1 C9.93,3.1 11.9,5.07 11.9,7.5 C11.9,7.669 11.891,7.836 11.872,8 Z"/>
</svg>

