<svg xmlns="http://www.w3.org/2000/svg" width="15" height="15" viewBox="0 0 15 15">
  <defs/>
  <path fill="currentColor" d="M11.068,7.568 L7.818,10.818 C7.642,10.994 7.357,10.994 7.182,10.818 L3.932,7.568 C3.756,7.393 3.756,7.108 3.932,6.932 C4.107,6.756 4.392,6.756 4.568,6.932 L7.05,9.414 L7.05,1.5 C7.05,1.251 7.251,1.05 7.5,1.05 C7.748,1.05 7.95,1.251 7.95,1.5 L7.95,9.414 L10.432,6.932 C10.608,6.756 10.892,6.756 11.068,6.932 C11.244,7.108 11.244,7.393 11.068,7.568 Z M13.5,13.95 L1.5,13.95 C1.251,13.95 1.05,13.748 1.05,13.5 C1.05,13.251 1.251,13.05 1.5,13.05 L13.5,13.05 C13.748,13.05 13.95,13.251 13.95,13.5 C13.95,13.748 13.748,13.95 13.5,13.95 Z"/>
</svg>

