<svg xmlns="http://www.w3.org/2000/svg" width="15" height="15" viewBox="0 0 15 15">
  <defs/>
  <path fill="currentColor" d="M7.5,0.877 C11.158,0.877 14.123,3.842 14.123,7.5 C14.123,11.157 11.158,14.123 7.5,14.123 C3.842,14.123 0.877,11.157 0.877,7.5 C0.877,3.842 3.842,0.877 7.5,0.877 Z M1.827,7.5 C1.827,10.633 4.367,13.173 7.5,13.173 C10.633,13.173 13.173,10.633 13.173,7.5 C13.173,4.367 10.633,1.827 7.5,1.827 C4.367,1.827 1.827,4.367 1.827,7.5 Z M7.5,4 C7.776,4 8,4.224 8,4.5 L8,7 L10.5,7 C10.776,7 11,7.224 11,7.5 C11,7.776 10.776,8 10.5,8 L8,8 L8,10.5 C8,10.776 7.776,11 7.5,11 C7.224,11 7,10.776 7,10.5 L7,8 L4.5,8 C4.224,8 4,7.776 4,7.5 C4,7.224 4.224,7 4.5,7 L7,7 L7,4.5 C7,4.224 7.224,4 7.5,4 Z"/>
</svg>

