<svg xmlns="http://www.w3.org/2000/svg" width="15" height="15" viewBox="0 0 15 15">
  <defs/>
  <path fill="currentColor" d="M4.177,1 L10.823,1 C11.131,1 11.396,1 11.614,1.021 C11.844,1.043 12.072,1.091 12.284,1.221 C12.486,1.345 12.655,1.514 12.779,1.716 C12.909,1.928 12.957,2.156 12.979,2.386 C13,2.604 13,2.869 13,3.177 L13,11.823 C13,12.131 13,12.396 12.979,12.614 C12.957,12.844 12.909,13.072 12.779,13.284 C12.655,13.486 12.486,13.655 12.284,13.779 C12.072,13.909 11.844,13.957 11.614,13.979 C11.396,14 11.131,14 10.823,14 L4.177,14 C3.869,14 3.604,14 3.386,13.979 C3.156,13.957 2.928,13.909 2.716,13.779 C2.514,13.655 2.345,13.486 2.221,13.284 C2.091,13.072 2.043,12.844 2.021,12.614 C2,12.396 2,12.131 2,11.823 L2,3.177 C2,2.869 2,2.604 2.021,2.386 C2.043,2.156 2.091,1.928 2.221,1.716 C2.345,1.514 2.514,1.345 2.716,1.221 C2.928,1.091 3.156,1.043 3.386,1.021 C3.604,1 3.869,1 4.177,1 L4.177,1 Z M3.239,2.074 C3.171,2.115 3.115,2.171 3.074,2.239 C3.056,2.267 3.031,2.324 3.016,2.481 C3.001,2.645 3,2.863 3,3.2 L3,11.8 C3,12.137 3.001,12.355 3.016,12.519 C3.031,12.676 3.056,12.733 3.074,12.761 C3.115,12.828 3.171,12.885 3.239,12.926 C3.267,12.944 3.324,12.969 3.481,12.984 C3.645,13 3.863,13 4.2,13 L10.8,13 C11.137,13 11.355,13 11.519,12.984 C11.676,12.969 11.733,12.944 11.761,12.926 C11.828,12.885 11.885,12.828 11.926,12.761 C11.944,12.733 11.969,12.676 11.984,12.519 C12,12.355 12,12.137 12,11.8 L12,3.2 C12,2.863 12,2.645 11.984,2.481 C11.969,2.324 11.944,2.267 11.926,2.239 C11.885,2.171 11.828,2.115 11.761,2.074 C11.733,2.056 11.676,2.031 11.519,2.016 C11.355,2.001 11.137,2 10.8,2 L4.2,2 C3.863,2 3.645,2.001 3.481,2.016 C3.324,2.031 3.267,2.056 3.239,2.074 Z M4.5,7.5 C4.5,7.224 4.724,7 5,7 L10,7 C10.276,7 10.5,7.224 10.5,7.5 C10.5,7.776 10.276,8 10,8 L5,8 C4.724,8 4.5,7.776 4.5,7.5 Z M5,4 L10,4 C10.276,4 10.5,4.224 10.5,4.5 C10.5,4.776 10.276,5 10,5 L5,5 C4.724,5 4.5,4.776 4.5,4.5 C4.5,4.224 4.724,4 5,4 Z M5,10 L8,10 C8.276,10 8.5,10.224 8.5,10.5 C8.5,10.776 8.276,11 8,11 L5,11 C4.724,11 4.5,10.776 4.5,10.5 C4.5,10.224 4.724,10 5,10 Z"/>
</svg>

