<svg xmlns="http://www.w3.org/2000/svg" width="15" height="15" viewBox="0 0 15 15">
  <defs/>
  <path fill="currentColor" d="M5.733,2.308 L14.733,7.058 C14.897,7.144 15,7.315 15,7.5 C15,7.685 14.897,7.856 14.733,7.942 L5.733,12.692 C5.578,12.774 5.392,12.769 5.242,12.678 C5.092,12.588 5,12.425 5,12.25 L5,2.75 C5,2.575 5.092,2.412 5.242,2.322 C5.392,2.231 5.578,2.226 5.733,2.308 Z M6,11.421 L13.429,7.5 L6,3.579 Z M3.05,2.75 L3.05,12.25 C3.05,12.554 2.804,12.8 2.5,12.8 C2.196,12.8 1.95,12.554 1.95,12.25 L1.95,2.75 C1.95,2.446 2.196,2.2 2.5,2.2 C2.804,2.2 3.05,2.446 3.05,2.75 Z"/>
</svg>

