<svg xmlns="http://www.w3.org/2000/svg" width="15" height="15" viewBox="0 0 15 15">
  <defs/>
  <path fill="currentColor" d="M6.854,3.854 L3.854,6.854 L3.207,7.5 L4.354,8.646 C4.549,8.842 4.549,9.158 4.354,9.354 C4.158,9.549 3.842,9.549 3.646,9.354 L2.146,7.854 C2.053,7.76 2,7.633 2,7.5 C2,7.367 2.053,7.24 2.146,7.146 L2.694,6.599 L0.743,5.429 C0.611,5.35 0.523,5.214 0.504,5.061 C0.485,4.908 0.538,4.755 0.646,4.646 L2.646,2.646 C2.758,2.535 2.915,2.483 3.071,2.505 L6.323,2.97 L6.946,2.346 C7.802,1.491 9.171,0.988 10.41,0.811 C11.038,0.722 11.661,0.711 12.205,0.792 C12.733,0.871 13.255,1.048 13.604,1.396 C13.952,1.745 14.129,2.267 14.208,2.795 C14.289,3.338 14.278,3.962 14.189,4.589 C14.012,5.829 13.509,7.198 12.654,8.054 L12.03,8.677 L12.495,11.929 C12.517,12.085 12.465,12.242 12.354,12.354 L10.354,14.354 C10.245,14.462 10.092,14.515 9.939,14.496 C9.786,14.477 9.65,14.389 9.571,14.257 L8.401,12.306 L7.854,12.854 C7.658,13.049 7.342,13.049 7.146,12.854 L5.646,11.354 C5.451,11.158 5.451,10.842 5.646,10.646 C5.842,10.451 6.158,10.451 6.354,10.646 L7.5,11.793 L11.946,7.346 C12.591,6.702 13.038,5.571 13.199,4.448 C13.278,3.894 13.283,3.371 13.219,2.944 C13.153,2.501 13.023,2.23 12.896,2.104 C12.77,1.977 12.499,1.847 12.056,1.781 C11.629,1.717 11.106,1.722 10.552,1.801 C9.429,1.962 8.298,2.409 7.654,3.054 Z M9.5,6.749 C8.81,6.749 8.251,6.19 8.251,5.5 C8.251,4.81 8.81,4.251 9.5,4.251 C10.19,4.251 10.749,4.81 10.749,5.5 C10.749,6.19 10.19,6.749 9.5,6.749 Z M3.423,5.87 L5.439,3.854 L3.177,3.53 L1.806,4.901 Z M10.099,13.194 L11.47,11.823 L11.146,9.561 L9.13,11.578 Z M3.854,11.854 L1.854,13.854 C1.658,14.049 1.342,14.049 1.146,13.854 C0.951,13.658 0.951,13.342 1.146,13.146 L3.146,11.146 C3.342,10.951 3.658,10.951 3.854,11.146 C4.049,11.342 4.049,11.658 3.854,11.854 Z M5.354,13.354 L4.354,14.354 C4.158,14.549 3.842,14.549 3.646,14.354 C3.451,14.158 3.451,13.842 3.646,13.646 L4.646,12.646 C4.842,12.451 5.158,12.451 5.354,12.646 C5.549,12.842 5.549,13.158 5.354,13.354 Z M2.354,10.354 L1.354,11.354 C1.158,11.549 0.842,11.549 0.646,11.354 C0.451,11.158 0.451,10.842 0.646,10.646 L1.646,9.646 C1.842,9.451 2.158,9.451 2.354,9.646 C2.549,9.842 2.549,10.158 2.354,10.354 Z"/>
</svg>

