<svg xmlns="http://www.w3.org/2000/svg" width="15" height="15" viewBox="0 0 15 15">
  <defs/>
  <path fill="currentColor" d="M2.5,8.05 C3.172,8.05 3.782,8.321 4.224,8.76 L6.427,7.287 L6.68,6.381 C6.751,6.123 6.923,5.906 7.156,5.776 L10.231,4.065 C11.409,3.409 12.708,2.998 14.049,2.857 L15,2.757 L4.777,9.595 C4.889,9.875 4.95,10.18 4.95,10.5 C4.95,11.853 3.853,12.95 2.5,12.95 C1.147,12.95 0.05,11.853 0.05,10.5 C0.05,9.147 1.147,8.05 2.5,8.05 Z M2.5,6.935 C1.147,6.935 0.05,5.838 0.05,4.485 C0.05,3.131 1.147,2.035 2.5,2.035 C3.853,2.035 4.95,3.131 4.95,4.485 C4.95,4.808 4.887,5.117 4.773,5.4 L5.737,6.044 C5.729,6.067 5.723,6.089 5.716,6.112 L5.563,6.662 L5.21,6.898 L4.216,6.234 C3.774,6.667 3.168,6.935 2.5,6.935 Z M7.144,9.215 L8.811,8.1 L15,12.24 L14.049,12.14 C12.708,11.999 11.409,11.588 10.231,10.933 Z M0.95,10.5 C0.95,11.356 1.644,12.05 2.5,12.05 C3.356,12.05 4.05,11.356 4.05,10.5 C4.05,9.644 3.356,8.95 2.5,8.95 C1.644,8.95 0.95,9.644 0.95,10.5 Z M0.95,4.485 C0.95,5.341 1.644,6.035 2.5,6.035 C3.356,6.035 4.05,5.341 4.05,4.485 C4.05,3.628 3.356,2.935 2.5,2.935 C1.644,2.935 0.95,3.628 0.95,4.485 Z"/>
</svg>

