<svg xmlns="http://www.w3.org/2000/svg" width="15" height="15" viewBox="0 0 15 15">
  <defs/>
  <path fill="currentColor" opacity="0.05" d="M6.783,13.376 C8.739,9.953 8.739,5.047 6.783,1.624 L7.217,1.376 C9.261,4.953 9.261,10.047 7.217,13.624 Z"/>
  <path fill="currentColor" opacity="0.1" d="M7.282,13.477 C9.239,9.995 9.239,5.005 7.282,1.522 L7.718,1.278 C9.761,4.912 9.761,10.088 7.718,13.722 Z"/>
  <path fill="currentColor" opacity="0.15" d="M7.821,13.506 C9.725,9.995 9.726,5.014 7.825,1.501 L8.265,1.263 C10.247,4.925 10.245,10.085 8.261,13.745 Z"/>
  <path fill="currentColor" opacity="0.2" d="M8.413,13.429 C10.195,9.928 10.196,5.075 8.414,1.574 L8.86,1.347 C10.714,4.991 10.713,10.013 8.858,13.656 Z"/>
  <path fill="currentColor" opacity="0.25" d="M9.024,13.296 C10.657,9.838 10.659,5.177 9.03,1.717 L9.482,1.504 C11.175,5.099 11.173,9.916 9.477,13.509 Z"/>
  <path fill="currentColor" opacity="0.3" d="M9.668,13.066 C11.11,9.696 11.111,5.312 9.671,1.941 L10.131,1.745 C11.624,5.241 11.623,9.767 10.128,13.262 Z"/>
  <path fill="currentColor" opacity="0.35" d="M10.331,12.746 C11.555,9.521 11.556,5.491 10.335,2.264 L10.802,2.087 C12.067,5.428 12.066,9.584 10.799,12.923 Z"/>
  <path fill="currentColor" opacity="0.4" d="M11.016,12.299 C11.994,9.297 11.995,5.713 11.018,2.711 L11.494,2.556 C12.503,5.659 12.502,9.352 11.491,12.453 Z"/>
  <path fill="currentColor" opacity="0.45" d="M11.721,11.668 C12.425,9.013 12.426,5.997 11.724,3.341 L12.207,3.213 C12.932,5.953 12.931,9.057 12.205,11.796 Z"/>
  <path fill="currentColor" opacity="0.5" d="M12.443,10.752 C12.852,8.638 12.852,6.361 12.443,4.247 L12.934,4.152 C13.355,6.329 13.355,8.67 12.934,10.847 Z"/>
  <path fill="currentColor" d="M0.877,7.5 C0.877,3.842 3.842,0.877 7.5,0.877 C11.158,0.877 14.123,3.842 14.123,7.5 C14.123,11.158 11.158,14.123 7.5,14.123 C3.842,14.123 0.877,11.158 0.877,7.5 Z M7.5,1.827 C4.367,1.827 1.827,4.367 1.827,7.5 C1.827,10.633 4.367,13.173 7.5,13.173 C10.633,13.173 13.173,10.633 13.173,7.5 C13.173,4.367 10.633,1.827 7.5,1.827 Z"/>
</svg>

