<svg xmlns="http://www.w3.org/2000/svg" width="15" height="15" viewBox="0 0 15 15">
  <defs/>
  <path fill="currentColor" d="M5.713,8.664 C5.294,9.458 4.46,10 3.5,10 C2.119,10 1,8.881 1,7.5 C1,6.119 2.119,5 3.5,5 C4.46,5 5.294,5.542 5.713,6.336 L9.104,4.217 C9.036,3.99 9,3.749 9,3.5 C9,2.119 10.119,1 11.5,1 C12.881,1 14,2.119 14,3.5 C14,4.881 12.881,6 11.5,6 C10.691,6 9.973,5.616 9.516,5.021 L5.985,7.227 C5.995,7.317 6,7.408 6,7.5 C6,7.592 5.995,7.683 5.985,7.773 L9.516,9.979 C9.973,9.384 10.691,9 11.5,9 C12.881,9 14,10.119 14,11.5 C14,12.881 12.881,14 11.5,14 C10.119,14 9,12.881 9,11.5 C9,11.251 9.036,11.01 9.104,10.783 Z M5,7.5 C5,6.672 4.328,6 3.5,6 C2.672,6 2,6.672 2,7.5 C2,8.328 2.672,9 3.5,9 C4.328,9 5,8.328 5,7.5 Z M13,11.5 C13,10.672 12.328,10 11.5,10 C10.672,10 10,10.672 10,11.5 C10,12.328 10.672,13 11.5,13 C12.328,13 13,12.328 13,11.5 Z M11.5,5 C12.328,5 13,4.328 13,3.5 C13,2.672 12.328,2 11.5,2 C10.672,2 10,2.672 10,3.5 C10,4.328 10.672,5 11.5,5 Z"/>
</svg>

