<svg xmlns="http://www.w3.org/2000/svg" width="15" height="15" viewBox="0 0 15 15">
  <defs/>
  <path fill="currentColor" d="M11.5,3.05 C11.748,3.05 11.95,3.251 11.95,3.5 L11.95,7.5 C11.95,7.749 11.748,7.95 11.5,7.95 C11.252,7.95 11.05,7.749 11.05,7.5 L11.05,4.586 L4.586,11.05 L7.5,11.05 C7.749,11.05 7.95,11.252 7.95,11.5 C7.95,11.748 7.749,11.95 7.5,11.95 L3.5,11.95 C3.381,11.95 3.266,11.903 3.182,11.818 C3.097,11.734 3.05,11.619 3.05,11.5 L3.05,7.5 C3.05,7.251 3.251,7.05 3.5,7.05 C3.749,7.05 3.95,7.251 3.95,7.5 L3.95,10.414 L10.414,3.95 L7.5,3.95 C7.251,3.95 7.05,3.749 7.05,3.5 C7.05,3.251 7.251,3.05 7.5,3.05 Z"/>
</svg>

