<svg xmlns="http://www.w3.org/2000/svg" width="15" height="15" viewBox="0 0 15 15">
  <defs/>
  <path fill="currentColor" d="M7.537,0.827 L11.037,1.177 C11.143,1.187 11.24,1.243 11.303,1.329 L14.3,5.425 C14.343,5.482 14.37,5.552 14.374,5.628 C14.375,5.634 14.375,5.64 14.375,5.645 L14.375,5.652 C14.375,5.742 14.342,5.826 14.288,5.89 L7.79,13.788 C7.718,13.875 7.612,13.925 7.5,13.925 C7.388,13.925 7.282,13.875 7.21,13.788 L0.712,5.89 C0.658,5.826 0.625,5.742 0.625,5.652 L0.625,5.65 L0.625,5.643 C0.626,5.562 0.654,5.486 0.7,5.425 L3.697,1.329 C3.76,1.243 3.857,1.187 3.963,1.177 L7.463,0.827 C7.488,0.824 7.512,0.824 7.537,0.827 Z M5.151,6.025 L7.5,12.108 L9.849,6.025 Z M1.794,6.025 L6.759,12.059 L4.224,6.067 C4.218,6.053 4.213,6.039 4.209,6.025 Z M10.79,6.025 C10.787,6.039 10.782,6.053 10.776,6.067 L8.241,12.059 L13.206,6.025 Z M7.5,2.183 L5.66,5.275 L9.34,5.275 Z M10.571,1.884 L8.044,1.631 L10.175,5.21 Z M6.956,1.631 L4.429,1.884 L4.825,5.21 Z M3.75,2.526 L1.812,5.175 L4.066,5.175 Z M10.934,5.175 L13.188,5.175 L11.25,2.526 Z"/>
</svg>

