<svg xmlns="http://www.w3.org/2000/svg" width="15" height="15" viewBox="0 0 15 15">
  <defs/>
  <path fill="currentColor" d="M7,8 L8,8 C8.552,8 9,8.448 9,9 L9,12 C9,12.552 8.552,13 8,13 L7,13 C6.448,13 6,12.552 6,12 L6,9 C6,8.448 6.448,8 7,8 Z M7,2 L8,2 C8.552,2 9,2.448 9,3 L9,6 C9,6.552 8.552,7 8,7 L7,7 C6.448,7 6,6.552 6,6 L6,3 C6,2.448 6.448,2 7,2 Z M1,0.5 C1,0.224 1.224,0 1.5,0 L13.5,0 C13.776,0 14,0.224 14,0.5 C14,0.776 13.776,1 13.5,1 L1.5,1 C1.224,1 1,0.776 1,0.5 Z M1.5,14 L13.5,14 C13.776,14 14,14.224 14,14.5 C14,14.776 13.776,15 13.5,15 L1.5,15 C1.224,15 1,14.776 1,14.5 C1,14.224 1.224,14 1.5,14 Z"/>
</svg>

