<svg xmlns="http://www.w3.org/2000/svg" width="15" height="15" viewBox="0 0 15 15">
  <defs/>
  <path fill="currentColor" d="M9,6 L12,6 C12.552,6 13,6.448 13,7 L13,8 C13,8.552 12.552,9 12,9 L9,9 C8.448,9 8,8.552 8,8 L8,7 C8,6.448 8.448,6 9,6 Z M2,7 C2,6.448 2.448,6 3,6 L6,6 C6.552,6 7,6.448 7,7 L7,8 C7,8.552 6.552,9 6,9 L3,9 C2.448,9 2,8.552 2,8 Z M14.5,1 C14.776,1 15,1.224 15,1.5 L15,13.5 C15,13.776 14.776,14 14.5,14 C14.224,14 14,13.776 14,13.5 L14,1.5 C14,1.224 14.224,1 14.5,1 Z M0.5,1 C0.776,1 1,1.224 1,1.5 L1,13.5 C1,13.776 0.776,14 0.5,14 C0.224,14 0,13.776 0,13.5 L0,1.5 C0,1.224 0.224,1 0.5,1 Z"/>
</svg>

