<svg xmlns="http://www.w3.org/2000/svg" width="15" height="15" viewBox="0 0 15 15">
  <defs/>
  <path fill="currentColor" d="M8,1.5 L8,13.5 C8,13.689 7.893,13.863 7.724,13.947 C7.554,14.032 7.352,14.014 7.2,13.9 L3.333,11 L1.5,11 C0.672,11 0,10.328 0,9.5 L0,5.5 C0,4.672 0.672,4 1.5,4 L3.333,4 L7.2,1.1 C7.352,0.986 7.554,0.968 7.724,1.053 C7.893,1.137 8,1.311 8,1.5 Z M3.8,4.9 C3.713,4.965 3.608,5 3.5,5 L1.5,5 C1.224,5 1,5.224 1,5.5 L1,9.5 C1,9.776 1.224,10 1.5,10 L3.5,10 C3.608,10 3.713,10.035 3.8,10.1 L7,12.5 L7,2.5 Z M10.833,3.959 C12.256,6.098 12.256,8.902 10.833,11.04 C10.711,11.224 10.462,11.274 10.278,11.152 C10.094,11.03 10.045,10.781 10.167,10.597 C11.411,8.727 11.411,6.273 10.167,4.403 C10.045,4.219 10.094,3.97 10.278,3.848 C10.462,3.726 10.711,3.776 10.833,3.959 Z"/>
</svg>

