<svg xmlns="http://www.w3.org/2000/svg" width="15" height="15" viewBox="0 0 15 15">
  <defs/>
  <path fill="currentColor" d="M7.724,1.053 C7.893,1.137 8,1.311 8,1.5 L8,13.5 C8,13.689 7.893,13.863 7.724,13.947 C7.554,14.032 7.352,14.014 7.2,13.9 L3.333,11 L1.5,11 C0.672,11 0,10.328 0,9.5 L0,5.5 C0,4.672 0.672,4 1.5,4 L3.333,4 L7.2,1.1 C7.352,0.986 7.554,0.968 7.724,1.053 Z M7,2.5 L3.8,4.9 C3.713,4.965 3.608,5 3.5,5 L1.5,5 C1.224,5 1,5.224 1,5.5 L1,9.5 C1,9.776 1.224,10 1.5,10 L3.5,10 C3.608,10 3.713,10.035 3.8,10.1 L7,12.5 Z M14.854,5.146 C15.049,5.342 15.049,5.658 14.854,5.854 L13.207,7.5 L14.854,9.146 C15.049,9.342 15.049,9.658 14.854,9.854 C14.658,10.049 14.342,10.049 14.146,9.854 L12.5,8.207 L10.854,9.854 C10.658,10.049 10.342,10.049 10.146,9.854 C9.951,9.658 9.951,9.342 10.146,9.146 L11.793,7.5 L10.146,5.854 C9.951,5.658 9.951,5.342 10.146,5.146 C10.342,4.951 10.658,4.951 10.854,5.146 L12.5,6.793 L14.146,5.146 C14.342,4.951 14.658,4.951 14.854,5.146 Z"/>
</svg>

