<svg xmlns="http://www.w3.org/2000/svg" width="15" height="15" viewBox="0 0 15 15">
  <defs/>
  <path fill="currentColor" d="M7.754,1.82 L13.254,5.07 C13.407,5.159 13.5,5.323 13.5,5.5 C13.5,5.677 13.407,5.841 13.254,5.93 L7.754,9.18 C7.597,9.273 7.403,9.273 7.246,9.18 L1.746,5.93 C1.593,5.841 1.5,5.677 1.5,5.5 C1.5,5.323 1.593,5.159 1.746,5.07 L7.246,1.82 C7.403,1.727 7.597,1.727 7.754,1.82 Z M7.5,8.169 L12.017,5.5 L7.5,2.831 L2.983,5.5 Z M2.254,8.32 L7.5,11.419 L12.746,8.32 C12.983,8.179 13.29,8.258 13.43,8.496 C13.571,8.733 13.492,9.04 13.254,9.18 L7.754,12.431 C7.597,12.523 7.403,12.523 7.246,12.431 L1.746,9.18 C1.508,9.04 1.429,8.733 1.569,8.496 C1.71,8.258 2.017,8.179 2.254,8.32 Z"/>
</svg>

