<svg xmlns="http://www.w3.org/2000/svg" width="15" height="15" viewBox="0 0 15 15">
  <defs/>
  <path fill="currentColor" d="M7.223,0.666 C7.326,0.42 7.675,0.42 7.777,0.666 L9.413,4.6 C9.457,4.704 9.554,4.775 9.666,4.784 L13.914,5.125 C14.18,5.146 14.288,5.478 14.085,5.652 L10.849,8.424 C10.764,8.497 10.726,8.612 10.752,8.721 L11.741,12.866 C11.803,13.126 11.521,13.331 11.293,13.192 L7.656,10.97 C7.56,10.912 7.44,10.912 7.344,10.97 L3.707,13.192 C3.479,13.331 3.197,13.126 3.259,12.866 L4.248,8.721 C4.274,8.612 4.236,8.497 4.151,8.424 L0.915,5.652 C0.712,5.478 0.82,5.146 1.086,5.125 L5.334,4.784 C5.446,4.775 5.543,4.704 5.587,4.6 L7.223,0.666 Z"/>
</svg>

