<svg xmlns="http://www.w3.org/2000/svg" width="15" height="15" viewBox="0 0 15 15">
  <defs/>
  <path fill="currentColor" d="M7.5,0.85 C11.173,0.85 14.15,3.827 14.15,7.5 C14.15,11.173 11.173,14.15 7.5,14.15 C3.827,14.15 0.85,11.173 0.85,7.5 C0.85,3.827 3.827,0.85 7.5,0.85 Z M1.85,7.5 C1.85,9.239 2.636,10.795 3.872,11.832 L7.325,9.838 L3.733,7.271 C3.702,7.249 3.673,7.224 3.647,7.195 C3.615,7.157 3.589,7.116 3.571,7.071 C3.545,7.008 3.534,6.942 3.537,6.877 C3.542,6.763 3.591,6.653 3.676,6.572 C3.705,6.545 3.737,6.522 3.771,6.503 L10.422,2.663 C10.15,2.499 9.863,2.356 9.564,2.239 L1.913,6.656 C1.871,6.931 1.85,7.213 1.85,7.5 Z M8.368,10.275 L4.687,12.401 C4.966,12.562 5.261,12.7 5.569,12.811 L13.065,8.484 C13.121,8.164 13.15,7.835 13.15,7.5 C13.15,5.802 12.401,4.28 11.216,3.244 L7.828,5.2 L11.362,7.82 C11.562,7.968 11.603,8.25 11.455,8.45 C11.415,8.504 11.366,8.546 11.31,8.577 L9.859,9.414 C9.853,9.418 9.847,9.422 9.841,9.425 L8.393,10.261 C8.385,10.266 8.377,10.271 8.368,10.275 Z M8.332,1.911 C8.06,1.871 7.783,1.85 7.5,1.85 C5.112,1.85 3.069,3.332 2.243,5.426 Z M6.847,13.113 C7.061,13.137 7.279,13.15 7.5,13.15 C9.825,13.15 11.821,11.746 12.689,9.74 Z M8.181,9.344 L8.806,8.983 L5.509,6.539 L4.817,6.939 Z M6.359,6.048 L9.656,8.493 L10.275,8.135 L6.978,5.691 Z"/>
</svg>

