<svg xmlns="http://www.w3.org/2000/svg" width="15" height="15" viewBox="0 0 15 15">
  <defs/>
  <path fill="currentColor" d="M5,3.25 L5,7.1 L10,7.1 L10,3.25 C10,2.974 10.224,2.75 10.5,2.75 C10.776,2.75 11,2.974 11,3.25 L11,7.1 L12.5,7.1 C12.721,7.1 12.9,7.279 12.9,7.5 C12.9,7.721 12.721,7.9 12.5,7.9 L11,7.9 L11,8.55 C11,10.483 9.433,12.05 7.5,12.05 C5.567,12.05 4,10.483 4,8.55 L4,7.9 L2.5,7.9 C2.279,7.9 2.1,7.721 2.1,7.5 C2.1,7.279 2.279,7.1 2.5,7.1 L4,7.1 L4,3.25 C4,2.974 4.224,2.75 4.5,2.75 C4.776,2.75 5,2.974 5,3.25 Z M5,7.9 L5,8.55 C5,9.931 6.119,11.05 7.5,11.05 C8.881,11.05 10,9.931 10,8.55 L10,7.9 Z"/>
</svg>

