<svg xmlns="http://www.w3.org/2000/svg" width="15" height="15" viewBox="0 0 15 15">
  <defs/>
  <path fill="currentColor" d="M0.9,7.5 C0.9,3.855 3.855,0.9 7.5,0.9 C11.145,0.9 14.1,3.855 14.1,7.5 C14.1,11.145 11.145,14.1 7.5,14.1 C3.855,14.1 0.9,11.145 0.9,7.5 Z M7.5,1.8 C4.352,1.8 1.8,4.352 1.8,7.5 C1.8,10.648 4.352,13.2 7.5,13.2 C10.648,13.2 13.2,10.648 13.2,7.5 C13.2,4.352 10.648,1.8 7.5,1.8 Z M3.075,7.5 C3.075,5.056 5.056,3.075 7.5,3.075 C9.944,3.075 11.925,5.056 11.925,7.5 C11.925,9.944 9.944,11.925 7.5,11.925 C5.056,11.925 3.075,9.944 3.075,7.5 Z M7.5,3.925 C5.526,3.925 3.925,5.526 3.925,7.5 C3.925,9.474 5.526,11.075 7.5,11.075 C9.474,11.075 11.075,9.474 11.075,7.5 C11.075,5.526 9.474,3.925 7.5,3.925 Z M7.5,5.25 C8.743,5.25 9.75,6.257 9.75,7.5 C9.75,8.743 8.743,9.75 7.5,9.75 C6.257,9.75 5.25,8.743 5.25,7.5 C5.25,6.257 6.257,5.25 7.5,5.25 Z M6.05,7.5 C6.05,8.301 6.699,8.95 7.5,8.95 C8.301,8.95 8.95,8.301 8.95,7.5 C8.95,6.699 8.301,6.05 7.5,6.05 C6.699,6.05 6.05,6.699 6.05,7.5 Z"/>
</svg>

