<svg xmlns="http://www.w3.org/2000/svg" width="15" height="15" viewBox="0 0 15 15">
  <defs/>
  <path fill="currentColor" d="M3.95,2.95 L3.95,4.5 C3.95,4.749 3.748,4.95 3.5,4.95 C3.251,4.95 3.05,4.749 3.05,4.5 L3.05,2.5 C3.05,2.452 3.057,2.407 3.071,2.364 C3.129,2.182 3.299,2.05 3.5,2.05 L11.5,2.05 C11.655,2.05 11.792,2.129 11.873,2.248 C11.922,2.32 11.95,2.407 11.95,2.5 L11.95,4.5 C11.95,4.749 11.748,4.95 11.5,4.95 C11.251,4.95 11.05,4.749 11.05,4.5 L11.05,2.95 L8.05,2.95 L8.05,12.05 L9.254,12.05 C9.503,12.05 9.704,12.252 9.704,12.5 C9.704,12.749 9.503,12.95 9.254,12.95 L5.754,12.95 C5.506,12.95 5.304,12.749 5.304,12.5 C5.304,12.252 5.506,12.05 5.754,12.05 L6.95,12.05 L6.95,2.95 Z"/>
</svg>

