<svg xmlns="http://www.w3.org/2000/svg" width="15" height="15" viewBox="0 0 15 15">
  <defs/>
  <path fill="currentColor" d="M14,7.5 C14,7.661 13.922,7.813 13.791,7.907 L6.791,12.907 C6.638,13.016 6.438,13.03 6.271,12.945 C6.105,12.859 6,12.687 6,12.5 L6,10 L3.5,10 C3.224,10 3,9.776 3,9.5 L3,5.5 C3,5.224 3.224,5 3.5,5 L6,5 L6,2.5 C6,2.313 6.105,2.141 6.271,2.055 C6.438,1.97 6.638,1.984 6.791,2.093 L13.791,7.093 C13.922,7.187 14,7.339 14,7.5 Z M7,3.472 L7,5.5 C7,5.776 6.776,6 6.5,6 L4,6 L4,9 L6.5,9 C6.776,9 7,9.224 7,9.5 L7,11.528 L12.64,7.5 Z"/>
</svg>

