<svg xmlns="http://www.w3.org/2000/svg" width="15" height="15" viewBox="0 0 15 15">
  <defs/>
  <path fill="currentColor" d="M7.5,0.85 C11.173,0.85 14.15,3.827 14.15,7.5 C14.15,11.173 11.173,14.15 7.5,14.15 C3.827,14.15 0.85,11.173 0.85,7.5 C0.85,5.86 1.444,4.358 2.428,3.199 C2.607,2.988 2.922,2.962 3.133,3.141 C3.343,3.32 3.369,3.635 3.19,3.846 C2.354,4.831 1.85,6.106 1.85,7.5 C1.85,10.62 4.38,13.15 7.5,13.15 C10.62,13.15 13.15,10.62 13.15,7.5 C13.15,4.548 10.886,2.125 8,1.872 L8,3.522 C8,3.798 7.776,4.022 7.5,4.022 C7.224,4.022 7,3.798 7,3.522 L7,1.35 C7,1.074 7.224,0.85 7.5,0.85 Z M6.74,8.081 L4.224,4.572 C4.152,4.473 4.163,4.337 4.25,4.25 C4.336,4.163 4.473,4.152 4.572,4.224 L8.081,6.741 C8.562,7.086 8.619,7.781 8.2,8.2 C7.781,8.619 7.086,8.562 6.74,8.081 Z"/>
</svg>

