<svg xmlns="http://www.w3.org/2000/svg" width="15" height="15" viewBox="0 0 15 15">
  <defs/>
  <path fill="currentColor" d="M13.05,2.75 L13.05,12.25 C13.05,12.554 12.804,12.8 12.5,12.8 C12.196,12.8 11.95,12.554 11.95,12.25 L11.95,7.717 C11.905,7.812 11.83,7.891 11.733,7.942 L2.733,12.692 C2.578,12.774 2.392,12.769 2.242,12.678 C2.092,12.588 2,12.425 2,12.25 L2,2.75 C2,2.575 2.092,2.412 2.242,2.322 C2.392,2.231 2.578,2.226 2.733,2.308 L11.733,7.058 C11.83,7.109 11.905,7.188 11.95,7.282 L11.95,2.75 C11.95,2.446 12.196,2.2 12.5,2.2 C12.804,2.2 13.05,2.446 13.05,2.75 Z M3,11.421 L10.429,7.5 L3,3.579 Z"/>
</svg>

