<svg xmlns="http://www.w3.org/2000/svg" width="15" height="15" viewBox="0 0 15 15">
  <defs/>
  <path fill="currentColor" d="M7.233,4.696 C7.233,2.969 8.633,1.569 10.36,1.569 C11.374,1.569 12.183,2.048 12.725,2.744 C13.308,2.625 13.856,2.409 14.351,2.115 C14.156,2.726 13.742,3.24 13.203,3.565 C13.204,3.566 13.204,3.567 13.205,3.568 C13.733,3.504 14.236,3.363 14.705,3.155 L14.704,3.157 C14.367,3.662 13.943,4.107 13.456,4.47 C13.482,4.647 13.496,4.824 13.496,5.001 C13.496,8.687 10.687,12.975 5.521,12.975 C3.939,12.975 2.465,12.511 1.225,11.715 C0.993,11.566 0.925,11.257 1.074,11.024 C1.087,11.004 1.102,10.985 1.117,10.967 C1.206,10.82 1.374,10.731 1.555,10.752 C2.471,10.86 3.386,10.748 4.192,10.396 C3.392,10.043 2.771,9.36 2.502,8.52 C2.454,8.369 2.488,8.203 2.594,8.084 C2.597,8.08 2.601,8.076 2.605,8.072 C1.964,7.508 1.56,6.682 1.56,5.761 L1.56,5.728 C1.56,5.568 1.644,5.421 1.782,5.34 C1.827,5.313 1.875,5.295 1.925,5.286 C1.705,4.862 1.581,4.38 1.581,3.87 C1.581,3.402 1.584,2.812 1.913,2.281 C1.987,2.162 2.108,2.089 2.236,2.072 C2.426,2.012 2.641,2.07 2.774,2.233 C3.865,3.571 5.441,4.496 7.234,4.74 Z M5.521,11.975 C10.02,11.975 12.496,8.257 12.496,5.001 C12.496,3.712 11.594,2.569 10.36,2.569 C9.186,2.569 8.233,3.521 8.233,4.696 C8.233,4.863 8.253,5.025 8.289,5.183 C8.323,5.335 8.285,5.496 8.184,5.616 C8.083,5.735 7.932,5.801 7.776,5.793 C5.709,5.689 3.851,4.799 2.494,3.417 C2.484,3.553 2.481,3.702 2.481,3.87 C2.481,4.625 2.865,5.292 3.45,5.682 C3.617,5.794 3.689,6.003 3.628,6.194 C3.566,6.385 3.386,6.513 3.185,6.506 C2.971,6.499 2.763,6.47 2.562,6.422 C2.799,7.168 3.427,7.74 4.206,7.896 C4.41,7.937 4.56,8.114 4.567,8.322 C4.574,8.531 4.436,8.717 4.234,8.772 C4.054,8.82 3.868,8.853 3.678,8.868 C4.067,9.397 4.69,9.744 5.393,9.756 C5.583,9.759 5.751,9.882 5.811,10.063 C5.872,10.243 5.812,10.443 5.662,10.56 C4.953,11.116 4.13,11.454 3.272,11.602 C3.978,11.844 4.734,11.975 5.521,11.975 Z"/>
</svg>

