<svg xmlns="http://www.w3.org/2000/svg" width="15" height="15" viewBox="0 0 15 15">
  <defs/>
  <path fill="currentColor" d="M7.5,0.877 C9.149,0.877 10.657,1.48 11.816,2.477 L12.646,1.646 C12.842,1.451 13.158,1.451 13.354,1.646 C13.549,1.842 13.549,2.158 13.354,2.354 L12.523,3.184 C13.52,4.343 14.123,5.851 14.123,7.5 C14.123,11.158 11.158,14.123 7.5,14.123 C5.851,14.123 4.343,13.52 3.184,12.523 L2.354,13.354 C2.158,13.549 1.842,13.549 1.646,13.354 C1.451,13.158 1.451,12.842 1.646,12.646 L2.477,11.816 C1.48,10.657 0.877,9.149 0.877,7.5 C0.877,3.842 3.842,0.877 7.5,0.877 Z M11.142,3.151 C10.157,2.324 8.886,1.827 7.5,1.827 C4.367,1.827 1.827,4.367 1.827,7.5 C1.827,8.886 2.324,10.157 3.151,11.142 Z M3.858,11.849 C4.843,12.675 6.113,13.173 7.5,13.173 C10.633,13.173 13.173,10.633 13.173,7.5 C13.173,6.113 12.675,4.843 11.849,3.858 Z"/>
</svg>

