<svg xmlns="http://www.w3.org/2000/svg" width="15" height="15" viewBox="0 0 15 15">
  <defs/>
  <path fill="currentColor" d="M4,7.5 C4,7.224 4.224,7 4.5,7 L14.5,7 C14.776,7 15,7.224 15,7.5 C15,7.776 14.776,8 14.5,8 L4.5,8 C4.224,8 4,7.776 4,7.5 Z M4,1.5 C4,1.224 4.224,1 4.5,1 L14.5,1 C14.776,1 15,1.224 15,1.5 C15,1.776 14.776,2 14.5,2 L4.5,2 C4.224,2 4,1.776 4,1.5 Z M4,13.5 C4,13.224 4.224,13 4.5,13 L14.5,13 C14.776,13 15,13.224 15,13.5 C15,13.776 14.776,14 14.5,14 L4.5,14 C4.224,14 4,13.776 4,13.5 Z M4,4.5 C4,4.224 4.224,4 4.5,4 L11.5,4 C11.776,4 12,4.224 12,4.5 C12,4.776 11.776,5 11.5,5 L4.5,5 C4.224,5 4,4.776 4,4.5 Z M4,10.5 C4,10.224 4.224,10 4.5,10 L11.5,10 C11.776,10 12,10.224 12,10.5 C12,10.776 11.776,11 11.5,11 L4.5,11 C4.224,11 4,10.776 4,10.5 Z M0,7.5 C0,7.224 0.224,7 0.5,7 L2.5,7 C2.776,7 3,7.224 3,7.5 C3,7.776 2.776,8 2.5,8 L0.5,8 C0.224,8 0,7.776 0,7.5 Z M0,1.5 C0,1.224 0.224,1 0.5,1 L2.5,1 C2.776,1 3,1.224 3,1.5 C3,1.776 2.776,2 2.5,2 L0.5,2 C0.224,2 0,1.776 0,1.5 Z M0,13.5 C0,13.224 0.224,13 0.5,13 L2.5,13 C2.776,13 3,13.224 3,13.5 C3,13.776 2.776,14 2.5,14 L0.5,14 C0.224,14 0,13.776 0,13.5 Z"/>
</svg>

