<svg xmlns="http://www.w3.org/2000/svg" width="15" height="15" viewBox="0 0 15 15">
  <defs/>
  <path fill="currentColor" d="M3.25,2 L5.75,2 C6.44,2 7,2.56 7,3.25 L7,11.75 C7,12.44 6.44,13 5.75,13 L3.25,13 C2.56,13 2,12.44 2,11.75 L2,3.25 C2,2.56 2.56,2 3.25,2 Z M9.25,4 L11.75,4 C12.44,4 13,4.56 13,5.25 L13,9.75 C13,10.44 12.44,11 11.75,11 L9.25,11 C8.56,11 8,10.44 8,9.75 L8,5.25 C8,4.56 8.56,4 9.25,4 Z M3,3.25 L3,11.75 C3,11.888 3.112,12 3.25,12 L5.75,12 C5.888,12 6,11.888 6,11.75 L6,3.25 C6,3.112 5.888,3 5.75,3 L3.25,3 C3.112,3 3,3.112 3,3.25 Z"/>
</svg>

