<svg xmlns="http://www.w3.org/2000/svg" width="15" height="15" viewBox="0 0 15 15">
  <defs/>
  <path fill="currentColor" d="M5,7.05 L5,3.75 C5,3.336 5.336,3 5.75,3 L9.25,3 C9.664,3 10,3.336 10,3.75 L10,7.05 L13.499,7.05 C13.748,7.05 13.949,7.252 13.949,7.5 C13.949,7.749 13.748,7.95 13.499,7.95 L10,7.95 L10,11.25 C10,11.664 9.664,12 9.25,12 L5.75,12 C5.336,12 5,11.664 5,11.25 L5,7.95 L1.499,7.95 C1.251,7.95 1.049,7.749 1.049,7.5 C1.049,7.251 1.251,7.05 1.499,7.05 Z M6,7.05 L9,7.05 L9,4 L6,4 Z M9,7.95 L6,7.95 L6,11 L9,11 Z"/>
</svg>

