<svg xmlns="http://www.w3.org/2000/svg" width="15" height="15" viewBox="0 0 15 15">
  <defs/>
  <path fill="currentColor" d="M8.891,2.194 C9.116,2.355 9.167,2.667 9.006,2.891 L2.474,12 L13.5,12 C13.776,12 14,12.224 14,12.5 C14,12.776 13.776,13 13.5,13 L1.5,13 C1.313,13 1.141,12.895 1.055,12.728 C0.97,12.562 0.984,12.361 1.094,12.209 L8.194,2.309 C8.355,2.084 8.667,2.033 8.891,2.194 Z M11.1,6.5 C11.1,6.224 11.324,6 11.6,6 C11.876,6 12.1,6.224 12.1,6.5 C12.1,6.776 11.876,7 11.6,7 C11.324,7 11.1,6.776 11.1,6.5 Z M12.1,8.5 C12.1,8.224 12.324,8 12.6,8 C12.876,8 13.1,8.224 13.1,8.5 C13.1,8.776 12.876,9 12.6,9 C12.324,9 12.1,8.776 12.1,8.5 Z M13.4,10 C13.676,10 13.9,10.224 13.9,10.5 C13.9,10.776 13.676,11 13.4,11 C13.124,11 12.9,10.776 12.9,10.5 C12.9,10.224 13.124,10 13.4,10 Z M10.4,4 C10.676,4 10.9,4.224 10.9,4.5 C10.9,4.776 10.676,5 10.4,5 C10.124,5 9.9,4.776 9.9,4.5 C9.9,4.224 10.124,4 10.4,4 Z"/>
</svg>

