<svg xmlns="http://www.w3.org/2000/svg" width="15" height="15" viewBox="0 0 15 15">
  <defs/>
  <path fill="currentColor" d="M3.309,1 L7.5,1 L11.691,1 C12.07,1 12.416,1.214 12.585,1.553 L13.947,4.276 C13.982,4.346 14,4.422 14,4.5 L14,13 C14,13.552 13.552,14 13,14 L2,14 C1.448,14 1,13.552 1,13 L1,4.5 C1,4.422 1.018,4.346 1.053,4.276 L2.415,1.553 C2.584,1.214 2.93,1 3.309,1 Z M13,5 L2,5 L2,13 L13,13 L13,5 Z M3.309,2 L2.309,4 L7,4 L7,2 Z M8,4 L12.691,4 L11.691,2 L8,2 Z M5.5,7 L9.5,7 C9.776,7 10,7.224 10,7.5 C10,7.776 9.776,8 9.5,8 L5.5,8 C5.224,8 5,7.776 5,7.5 C5,7.224 5.224,7 5.5,7 Z"/>
</svg>

