<svg xmlns="http://www.w3.org/2000/svg" width="15" height="15" viewBox="0 0 15 15">
  <defs/>
  <path fill="currentColor" d="M1,2.5 C1,1.672 1.672,1 2.5,1 L12.5,1 C13.328,1 14,1.672 14,2.5 L14,12.5 C14,13.328 13.328,14 12.5,14 L2.5,14 C1.672,14 1,13.328 1,12.5 Z M2.5,2 C2.224,2 2,2.224 2,2.5 L2,12.5 C2,12.776 2.224,13 2.5,13 L12.5,13 C12.776,13 13,12.776 13,12.5 L13,2.5 C13,2.224 12.776,2 12.5,2 Z M8,5.5 C8,5.776 7.776,6 7.5,6 C7.224,6 7,5.776 7,5.5 C7,5.224 7.224,5 7.5,5 C7.776,5 8,5.224 8,5.5 Z M7.5,8 C7.224,8 7,7.776 7,7.5 C7,7.224 7.224,7 7.5,7 C7.776,7 8,7.224 8,7.5 C8,7.776 7.776,8 7.5,8 Z M10,7.5 C10,7.776 9.776,8 9.5,8 C9.224,8 9,7.776 9,7.5 C9,7.224 9.224,7 9.5,7 C9.776,7 10,7.224 10,7.5 Z M7.5,4 C7.224,4 7,3.776 7,3.5 C7,3.224 7.224,3 7.5,3 C7.776,3 8,3.224 8,3.5 C8,3.776 7.776,4 7.5,4 Z M11.5,8 C11.224,8 11,7.776 11,7.5 C11,7.224 11.224,7 11.5,7 C11.776,7 12,7.224 12,7.5 C12,7.776 11.776,8 11.5,8 Z"/>
</svg>

