<svg xmlns="http://www.w3.org/2000/svg" width="15" height="15" viewBox="0 0 15 15">
  <defs/>
  <path fill="currentColor" d="M0.877,7.5 C0.877,3.842 3.842,0.877 7.5,0.877 C11.158,0.877 14.123,3.842 14.123,7.5 C14.123,11.158 11.158,14.123 7.5,14.123 C3.842,14.123 0.877,11.158 0.877,7.5 Z M7.5,1.827 C4.367,1.827 1.827,4.367 1.827,7.5 C1.827,8.972 2.388,10.313 3.307,11.321 C4.191,9.941 5.738,9.025 7.5,9.025 C9.262,9.025 10.809,9.941 11.693,11.321 C12.612,10.313 13.173,8.972 13.173,7.5 C13.173,4.367 10.633,1.827 7.5,1.827 Z M5.15,6.505 C5.15,5.207 6.202,4.155 7.5,4.155 C8.798,4.155 9.85,5.207 9.85,6.505 C9.85,7.803 8.798,8.855 7.5,8.855 C6.202,8.855 5.15,7.803 5.15,6.505 Z M10.982,11.979 C10.284,10.78 8.986,9.975 7.5,9.975 C6.015,9.975 4.716,10.78 4.018,11.979 C4.98,12.727 6.188,13.173 7.5,13.173 C8.812,13.173 10.021,12.727 10.982,11.979 Z M7.5,5.105 C6.727,5.105 6.1,5.732 6.1,6.505 C6.1,7.278 6.727,7.905 7.5,7.905 C8.273,7.905 8.9,7.278 8.9,6.505 C8.9,5.732 8.273,5.105 7.5,5.105 Z"/>
</svg>

