<svg xmlns="http://www.w3.org/2000/svg" width="15" height="15" viewBox="0 0 15 15">
  <defs/>
  <path fill="currentColor" d="M5,1 C5,0.448 5.448,0 6,0 L9,0 C9.552,0 10,0.448 10,1 L10,2 L14,2 C14.552,2 15,2.448 15,3 L15,6 C15,6.889 14.613,7.687 14,8.236 L14,11.5 C14,12.328 13.328,13 12.5,13 L2.5,13 C1.672,13 1,12.328 1,11.5 L1,8.236 C0.387,7.687 0,6.889 0,6 L0,3 C0,2.448 0.448,2 1,2 L5,2 Z M1,3 L1,6 C1,6.654 1.313,7.234 1.8,7.6 C2.135,7.851 2.549,8 3,8 L7,8 L7,7.5 C7,7.224 7.224,7 7.5,7 C7.776,7 8,7.224 8,7.5 L8,8 L12,8 C12.451,8 12.866,7.851 13.2,7.6 C13.687,7.235 14,6.654 14,6 L14,3 Z M7,9 L3,9 C2.65,9 2.313,8.94 2,8.829 L2,11.5 C2,11.776 2.224,12 2.5,12 L12.5,12 C12.776,12 13,11.776 13,11.5 L13,8.829 C12.687,8.94 12.35,9 12,9 L8,9 L8,9.5 C8,9.776 7.776,10 7.5,10 C7.224,10 7,9.776 7,9.5 Z M9,1 L6,1 L6,2 L9,2 Z"/>
</svg>

