<svg xmlns="http://www.w3.org/2000/svg" width="15" height="15" viewBox="0 0 15 15">
  <defs/>
  <path fill="currentColor" d="M5.5,6.625 C5.983,6.625 6.375,7.017 6.375,7.5 C6.375,7.983 5.983,8.375 5.5,8.375 C5.017,8.375 4.625,7.983 4.625,7.5 C4.625,7.017 5.017,6.625 5.5,6.625 Z M1.5,6.625 C1.983,6.625 2.375,7.017 2.375,7.5 C2.375,7.983 1.983,8.375 1.5,8.375 C1.017,8.375 0.625,7.983 0.625,7.5 C0.625,7.017 1.017,6.625 1.5,6.625 Z M9.5,6.625 C9.983,6.625 10.375,7.017 10.375,7.5 C10.375,7.983 9.983,8.375 9.5,8.375 C9.017,8.375 8.625,7.983 8.625,7.5 C8.625,7.017 9.017,6.625 9.5,6.625 Z M12.625,7.5 C12.625,7.017 13.017,6.625 13.5,6.625 C13.983,6.625 14.375,7.017 14.375,7.5 C14.375,7.983 13.983,8.375 13.5,8.375 C13.017,8.375 12.625,7.983 12.625,7.5 Z"/>
</svg>

