<svg xmlns="http://www.w3.org/2000/svg" width="15" height="15" viewBox="0 0 15 15">
  <defs/>
  <path fill="currentColor" d="M7.5,5.025 L7.5,5.025 A0.5 0.5 0 0 1 8,5.525 L8,5.525 A0.5 0.5 0 0 1 7.5,6.025 L7.5,6.025 A0.5 0.5 0 0 1 7,5.525 L7,5.525 A0.5 0.5 0 0 1 7.5,5.025 Z"/>
  <path fill="currentColor" d="M13.5,5.025 L13.5,5.025 A0.5 0.5 0 0 1 14,5.525 L14,5.525 A0.5 0.5 0 0 1 13.5,6.025 L13.5,6.025 A0.5 0.5 0 0 1 13,5.525 L13,5.525 A0.5 0.5 0 0 1 13.5,5.025 Z"/>
  <path fill="currentColor" d="M7.5,3.025 L7.5,3.025 A0.5 0.5 0 0 1 8,3.525 L8,3.525 A0.5 0.5 0 0 1 7.5,4.025 L7.5,4.025 A0.5 0.5 0 0 1 7,3.525 L7,3.525 A0.5 0.5 0 0 1 7.5,3.025 Z"/>
  <path fill="currentColor" d="M13.5,3.025 L13.5,3.025 A0.5 0.5 0 0 1 14,3.525 L14,3.525 A0.5 0.5 0 0 1 13.5,4.025 L13.5,4.025 A0.5 0.5 0 0 1 13,3.525 L13,3.525 A0.5 0.5 0 0 1 13.5,3.025 Z"/>
  <path fill="currentColor" d="M7.5,7.025 L7.5,7.025 A0.5 0.5 0 0 1 8,7.525 L8,7.525 A0.5 0.5 0 0 1 7.5,8.025 L7.5,8.025 A0.5 0.5 0 0 1 7,7.525 L7,7.525 A0.5 0.5 0 0 1 7.5,7.025 Z"/>
  <path fill="currentColor" d="M7.5,13.025 L7.5,13.025 A0.5 0.5 0 0 1 8,13.525 L8,13.525 A0.5 0.5 0 0 1 7.5,14.025 L7.5,14.025 A0.5 0.5 0 0 1 7,13.525 L7,13.525 A0.5 0.5 0 0 1 7.5,13.025 Z"/>
  <path fill="currentColor" d="M7.5,1.025 L7.5,1.025 A0.5 0.5 0 0 1 8,1.525 L8,1.525 A0.5 0.5 0 0 1 7.5,2.025 L7.5,2.025 A0.5 0.5 0 0 1 7,1.525 L7,1.525 A0.5 0.5 0 0 1 7.5,1.025 Z"/>
  <path fill="currentColor" d="M13.5,7.025 L13.5,7.025 A0.5 0.5 0 0 1 14,7.525 L14,7.525 A0.5 0.5 0 0 1 13.5,8.025 L13.5,8.025 A0.5 0.5 0 0 1 13,7.525 L13,7.525 A0.5 0.5 0 0 1 13.5,7.025 Z"/>
  <path fill="currentColor" d="M13.5,13.025 L13.5,13.025 A0.5 0.5 0 0 1 14,13.525 L14,13.525 A0.5 0.5 0 0 1 13.5,14.025 L13.5,14.025 A0.5 0.5 0 0 1 13,13.525 L13,13.525 A0.5 0.5 0 0 1 13.5,13.025 Z"/>
  <path fill="currentColor" d="M13.5,1.025 L13.5,1.025 A0.5 0.5 0 0 1 14,1.525 L14,1.525 A0.5 0.5 0 0 1 13.5,2.025 L13.5,2.025 A0.5 0.5 0 0 1 13,1.525 L13,1.525 A0.5 0.5 0 0 1 13.5,1.025 Z"/>
  <path fill="currentColor" d="M5.5,7.025 L5.5,7.025 A0.5 0.5 0 0 1 6,7.525 L6,7.525 A0.5 0.5 0 0 1 5.5,8.025 L5.5,8.025 A0.5 0.5 0 0 1 5,7.525 L5,7.525 A0.5 0.5 0 0 1 5.5,7.025 Z"/>
  <path fill="currentColor" d="M5.5,13.025 L5.5,13.025 A0.5 0.5 0 0 1 6,13.525 L6,13.525 A0.5 0.5 0 0 1 5.5,14.025 L5.5,14.025 A0.5 0.5 0 0 1 5,13.525 L5,13.525 A0.5 0.5 0 0 1 5.5,13.025 Z"/>
  <path fill="currentColor" d="M5.5,1.025 L5.5,1.025 A0.5 0.5 0 0 1 6,1.525 L6,1.525 A0.5 0.5 0 0 1 5.5,2.025 L5.5,2.025 A0.5 0.5 0 0 1 5,1.525 L5,1.525 A0.5 0.5 0 0 1 5.5,1.025 Z"/>
  <path fill="currentColor" d="M3.5,7.025 L3.5,7.025 A0.5 0.5 0 0 1 4,7.525 L4,7.525 A0.5 0.5 0 0 1 3.5,8.025 L3.5,8.025 A0.5 0.5 0 0 1 3,7.525 L3,7.525 A0.5 0.5 0 0 1 3.5,7.025 Z"/>
  <path fill="currentColor" d="M3.5,13.025 L3.5,13.025 A0.5 0.5 0 0 1 4,13.525 L4,13.525 A0.5 0.5 0 0 1 3.5,14.025 L3.5,14.025 A0.5 0.5 0 0 1 3,13.525 L3,13.525 A0.5 0.5 0 0 1 3.5,13.025 Z"/>
  <path fill="currentColor" d="M3.5,1.025 L3.5,1.025 A0.5 0.5 0 0 1 4,1.525 L4,1.525 A0.5 0.5 0 0 1 3.5,2.025 L3.5,2.025 A0.5 0.5 0 0 1 3,1.525 L3,1.525 A0.5 0.5 0 0 1 3.5,1.025 Z"/>
  <path fill="currentColor" d="M9.5,7.025 L9.5,7.025 A0.5 0.5 0 0 1 10,7.525 L10,7.525 A0.5 0.5 0 0 1 9.5,8.025 L9.5,8.025 A0.5 0.5 0 0 1 9,7.525 L9,7.525 A0.5 0.5 0 0 1 9.5,7.025 Z"/>
  <path fill="currentColor" d="M9.5,13.025 L9.5,13.025 A0.5 0.5 0 0 1 10,13.525 L10,13.525 A0.5 0.5 0 0 1 9.5,14.025 L9.5,14.025 A0.5 0.5 0 0 1 9,13.525 L9,13.525 A0.5 0.5 0 0 1 9.5,13.025 Z"/>
  <path fill="currentColor" d="M9.5,1.025 L9.5,1.025 A0.5 0.5 0 0 1 10,1.525 L10,1.525 A0.5 0.5 0 0 1 9.5,2.025 L9.5,2.025 A0.5 0.5 0 0 1 9,1.525 L9,1.525 A0.5 0.5 0 0 1 9.5,1.025 Z"/>
  <path fill="currentColor" d="M11.5,7.025 L11.5,7.025 A0.5 0.5 0 0 1 12,7.525 L12,7.525 A0.5 0.5 0 0 1 11.5,8.025 L11.5,8.025 A0.5 0.5 0 0 1 11,7.525 L11,7.525 A0.5 0.5 0 0 1 11.5,7.025 Z"/>
  <path fill="currentColor" d="M11.5,13.025 L11.5,13.025 A0.5 0.5 0 0 1 12,13.525 L12,13.525 A0.5 0.5 0 0 1 11.5,14.025 L11.5,14.025 A0.5 0.5 0 0 1 11,13.525 L11,13.525 A0.5 0.5 0 0 1 11.5,13.025 Z"/>
  <path fill="currentColor" d="M11.5,1.025 L11.5,1.025 A0.5 0.5 0 0 1 12,1.525 L12,1.525 A0.5 0.5 0 0 1 11.5,2.025 L11.5,2.025 A0.5 0.5 0 0 1 11,1.525 L11,1.525 A0.5 0.5 0 0 1 11.5,1.025 Z"/>
  <path fill="currentColor" d="M7.5,9.025 L7.5,9.025 A0.5 0.5 0 0 1 8,9.525 L8,9.525 A0.5 0.5 0 0 1 7.5,10.025 L7.5,10.025 A0.5 0.5 0 0 1 7,9.525 L7,9.525 A0.5 0.5 0 0 1 7.5,9.025 Z"/>
  <path fill="currentColor" d="M13.5,9.025 L13.5,9.025 A0.5 0.5 0 0 1 14,9.525 L14,9.525 A0.5 0.5 0 0 1 13.5,10.025 L13.5,10.025 A0.5 0.5 0 0 1 13,9.525 L13,9.525 A0.5 0.5 0 0 1 13.5,9.025 Z"/>
  <path fill="currentColor" d="M7.5,11.025 L7.5,11.025 A0.5 0.5 0 0 1 8,11.525 L8,11.525 A0.5 0.5 0 0 1 7.5,12.025 L7.5,12.025 A0.5 0.5 0 0 1 7,11.525 L7,11.525 A0.5 0.5 0 0 1 7.5,11.025 Z"/>
  <path fill="currentColor" d="M13.5,11.025 L13.5,11.025 A0.5 0.5 0 0 1 14,11.525 L14,11.525 A0.5 0.5 0 0 1 13.5,12.025 L13.5,12.025 A0.5 0.5 0 0 1 13,11.525 L13,11.525 A0.5 0.5 0 0 1 13.5,11.025 Z"/>
  <path fill="currentColor" d="M1.5,5.025 L1.5,5.025 A0.5 0.5 0 0 1 2,5.525 L2,5.525 A0.5 0.5 0 0 1 1.5,6.025 L1.5,6.025 A0.5 0.5 0 0 1 1,5.525 L1,5.525 A0.5 0.5 0 0 1 1.5,5.025 Z"/>
  <path fill="currentColor" d="M1.5,3.025 L1.5,3.025 A0.5 0.5 0 0 1 2,3.525 L2,3.525 A0.5 0.5 0 0 1 1.5,4.025 L1.5,4.025 A0.5 0.5 0 0 1 1,3.525 L1,3.525 A0.5 0.5 0 0 1 1.5,3.025 Z"/>
  <path fill="currentColor" d="M1.5,7.025 L1.5,7.025 A0.5 0.5 0 0 1 2,7.525 L2,7.525 A0.5 0.5 0 0 1 1.5,8.025 L1.5,8.025 A0.5 0.5 0 0 1 1,7.525 L1,7.525 A0.5 0.5 0 0 1 1.5,7.025 Z"/>
  <path fill="currentColor" d="M1.5,13.025 L1.5,13.025 A0.5 0.5 0 0 1 2,13.525 L2,13.525 A0.5 0.5 0 0 1 1.5,14.025 L1.5,14.025 A0.5 0.5 0 0 1 1,13.525 L1,13.525 A0.5 0.5 0 0 1 1.5,13.025 Z"/>
  <path fill="currentColor" d="M1.5,1.025 L1.5,1.025 A0.5 0.5 0 0 1 2,1.525 L2,1.525 A0.5 0.5 0 0 1 1.5,2.025 L1.5,2.025 A0.5 0.5 0 0 1 1,1.525 L1,1.525 A0.5 0.5 0 0 1 1.5,1.025 Z"/>
  <path fill="currentColor" d="M1.5,9.025 L1.5,9.025 A0.5 0.5 0 0 1 2,9.525 L2,9.525 A0.5 0.5 0 0 1 1.5,10.025 L1.5,10.025 A0.5 0.5 0 0 1 1,9.525 L1,9.525 A0.5 0.5 0 0 1 1.5,9.025 Z"/>
  <path fill="currentColor" d="M1.5,11.025 L1.5,11.025 A0.5 0.5 0 0 1 2,11.525 L2,11.525 A0.5 0.5 0 0 1 1.5,12.025 L1.5,12.025 A0.5 0.5 0 0 1 1,11.525 L1,11.525 A0.5 0.5 0 0 1 1.5,11.025 Z"/>
</svg>

