<svg xmlns="http://www.w3.org/2000/svg" width="15" height="15" viewBox="0 0 15 15">
  <defs/>
  <path fill="currentColor" d="M0,7.5 C0,7.224 0.224,7 0.5,7 L3,7 C3.276,7 3.5,7.224 3.5,7.5 C3.5,7.776 3.276,8 3,8 L0.5,8 C0.224,8 0,7.776 0,7.5 Z M5.75,7.5 C5.75,7.224 5.974,7 6.25,7 L8.75,7 C9.026,7 9.25,7.224 9.25,7.5 C9.25,7.776 9.026,8 8.75,8 L6.25,8 C5.974,8 5.75,7.776 5.75,7.5 Z M12,7 L14.5,7 C14.776,7 15,7.224 15,7.5 C15,7.776 14.776,8 14.5,8 L12,8 C11.724,8 11.5,7.776 11.5,7.5 C11.5,7.224 11.724,7 12,7 Z"/>
</svg>

