<svg xmlns="http://www.w3.org/2000/svg" width="15" height="15" viewBox="0 0 15 15">
  <defs/>
  <path fill="currentColor" d="M0.25,1 C0.25,0.586 0.586,0.25 1,0.25 L14,0.25 C14.414,0.25 14.75,0.586 14.75,1 L14.75,14 C14.75,14.414 14.414,14.75 14,14.75 L1,14.75 C0.586,14.75 0.25,14.414 0.25,14 Z M1.75,1.75 L1.75,13.25 L13.25,13.25 L13.25,1.75 Z"/>
  <path fill="currentColor" d="M7.5,5 L7.5,5 A0.5 0.5 0 0 1 8,5.5 L8,5.5 A0.5 0.5 0 0 1 7.5,6 L7.5,6 A0.5 0.5 0 0 1 7,5.5 L7,5.5 A0.5 0.5 0 0 1 7.5,5 Z"/>
  <path fill="currentColor" d="M7.5,3 L7.5,3 A0.5 0.5 0 0 1 8,3.5 L8,3.5 A0.5 0.5 0 0 1 7.5,4 L7.5,4 A0.5 0.5 0 0 1 7,3.5 L7,3.5 A0.5 0.5 0 0 1 7.5,3 Z"/>
  <path fill="currentColor" d="M7.5,7 L7.5,7 A0.5 0.5 0 0 1 8,7.5 L8,7.5 A0.5 0.5 0 0 1 7.5,8 L7.5,8 A0.5 0.5 0 0 1 7,7.5 L7,7.5 A0.5 0.5 0 0 1 7.5,7 Z"/>
  <path fill="currentColor" d="M5.5,7 L5.5,7 A0.5 0.5 0 0 1 6,7.5 L6,7.5 A0.5 0.5 0 0 1 5.5,8 L5.5,8 A0.5 0.5 0 0 1 5,7.5 L5,7.5 A0.5 0.5 0 0 1 5.5,7 Z"/>
  <path fill="currentColor" d="M3.5,7 L3.5,7 A0.5 0.5 0 0 1 4,7.5 L4,7.5 A0.5 0.5 0 0 1 3.5,8 L3.5,8 A0.5 0.5 0 0 1 3,7.5 L3,7.5 A0.5 0.5 0 0 1 3.5,7 Z"/>
  <path fill="currentColor" d="M9.5,7 L9.5,7 A0.5 0.5 0 0 1 10,7.5 L10,7.5 A0.5 0.5 0 0 1 9.5,8 L9.5,8 A0.5 0.5 0 0 1 9,7.5 L9,7.5 A0.5 0.5 0 0 1 9.5,7 Z"/>
  <path fill="currentColor" d="M11.5,7 L11.5,7 A0.5 0.5 0 0 1 12,7.5 L12,7.5 A0.5 0.5 0 0 1 11.5,8 L11.5,8 A0.5 0.5 0 0 1 11,7.5 L11,7.5 A0.5 0.5 0 0 1 11.5,7 Z"/>
  <path fill="currentColor" d="M7.5,9 L7.5,9 A0.5 0.5 0 0 1 8,9.5 L8,9.5 A0.5 0.5 0 0 1 7.5,10 L7.5,10 A0.5 0.5 0 0 1 7,9.5 L7,9.5 A0.5 0.5 0 0 1 7.5,9 Z"/>
  <path fill="currentColor" d="M7.5,11 L7.5,11 A0.5 0.5 0 0 1 8,11.5 L8,11.5 A0.5 0.5 0 0 1 7.5,12 L7.5,12 A0.5 0.5 0 0 1 7,11.5 L7,11.5 A0.5 0.5 0 0 1 7.5,11 Z"/>
</svg>

