<svg xmlns="http://www.w3.org/2000/svg" width="15" height="15" viewBox="0 0 15 15">
  <defs/>
  <path fill="currentColor" d="M4.5,1 C4.776,1 5,1.224 5,1.5 L5,2 L10,2 L10,1.5 C10,1.224 10.224,1 10.5,1 C10.776,1 11,1.224 11,1.5 L11,2 L12.5,2 C13.328,2 14,2.672 14,3.5 L14,12.5 C14,13.328 13.328,14 12.5,14 L2.5,14 C1.672,14 1,13.328 1,12.5 L1,3.5 C1,2.672 1.672,2 2.5,2 L4,2 L4,1.5 C4,1.224 4.224,1 4.5,1 Z M2,6 L2,12.5 C2,12.776 2.224,13 2.5,13 L12.5,13 C12.776,13 13,12.776 13,12.5 L13,6 Z M10,3 L5,3 L5,3.5 C5,3.776 4.776,4 4.5,4 C4.224,4 4,3.776 4,3.5 L4,3 L2.5,3 C2.224,3 2,3.224 2,3.5 L2,5 L13,5 L13,3.5 C13,3.224 12.776,3 12.5,3 L11,3 L11,3.5 C11,3.776 10.776,4 10.5,4 C10.224,4 10,3.776 10,3.5 Z M7.5,9 C7.776,9 8,9.224 8,9.5 C8,9.776 7.776,10 7.5,10 C7.224,10 7,9.776 7,9.5 C7,9.224 7.224,9 7.5,9 Z M7,7.5 C7,7.224 7.224,7 7.5,7 C7.776,7 8,7.224 8,7.5 C8,7.776 7.776,8 7.5,8 C7.224,8 7,7.776 7,7.5 Z M9.5,7 C9.776,7 10,7.224 10,7.5 C10,7.776 9.776,8 9.5,8 C9.224,8 9,7.776 9,7.5 C9,7.224 9.224,7 9.5,7 Z M5,9.5 C5,9.224 5.224,9 5.5,9 C5.776,9 6,9.224 6,9.5 C6,9.776 5.776,10 5.5,10 C5.224,10 5,9.776 5,9.5 Z M9,9.5 C9,9.224 9.224,9 9.5,9 C9.776,9 10,9.224 10,9.5 C10,9.776 9.776,10 9.5,10 C9.224,10 9,9.776 9,9.5 Z M3.5,9 C3.776,9 4,9.224 4,9.5 C4,9.776 3.776,10 3.5,10 C3.224,10 3,9.776 3,9.5 C3,9.224 3.224,9 3.5,9 Z M11,7.5 C11,7.224 11.224,7 11.5,7 C11.776,7 12,7.224 12,7.5 C12,7.776 11.776,8 11.5,8 C11.224,8 11,7.776 11,7.5 Z M11.5,9 C11.776,9 12,9.224 12,9.5 C12,9.776 11.776,10 11.5,10 C11.224,10 11,9.776 11,9.5 C11,9.224 11.224,9 11.5,9 Z M5.5,11 C5.776,11 6,11.224 6,11.5 C6,11.776 5.776,12 5.5,12 C5.224,12 5,11.776 5,11.5 C5,11.224 5.224,11 5.5,11 Z M7,11.5 C7,11.224 7.224,11 7.5,11 C7.776,11 8,11.224 8,11.5 C8,11.776 7.776,12 7.5,12 C7.224,12 7,11.776 7,11.5 Z M9.5,11 C9.776,11 10,11.224 10,11.5 C10,11.776 9.776,12 9.5,12 C9.224,12 9,11.776 9,11.5 C9,11.224 9.224,11 9.5,11 Z M3,11.5 C3,11.224 3.224,11 3.5,11 C3.776,11 4,11.224 4,11.5 C4,11.776 3.776,12 3.5,12 C3.224,12 3,11.776 3,11.5 Z"/>
</svg>

