<svg xmlns="http://www.w3.org/2000/svg" width="15" height="15" viewBox="0 0 15 15">
  <defs/>
  <path fill="currentColor" d="M0,4 C0,2.895 0.895,2 2,2 L13,2 C14.105,2 15,2.895 15,4 L15,11 C15,12.105 14.105,13 13,13 L2,13 C0.895,13 0,12.105 0,11 Z M2,3 C1.448,3 1,3.448 1,4 L1,11 C1,11.552 1.448,12 2,12 L13,12 C13.552,12 14,11.552 14,11 L14,4 C14,3.448 13.552,3 13,3 Z M13.101,7.584 C13.101,9.573 11.489,11.185 9.5,11.185 C7.511,11.185 5.899,9.573 5.899,7.584 C5.899,5.595 7.511,3.983 9.5,3.983 C11.489,3.983 13.101,5.595 13.101,7.584 Z M12.101,7.584 C12.101,6.148 10.936,4.983 9.5,4.983 C8.063,4.983 6.899,6.148 6.899,7.584 C6.899,9.021 8.063,10.185 9.5,10.185 C10.936,10.185 12.101,9.021 12.101,7.584 Z M2,4.25 C2,4.112 2.112,4 2.25,4 L4.75,4 C4.888,4 5,4.112 5,4.25 L5,5.755 C5,5.893 4.888,6.005 4.75,6.005 L2.25,6.005 C2.112,6.005 2,5.893 2,5.755 Z"/>
</svg>

