<svg xmlns="http://www.w3.org/2000/svg" width="15" height="15" viewBox="0 0 15 15">
  <defs/>
  <path fill="currentColor" d="M10.068,9.568 L7.818,11.818 C7.642,11.994 7.358,11.994 7.182,11.818 L4.932,9.568 C4.756,9.392 4.756,9.108 4.932,8.932 C5.108,8.756 5.392,8.756 5.568,8.932 L7.5,10.864 L9.432,8.932 C9.608,8.756 9.892,8.756 10.068,8.932 C10.244,9.108 10.244,9.392 10.068,9.568 Z M4.932,5.432 L7.182,3.182 C7.266,3.097 7.381,3.05 7.5,3.05 C7.619,3.05 7.734,3.097 7.818,3.182 L10.068,5.432 C10.244,5.608 10.244,5.892 10.068,6.068 C9.892,6.244 9.608,6.244 9.432,6.068 L7.5,4.136 L5.568,6.068 C5.392,6.244 5.108,6.244 4.932,6.068 C4.756,5.892 4.756,5.608 4.932,5.432 Z"/>
</svg>

