<svg xmlns="http://www.w3.org/2000/svg" width="15" height="15" viewBox="0 0 15 15">
  <defs/>
  <path fill="currentColor" d="M2.5,2 L12.5,2 C13.881,2 15,3.119 15,4.5 L15,9.5 C15,10.881 13.881,12 12.5,12 L11,12 L11,14.5 C11,14.702 10.878,14.884 10.691,14.962 C10.505,15.039 10.289,14.997 10.146,14.854 L7.293,12 L2.5,12 C1.119,12 0,10.881 0,9.5 L0,4.5 C0,3.119 1.119,2 2.5,2 Z M12.5,3 L2.5,3 C1.672,3 1,3.672 1,4.5 L1,9.5 C1,10.328 1.672,11 2.5,11 L7.5,11 C7.633,11 7.76,11.053 7.854,11.146 L10,13.293 L10,11.5 C10,11.224 10.224,11 10.5,11 L12.5,11 C13.328,11 14,10.328 14,9.5 L14,4.5 C14,3.672 13.328,3 12.5,3 Z"/>
</svg>

