<svg xmlns="http://www.w3.org/2000/svg" width="15" height="15" viewBox="0 0 15 15">
  <defs/>
  <path fill="currentColor" d="M2,3 C2,2.448 2.448,2 3,2 L12,2 C12.552,2 13,2.448 13,3 L13,12 C13,12.552 12.552,13 12,13 L3,13 C2.448,13 2,12.552 2,12 Z M3,3 L3,12 L12,12 L12,3 Z M10.35,5.511 L7.09,10.26 C7.002,10.389 6.858,10.469 6.701,10.477 C6.544,10.484 6.393,10.417 6.293,10.296 L4.428,8.047 C4.251,7.835 4.281,7.52 4.493,7.343 C4.706,7.167 5.021,7.196 5.197,7.409 L6.64,9.149 L9.525,4.945 C9.682,4.718 9.993,4.66 10.22,4.816 C10.448,4.972 10.506,5.283 10.35,5.511 Z"/>
</svg>

