<svg xmlns="http://www.w3.org/2000/svg" width="15" height="15" viewBox="0 0 15 15">
  <defs/>
  <path fill="currentColor" d="M7.5,0.877 C11.158,0.877 14.123,3.842 14.123,7.5 C14.123,11.158 11.158,14.123 7.5,14.123 C3.842,14.123 0.877,11.158 0.877,7.5 C0.877,3.842 3.842,0.877 7.5,0.877 Z M3.151,3.858 C2.324,4.843 1.827,6.113 1.827,7.5 C1.827,10.633 4.367,13.173 7.5,13.173 C8.886,13.173 10.157,12.675 11.142,11.849 Z M3.858,3.151 L11.849,11.142 C12.675,10.157 13.173,8.886 13.173,7.5 C13.173,4.367 10.633,1.827 7.5,1.827 C6.113,1.827 4.843,2.324 3.858,3.151 Z"/>
</svg>

