<svg xmlns="http://www.w3.org/2000/svg" width="15" height="15" viewBox="0 0 15 15">
  <defs/>
  <path fill="currentColor" d="M4.75,0 L10.25,0 C10.664,0 11,0.336 11,0.75 L11,1 L11.5,1 C12.328,1 13,1.672 13,2.5 L13,7 L12,7 L12,2.5 C12,2.224 11.776,2 11.5,2 L11,2 L11,2.25 C11,2.664 10.664,3 10.25,3 L4.75,3 C4.336,3 4,2.664 4,2.25 L4,2 L3.5,2 C3.224,2 3,2.224 3,2.5 L3,12.5 C3,12.776 3.224,13 3.5,13 L7,13 L7,14 L3.5,14 C2.672,14 2,13.328 2,12.5 L2,2.5 C2,1.672 2.672,1 3.5,1 L4,1 L4,0.75 C4,0.336 4.336,0 4.75,0 Z M5,2 L10,2 L10,1 L5,1 Z M9,8.5 C9,8.776 8.776,9 8.5,9 C8.224,9 8,8.776 8,8.5 C8,8.224 8.224,8 8.5,8 C8.776,8 9,8.224 9,8.5 Z M13,8.5 C13,8.776 12.776,9 12.5,9 C12.224,9 12,8.776 12,8.5 C12,8.224 12.224,8 12.5,8 C12.776,8 13,8.224 13,8.5 Z M10.5,9 C10.224,9 10,8.776 10,8.5 C10,8.224 10.224,8 10.5,8 C10.776,8 11,8.224 11,8.5 C11,8.776 10.776,9 10.5,9 Z M14.5,9 C14.224,9 14,8.776 14,8.5 C14,8.224 14.224,8 14.5,8 C14.776,8 15,8.224 15,8.5 C15,8.776 14.776,9 14.5,9 Z M8.5,11 C8.224,11 8,10.776 8,10.5 C8,10.224 8.224,10 8.5,10 C8.776,10 9,10.224 9,10.5 C9,10.776 8.776,11 8.5,11 Z M9,12.5 C9,12.776 8.776,13 8.5,13 C8.224,13 8,12.776 8,12.5 C8,12.224 8.224,12 8.5,12 C8.776,12 9,12.224 9,12.5 Z M8.5,15 C8.224,15 8,14.776 8,14.5 C8,14.224 8.224,14 8.5,14 C8.776,14 9,14.224 9,14.5 C9,14.776 8.776,15 8.5,15 Z M15,10.5 C15,10.776 14.776,11 14.5,11 C14.224,11 14,10.776 14,10.5 C14,10.224 14.224,10 14.5,10 C14.776,10 15,10.224 15,10.5 Z M14.5,13 C14.224,13 14,12.776 14,12.5 C14,12.224 14.224,12 14.5,12 C14.776,12 15,12.224 15,12.5 C15,12.776 14.776,13 14.5,13 Z M11,14.5 C11,14.776 10.776,15 10.5,15 C10.224,15 10,14.776 10,14.5 C10,14.224 10.224,14 10.5,14 C10.776,14 11,14.224 11,14.5 Z M12.5,15 C12.224,15 12,14.776 12,14.5 C12,14.224 12.224,14 12.5,14 C12.776,14 13,14.224 13,14.5 C13,14.776 12.776,15 12.5,15 Z M14.5,15 C14.224,15 14,14.776 14,14.5 C14,14.224 14.224,14 14.5,14 C14.776,14 15,14.224 15,14.5 C15,14.776 14.776,15 14.5,15 Z"/>
</svg>

