<svg xmlns="http://www.w3.org/2000/svg" width="15" height="15" viewBox="0 0 15 15">
  <defs/>
  <path fill="currentColor" d="M7.711,0.797 L13.711,3.597 C13.887,3.679 14,3.856 14,4.05 L14,10.95 C14,11.144 13.887,11.321 13.711,11.403 L7.711,14.203 C7.577,14.266 7.423,14.266 7.289,14.203 L1.289,11.403 C1.113,11.321 1,11.144 1,10.95 L1,4.05 C1,3.856 1.113,3.679 1.289,3.597 L7.289,0.797 C7.423,0.734 7.577,0.734 7.711,0.797 Z M8,6.931 L8,12.965 L10.5,11.798 L10.5,9.72 C10.5,9.33 10.727,8.975 11.082,8.812 L13,7.93 L13,4.806 Z M7,6.931 L2,4.806 L2,7.929 L3.92,8.812 C4.275,8.975 4.502,9.33 4.502,9.72 L4.502,11.799 L7,12.965 Z M7.696,4.16 C7.571,4.213 7.429,4.213 7.304,4.16 L4.762,3.08 L2.728,4.029 L7.5,6.057 L12.272,4.029 L10.238,3.08 Z M2,10.632 L3.502,11.333 L3.502,9.72 L2,9.029 Z M11.5,11.332 L13,10.632 L13,9.03 L11.5,9.72 Z M7.5,3.157 L9.02,2.511 L7.5,1.802 L5.98,2.511 Z"/>
</svg>

