<svg xmlns="http://www.w3.org/2000/svg" width="15" height="15" viewBox="0 0 15 15">
  <defs/>
  <path fill="currentColor" d="M8,1.5 L8,13.5 C8,13.776 7.776,14 7.5,14 C7.224,14 7,13.776 7,13.5 L7,1.5 C7,1.224 7.224,1 7.5,1 C7.776,1 8,1.224 8,1.5 Z M3.318,5.818 L2.086,7.05 L5.5,7.05 C5.749,7.05 5.95,7.251 5.95,7.5 C5.95,7.748 5.749,7.95 5.5,7.95 L2.086,7.95 L3.318,9.182 C3.494,9.357 3.494,9.642 3.318,9.818 C3.142,9.994 2.857,9.994 2.682,9.818 L0.682,7.818 C0.506,7.642 0.506,7.357 0.682,7.182 L2.682,5.182 C2.857,5.006 3.142,5.006 3.318,5.182 C3.494,5.357 3.494,5.642 3.318,5.818 Z M12.318,5.182 L14.318,7.182 C14.494,7.357 14.494,7.642 14.318,7.818 L12.318,9.818 C12.142,9.994 11.858,9.994 11.682,9.818 C11.506,9.642 11.506,9.357 11.682,9.182 L12.913,7.95 L9.5,7.95 C9.252,7.95 9.05,7.748 9.05,7.5 C9.05,7.251 9.252,7.05 9.5,7.05 L12.913,7.05 L11.682,5.818 C11.506,5.642 11.506,5.357 11.682,5.182 C11.858,5.006 12.142,5.006 12.318,5.182 Z"/>
</svg>

