<svg xmlns="http://www.w3.org/2000/svg" width="15" height="15" viewBox="0 0 15 15">
  <defs/>
  <path fill="currentColor" d="M10.863,8 C10.621,9.641 9.208,10.9 7.5,10.9 C5.792,10.9 4.378,9.641 4.137,8 L0.5,8 C0.224,8 0,7.776 0,7.5 C0,7.224 0.224,7 0.5,7 L4.137,7 C4.378,5.359 5.792,4.1 7.5,4.1 C9.208,4.1 10.621,5.359 10.863,7 L14.5,7 C14.776,7 15,7.224 15,7.5 C15,7.776 14.776,8 14.5,8 Z M9.95,7.5 C9.95,6.147 8.853,5.05 7.5,5.05 C6.147,5.05 5.05,6.147 5.05,7.5 C5.05,8.853 6.147,9.95 7.5,9.95 C8.853,9.95 9.95,8.853 9.95,7.5 Z"/>
</svg>

