<svg xmlns="http://www.w3.org/2000/svg" width="15" height="15" viewBox="0 0 15 15">
  <defs/>
  <path fill="currentColor" d="M7.854,1.49 L10.328,3.964 L12.646,1.646 C12.842,1.451 13.158,1.451 13.354,1.646 C13.549,1.842 13.549,2.158 13.354,2.354 L11.036,4.672 L13.51,7.146 C13.706,7.342 13.706,7.658 13.51,7.854 L7.854,13.51 C7.658,13.706 7.342,13.706 7.147,13.51 L4.672,11.035 L2.354,13.354 C2.158,13.549 1.842,13.549 1.646,13.354 C1.451,13.158 1.451,12.842 1.646,12.646 L3.964,10.328 L1.49,7.854 C1.294,7.658 1.294,7.342 1.49,7.146 L7.147,1.49 C7.342,1.294 7.658,1.294 7.854,1.49 Z M5.379,10.328 L7.5,12.45 L12.45,7.5 L10.328,5.379 Z M9.621,4.672 L7.5,2.55 L2.55,7.5 L4.672,9.621 Z"/>
</svg>

