<svg xmlns="http://www.w3.org/2000/svg" width="15" height="15" viewBox="0 0 15 15">
  <defs/>
  <path fill="currentColor" d="M3.879,1 L11.121,1 C11.523,1 11.855,1 12.126,1.022 C12.407,1.045 12.665,1.094 12.908,1.218 C13.284,1.41 13.59,1.716 13.782,2.092 C13.906,2.335 13.955,2.593 13.978,2.874 C14,3.145 14,3.477 14,3.879 L14,11.121 C14,11.523 14,11.855 13.978,12.126 C13.955,12.407 13.906,12.665 13.782,12.908 C13.59,13.284 13.284,13.59 12.908,13.782 C12.665,13.906 12.407,13.955 12.126,13.978 C11.855,14 11.523,14 11.121,14 L3.879,14 C3.477,14 3.145,14 2.874,13.978 C2.593,13.955 2.335,13.906 2.092,13.782 C1.716,13.59 1.41,13.284 1.218,12.908 C1.094,12.665 1.045,12.407 1.022,12.126 C1,11.855 1,11.523 1,11.121 L1,3.879 C1,3.477 1,3.145 1.022,2.874 C1.045,2.593 1.094,2.335 1.218,2.092 C1.41,1.716 1.716,1.41 2.092,1.218 C2.335,1.094 2.593,1.045 2.874,1.022 C3.145,1 3.477,1 3.879,1 Z M2.956,2.019 C2.736,2.037 2.624,2.069 2.546,2.109 C2.358,2.205 2.205,2.358 2.109,2.546 C2.069,2.624 2.037,2.736 2.019,2.956 C2,3.181 2,3.472 2,3.9 L2,7 L7,7 L7,2 L3.9,2 C3.472,2 3.181,2 2.956,2.019 Z M7,8 L2,8 L2,11.1 C2,11.528 2,11.819 2.019,12.045 C2.037,12.264 2.069,12.376 2.109,12.454 C2.205,12.642 2.358,12.795 2.546,12.891 C2.624,12.931 2.736,12.963 2.956,12.981 C3.181,13 3.472,13 3.9,13 L7,13 Z M13,7 L13,3.9 C13,3.472 13,3.181 12.981,2.956 C12.963,2.736 12.931,2.624 12.891,2.546 C12.795,2.358 12.642,2.205 12.454,2.109 C12.376,2.069 12.264,2.037 12.045,2.019 C11.819,2 11.528,2 11.1,2 L8,2 L8,7 Z M8,8 L8,13 L11.1,13 C11.528,13 11.819,13 12.045,12.981 C12.264,12.963 12.376,12.931 12.454,12.891 C12.642,12.795 12.795,12.642 12.891,12.454 C12.931,12.376 12.963,12.264 12.981,12.045 C13,11.819 13,11.528 13,11.1 L13,8 Z"/>
</svg>

