<svg xmlns="http://www.w3.org/2000/svg" width="15" height="15" viewBox="0 0 15 15">
  <defs/>
  <path fill="currentColor" d="M4,13 L4,2 C4,1.448 4.448,1 5,1 L10,1 C10.552,1 11,1.448 11,2 L11,13 C11,13.552 10.552,14 10,14 L5,14 C4.448,14 4,13.552 4,13 Z M5,13 L10,13 L10,2 L5,2 Z M2,5.5 C2,5.776 1.776,6 1.5,6 C1.224,6 1,5.776 1,5.5 C1,5.224 1.224,5 1.5,5 C1.776,5 2,5.224 2,5.5 Z M2,7.5 C2,7.776 1.776,8 1.5,8 C1.224,8 1,7.776 1,7.5 C1,7.224 1.224,7 1.5,7 C1.776,7 2,7.224 2,7.5 Z M2,9.5 C2,9.776 1.776,10 1.5,10 C1.224,10 1,9.776 1,9.5 C1,9.224 1.224,9 1.5,9 C1.776,9 2,9.224 2,9.5 Z M2,1.5 C2,1.776 1.776,2 1.5,2 C1.224,2 1,1.776 1,1.5 C1,1.224 1.224,1 1.5,1 C1.776,1 2,1.224 2,1.5 Z M2,3.5 C2,3.776 1.776,4 1.5,4 C1.224,4 1,3.776 1,3.5 C1,3.224 1.224,3 1.5,3 C1.776,3 2,3.224 2,3.5 Z M13.5,6 C13.224,6 13,5.776 13,5.5 C13,5.224 13.224,5 13.5,5 C13.776,5 14,5.224 14,5.5 C14,5.776 13.776,6 13.5,6 Z M13.5,8 C13.224,8 13,7.776 13,7.5 C13,7.224 13.224,7 13.5,7 C13.776,7 14,7.224 14,7.5 C14,7.776 13.776,8 13.5,8 Z M13.5,10 C13.224,10 13,9.776 13,9.5 C13,9.224 13.224,9 13.5,9 C13.776,9 14,9.224 14,9.5 C14,9.776 13.776,10 13.5,10 Z M2,11.5 C2,11.776 1.776,12 1.5,12 C1.224,12 1,11.776 1,11.5 C1,11.224 1.224,11 1.5,11 C1.776,11 2,11.224 2,11.5 Z M2,13.5 C2,13.776 1.776,14 1.5,14 C1.224,14 1,13.776 1,13.5 C1,13.224 1.224,13 1.5,13 C1.776,13 2,13.224 2,13.5 Z M13.5,2 C13.224,2 13,1.776 13,1.5 C13,1.224 13.224,1 13.5,1 C13.776,1 14,1.224 14,1.5 C14,1.776 13.776,2 13.5,2 Z M13.5,4 C13.224,4 13,3.776 13,3.5 C13,3.224 13.224,3 13.5,3 C13.776,3 14,3.224 14,3.5 C14,3.776 13.776,4 13.5,4 Z M13.5,12 C13.224,12 13,11.776 13,11.5 C13,11.224 13.224,11 13.5,11 C13.776,11 14,11.224 14,11.5 C14,11.776 13.776,12 13.5,12 Z M13.5,14 C13.224,14 13,13.776 13,13.5 C13,13.224 13.224,13 13.5,13 C13.776,13 14,13.224 14,13.5 C14,13.776 13.776,14 13.5,14 Z"/>
</svg>

