<svg xmlns="http://www.w3.org/2000/svg" width="15" height="15" viewBox="0 0 15 15">
  <defs/>
  <path fill="currentColor" d="M8.393,1.078 C9.208,1.162 9.626,1.724 9.912,2.162 C9.955,2.228 9.997,2.298 10.041,2.369 C10.216,2.658 10.405,2.969 10.7,3.128 C11.081,3.333 11.084,3.737 11.063,3.909 C11.045,4.049 11.013,4.172 10.981,4.292 C10.922,4.515 10.866,4.728 10.913,5.029 C10.965,5.35 11.621,5.902 12.721,6.38 C12.83,6.427 12.937,6.46 13.041,6.492 C13.316,6.577 13.563,6.654 13.722,6.953 C14.326,8.092 14.104,9.272 13.499,10.339 C12.901,11.396 11.898,12.404 10.799,13.297 C10.145,13.828 9.365,13.978 8.664,14.074 C7.809,14.191 6.408,14.112 5.139,13.808 C4.04,13.545 2.611,13.065 2.132,11.928 C1.305,9.969 0.985,8.598 1.001,7.444 C1.017,6.281 1.376,5.387 1.788,4.418 C2.327,3.153 3.386,2.256 4.584,1.709 C5.782,1.163 7.156,0.951 8.393,1.078 Z M4.999,2.619 C3.965,3.091 3.126,3.831 2.708,4.81 C2.298,5.774 2.014,6.509 2.001,7.458 C1.987,8.414 2.25,9.637 3.053,11.539 C3.392,12.342 4.622,12.656 5.372,12.835 C6.549,13.117 7.822,13.18 8.529,13.083 C9.213,12.99 9.746,12.864 10.168,12.521 C11.229,11.659 12.121,10.743 12.629,9.846 C12.935,9.307 13.514,7.703 12.629,7.387 C10.754,6.719 10.262,6.067 9.99,5.413 C9.809,4.977 9.829,4.523 9.957,4.079 C9.977,4.013 9.995,3.948 10.033,3.889 C9.819,3.737 9.651,3.552 9.515,3.372 C9.429,3.258 9.347,3.121 9.262,2.979 C9.019,2.571 8.75,2.12 8.29,2.073 C7.229,1.963 6.034,2.148 4.999,2.619 Z M10.389,8.841 C10.757,8.657 11.462,8.828 11.462,9.312 C11.462,9.713 10.959,10.217 10.563,10.283 C10.181,10.347 9.705,9.976 9.766,9.577 C9.814,9.265 10.122,8.974 10.389,8.841 Z M6.907,4.287 C6.469,4.668 6.052,4.152 5.98,3.737 C5.868,3.097 6.337,2.569 6.948,2.912 C7.433,3.184 7.267,3.975 6.907,4.287 Z M6.988,8.725 L6.986,8.719 C6.857,8.387 6.985,7.93 7.337,7.794 C7.64,7.678 8.023,7.775 8.172,8.074 C8.332,8.397 8.274,9.028 7.919,9.163 C7.511,9.319 7.141,9.119 6.988,8.725 Z M3.047,7.813 C2.867,7.633 2.709,7.068 3.047,6.873 C4.138,6.243 4.608,7.909 3.984,8.059 C3.601,8.151 3.331,8.098 3.047,7.813 Z M7.567,10.843 C8.065,11.043 8.207,12.055 7.527,12.099 C7.132,12.124 6.59,12.003 6.675,11.484 C6.714,11.244 6.908,10.995 7.113,10.878 L7.114,10.877 C7.144,10.86 7.335,10.75 7.567,10.843 Z M4.88,10.893 C4.636,11.186 4.22,11.094 3.998,10.818 L3.995,10.814 L3.992,10.811 C3.807,10.627 3.793,10.33 3.966,10.13 C4.325,9.713 4.93,9.797 5.083,10.315 C5.157,10.536 5.067,10.772 4.88,10.893 Z M14.367,2.26 C13.592,2.241 13.808,0.731 14.572,0.949 C15.155,1.116 14.967,2.275 14.367,2.26 Z M13.208,3.775 C12.903,4.493 11.582,3.727 12.082,3.102 C12.455,2.636 13.441,3.227 13.208,3.775 Z M12.07,1.767 C11.659,2.315 10.639,1.55 11.05,1.002 C11.46,0.454 12.481,1.219 12.07,1.767 Z M6.977,6.72 C6.763,6.293 7.212,5.896 7.621,5.942 C7.687,5.949 7.865,5.98 7.994,6.148 C8.488,6.792 7.312,7.389 6.977,6.72 Z M4.945,5.882 C4.749,6.077 4.433,6.077 4.237,5.882 C4.009,5.654 3.833,5.332 4.114,5.052 C4.596,4.57 5.409,5.418 4.945,5.882 Z M14.286,5.091 C13.537,5.079 13.745,4.144 14.483,4.279 C15.046,4.382 14.864,5.1 14.286,5.091 Z"/>
</svg>

