<svg xmlns="http://www.w3.org/2000/svg" width="15" height="15" viewBox="0 0 15 15">
  <defs/>
  <path fill="currentColor" d="M1,9.5 L1,2.5 C1,1.672 1.672,1 2.5,1 L9.5,1 C10.328,1 11,1.672 11,2.5 L11,4 L12.5,4 C13.328,4 14,4.672 14,5.5 L14,12.5 C14,13.328 13.328,14 12.5,14 L5.5,14 C4.672,14 4,13.328 4,12.5 L4,11 L2.5,11 C1.672,11 1,10.328 1,9.5 Z M5,5.5 L5,12.5 C5,12.776 5.224,13 5.5,13 L12.5,13 C12.776,13 13,12.776 13,12.5 L13,5.5 C13,5.224 12.776,5 12.5,5 L5.5,5 C5.224,5 5,5.224 5,5.5 Z M2.5,10 L4,10 L4,5.5 C4,4.672 4.672,4 5.5,4 L10,4 L10,2.5 C10,2.224 9.776,2 9.5,2 L2.5,2 C2.224,2 2,2.224 2,2.5 L2,9.5 C2,9.776 2.224,10 2.5,10 Z"/>
</svg>

