<svg xmlns="http://www.w3.org/2000/svg" width="15" height="15" viewBox="0 0 15 15">
  <defs/>
  <path fill="currentColor" d="M5.5,2 C5.776,2 6,2.224 6,2.5 C6,2.776 5.776,3 5.5,3 L4.9,3 C4.472,3 4.181,3 3.956,3.019 C3.736,3.037 3.624,3.069 3.546,3.109 C3.358,3.205 3.205,3.358 3.109,3.546 C3.069,3.624 3.037,3.736 3.019,3.956 C3,4.181 3,4.472 3,4.9 L3,5.5 C3,5.776 2.776,6 2.5,6 C2.224,6 2,5.776 2,5.5 L2,4.879 C2,4.477 2,4.145 2.022,3.874 C2.045,3.593 2.094,3.335 2.218,3.092 C2.41,2.716 2.716,2.41 3.092,2.218 C3.335,2.094 3.593,2.045 3.874,2.022 C4.145,2 4.477,2 4.879,2 Z M10.1,3 L9.5,3 C9.224,3 9,2.776 9,2.5 C9,2.224 9.224,2 9.5,2 L10.121,2 C10.523,2 10.855,2 11.126,2.022 C11.407,2.045 11.665,2.094 11.908,2.218 C12.284,2.41 12.59,2.716 12.782,3.092 C12.906,3.335 12.955,3.593 12.978,3.874 C13,4.145 13,4.477 13,4.879 L13,5.5 C13,5.776 12.776,6 12.5,6 C12.224,6 12,5.776 12,5.5 L12,4.9 C12,4.472 12,4.181 11.981,3.956 C11.963,3.736 11.931,3.624 11.891,3.546 C11.795,3.358 11.642,3.205 11.454,3.109 C11.376,3.069 11.264,3.037 11.045,3.019 C10.819,3 10.528,3 10.1,3 Z M2.5,9 C2.776,9 3,9.224 3,9.5 L3,10.1 C3,10.528 3,10.819 3.019,11.045 C3.037,11.264 3.069,11.376 3.109,11.454 C3.205,11.642 3.358,11.795 3.546,11.891 C3.624,11.931 3.736,11.963 3.956,11.981 C4.181,12 4.472,12 4.9,12 L5.5,12 C5.776,12 6,12.224 6,12.5 C6,12.776 5.776,13 5.5,13 L4.879,13 C4.477,13 4.145,13 3.874,12.978 C3.593,12.955 3.335,12.906 3.092,12.782 C2.716,12.59 2.41,12.284 2.218,11.908 C2.094,11.665 2.045,11.407 2.022,11.126 C2,10.855 2,10.523 2,10.121 L2,9.5 C2,9.224 2.224,9 2.5,9 Z M13,9.5 L13,10.121 C13,10.523 13,10.855 12.978,11.126 C12.955,11.407 12.906,11.665 12.782,11.908 C12.59,12.284 12.284,12.59 11.908,12.782 C11.665,12.906 11.407,12.955 11.126,12.978 C10.855,13 10.523,13 10.121,13 L9.5,13 C9.224,13 9,12.776 9,12.5 C9,12.224 9.224,12 9.5,12 L10.1,12 C10.528,12 10.819,12 11.045,11.981 C11.264,11.963 11.376,11.931 11.454,11.891 C11.642,11.795 11.795,11.642 11.891,11.454 C11.931,11.376 11.963,11.264 11.981,11.045 C12,10.819 12,10.528 12,10.1 L12,9.5 C12,9.224 12.224,9 12.5,9 C12.776,9 13,9.224 13,9.5 Z"/>
</svg>

