<svg xmlns="http://www.w3.org/2000/svg" width="15" height="15" viewBox="0 0 15 15">
  <defs/>
  <path fill="currentColor" d="M5.123,12 L3.5,12 C3.224,12 3,11.776 3,11.5 C3,11.224 3.224,11 3.5,11 L5.1,11 C6.228,11 7.045,11 7.686,10.947 C8.323,10.895 8.743,10.795 9.089,10.618 C9.748,10.283 10.283,9.748 10.618,9.089 C10.795,8.743 10.895,8.323 10.947,7.686 C11,7.045 11,6.228 11,5.1 L11,3.5 C11,3.224 11.224,3 11.5,3 C11.776,3 12,3.224 12,3.5 L12,5.123 C12,6.224 12,7.081 11.944,7.768 C11.887,8.466 11.769,9.033 11.509,9.543 C11.078,10.39 10.39,11.078 9.543,11.509 C9.033,11.769 8.466,11.887 7.768,11.944 C7.081,12 6.224,12 5.123,12 Z"/>
</svg>

