<svg xmlns="http://www.w3.org/2000/svg" width="15" height="15" viewBox="0 0 15 15">
  <defs/>
  <path fill="currentColor" d="M5.123,3 C6.224,3 7.081,3 7.768,3.056 C8.466,3.113 9.033,3.231 9.543,3.49 C10.39,3.922 11.078,4.61 11.509,5.457 C11.769,5.967 11.887,6.534 11.944,7.232 C12,7.919 12,8.776 12,9.877 L12,11.5 C12,11.776 11.776,12 11.5,12 C11.224,12 11,11.776 11,11.5 L11,9.9 C11,8.772 11,7.955 10.947,7.314 C10.895,6.677 10.795,6.257 10.618,5.911 C10.283,5.252 9.748,4.717 9.089,4.381 C8.743,4.205 8.323,4.105 7.686,4.053 C7.045,4 6.228,4 5.1,4 L3.5,4 C3.224,4 3,3.776 3,3.5 C3,3.224 3.224,3 3.5,3 Z"/>
</svg>

