<svg xmlns="http://www.w3.org/2000/svg" width="15" height="15" viewBox="0 0 15 15">
  <defs/>
  <path fill="currentColor" d="M9.877,3 L11.5,3 C11.776,3 12,3.224 12,3.5 C12,3.776 11.776,4 11.5,4 L9.9,4 C8.772,4 7.955,4 7.314,4.053 C6.677,4.105 6.257,4.205 5.911,4.381 C5.252,4.717 4.717,5.252 4.381,5.911 C4.205,6.257 4.105,6.677 4.053,7.314 C4,7.955 4,8.772 4,9.9 L4,11.5 C4,11.776 3.776,12 3.5,12 C3.224,12 3,11.776 3,11.5 L3,9.877 C3,8.776 3,7.919 3.056,7.232 C3.113,6.534 3.231,5.967 3.49,5.457 C3.922,4.61 4.61,3.922 5.457,3.49 C5.967,3.231 6.534,3.113 7.232,3.056 C7.919,3 8.776,3 9.877,3 Z"/>
</svg>

