<svg xmlns="http://www.w3.org/2000/svg" width="15" height="15" viewBox="0 0 15 15">
  <defs/>
  <path fill="currentColor" d="M7.5,0 C7.776,0 8,0.224 8,0.5 L8,1.807 C10.692,2.093 12.817,4.28 13.007,7 L14.5,7 C14.776,7 15,7.224 15,7.5 C15,7.776 14.776,8 14.5,8 L12.989,8 C12.709,10.624 10.624,12.709 8,12.989 L8,14.5 C8,14.776 7.776,15 7.5,15 C7.224,15 7,14.776 7,14.5 L7,13.007 C4.28,12.817 2.093,10.692 1.807,8 L0.5,8 C0.224,8 0,7.776 0,7.5 C0,7.224 0.224,7 0.5,7 L1.789,7 C1.984,4.212 4.212,1.984 7,1.789 L7,0.5 C7,0.224 7.224,0 7.5,0 Z M8,12.032 C10.099,11.762 11.762,10.099 12.032,8 L9.5,8 C9.224,8 9,7.776 9,7.5 C9,7.224 9.224,7 9.5,7 L12.054,7 C11.869,4.805 10.167,3.042 8,2.763 L8,5.5 C8,5.776 7.776,6 7.5,6 C7.224,6 7,5.776 7,5.5 L7,2.742 C4.737,2.933 2.933,4.737 2.742,7 L5.5,7 C5.776,7 6,7.224 6,7.5 C6,7.776 5.776,8 5.5,8 L2.763,8 C3.042,10.167 4.805,11.869 7,12.054 L7,9.5 C7,9.224 7.224,9 7.5,9 C7.776,9 8,9.224 8,9.5 Z"/>
</svg>

