<svg xmlns="http://www.w3.org/2000/svg" width="15" height="15" viewBox="0 0 15 15">
  <defs/>
  <path fill="currentColor" d="M4.609,0.063 L8.609,1.063 C8.641,1.071 8.672,1.083 8.701,1.097 L11.701,2.598 C11.854,2.674 11.95,2.83 11.95,3 L11.95,5.275 L13.77,6.64 C13.911,6.746 13.978,6.925 13.939,7.098 L12.939,11.598 C12.905,11.752 12.792,11.877 12.642,11.927 L9.642,12.927 C9.636,12.929 9.63,12.931 9.624,12.933 L6.124,13.933 C5.935,13.986 5.734,13.912 5.626,13.75 L4.201,11.613 L1.327,10.415 C1.121,10.33 1.009,10.107 1.063,9.891 L2.011,6.099 L0.64,4.27 C0.556,4.158 0.529,4.013 0.567,3.878 C0.605,3.744 0.703,3.634 0.833,3.582 L3.154,2.654 L4.082,0.333 C4.166,0.124 4.391,0.009 4.609,0.063 Z M11.432,6.012 L9.361,6.84 L8.927,8.142 C8.848,8.378 8.593,8.505 8.358,8.427 C8.122,8.348 7.994,8.093 8.073,7.858 L8.573,6.358 C8.615,6.232 8.71,6.131 8.833,6.082 L11.05,5.195 L11.05,3.278 L8.624,2.065 L6.851,4.281 C6.734,4.428 6.537,4.487 6.358,4.427 L3.514,3.479 L1.712,4.2 L2.725,5.55 L5,5.55 C5.249,5.55 5.45,5.751 5.45,6 C5.45,6.249 5.249,6.45 5,6.45 L2.851,6.45 L2.03,9.734 L4.673,10.835 C4.755,10.869 4.825,10.927 4.874,11 L6.192,12.977 L8.403,12.345 L7.261,11.632 C7.051,11.5 6.987,11.222 7.118,11.012 C7.25,10.801 7.528,10.737 7.738,10.868 L9.254,11.816 L10.073,9.358 C10.099,9.278 10.148,9.208 10.212,9.154 L12.775,7.019 Z M7.711,1.766 L4.772,1.032 L4.095,2.724 L6.345,3.474 Z M10.212,11.788 L12.116,11.154 L12.774,8.19 L10.886,9.764 Z"/>
</svg>

