<svg xmlns="http://www.w3.org/2000/svg" width="15" height="15" viewBox="0 0 15 15">
  <defs/>
  <path fill="currentColor" d="M9.8,8 L12.2,8 L12.25,8 C12.479,8 12.676,8 12.85,8.041 C13.399,8.173 13.827,8.601 13.959,9.15 C14,9.324 14,9.521 14,9.75 L14,12.25 C14,12.479 14,12.676 13.959,12.85 C13.827,13.399 13.399,13.827 12.85,13.959 C12.676,14 12.479,14 12.25,14 L9.75,14 C9.521,14 9.324,14 9.15,13.959 C8.601,13.827 8.173,13.399 8.041,12.85 C8,12.676 8,12.479 8,12.25 L8,12.2 L8,9.8 L8,9.75 C8,9.521 8,9.324 8.041,9.15 C8.173,8.601 8.601,8.173 9.15,8.041 C9.324,8 9.521,8 9.75,8 Z M9.8,1 L12.2,1 L12.25,1 C12.479,1 12.676,1 12.85,1.041 C13.399,1.173 13.827,1.601 13.959,2.15 C14,2.324 14,2.521 14,2.75 L14,5.25 C14,5.479 14,5.676 13.959,5.85 C13.827,6.399 13.399,6.827 12.85,6.959 C12.676,7 12.479,7 12.25,7 L12.2,7 L9.8,7 L9.75,7 C9.521,7 9.324,7 9.15,6.959 C8.601,6.827 8.173,6.399 8.041,5.85 C8,5.676 8,5.479 8,5.25 L8,5.25 L8,5.2 L8,2.8 L8,2.75 L8,2.75 C8,2.521 8,2.324 8.041,2.15 C8.173,1.601 8.601,1.173 9.15,1.041 C9.324,1 9.521,1 9.75,1 Z M2.75,8 L5.2,8 L5.25,8 L5.25,8 C5.479,8 5.676,8 5.85,8.041 C6.399,8.173 6.827,8.601 6.959,9.15 C7,9.324 7,9.521 7,9.75 L7,9.8 L7,12.2 L7,12.25 C7,12.479 7,12.676 6.959,12.85 C6.827,13.399 6.399,13.827 5.85,13.959 C5.676,14 5.479,14 5.25,14 L2.75,14 C2.521,14 2.324,14 2.15,13.959 C1.601,13.827 1.173,13.399 1.041,12.85 C1,12.676 1,12.479 1,12.25 L1,12.2 L1,9.8 L1,9.75 C1,9.521 1,9.324 1.041,9.15 C1.173,8.601 1.601,8.173 2.15,8.041 C2.324,8 2.521,8 2.75,8 Z M2.8,1 L5.2,1 L5.25,1 C5.479,1 5.676,1 5.85,1.041 C6.399,1.173 6.827,1.601 6.959,2.15 C7,2.324 7,2.521 7,2.75 L7,2.75 L7,2.8 L7,5.2 L7,5.25 L7,5.25 C7,5.479 7,5.676 6.959,5.85 C6.827,6.399 6.399,6.827 5.85,6.959 C5.676,7 5.479,7 5.25,7 L5.25,7 L5.2,7 L2.8,7 L2.75,7 L2.75,7 C2.521,7 2.324,7 2.15,6.959 C1.601,6.827 1.173,6.399 1.041,5.85 C1,5.676 1,5.479 1,5.25 L1,5.2 L1,2.8 L1,2.75 C1,2.521 1,2.324 1.041,2.15 C1.173,1.601 1.601,1.173 2.15,1.041 C2.324,1 2.521,1 2.75,1 Z M2.383,2.014 C2.2,2.058 2.058,2.2 2.014,2.383 C2.003,2.426 2,2.492 2,2.8 L2,5.2 C2,5.508 2.003,5.574 2.014,5.617 C2.058,5.8 2.2,5.942 2.383,5.986 C2.426,5.997 2.492,6 2.8,6 L5.2,6 C5.508,6 5.574,5.997 5.617,5.986 C5.8,5.942 5.942,5.8 5.986,5.617 C5.997,5.574 6,5.508 6,5.2 L6,2.8 C6,2.492 5.997,2.426 5.986,2.383 C5.942,2.2 5.8,2.058 5.617,2.014 C5.574,2.003 5.508,2 5.2,2 L2.8,2 C2.492,2 2.426,2.003 2.383,2.014 Z M2.8,9 C2.492,9 2.426,9.003 2.383,9.014 C2.2,9.058 2.058,9.2 2.014,9.383 C2.003,9.426 2,9.492 2,9.8 L2,12.2 C2,12.508 2.003,12.574 2.014,12.617 C2.058,12.8 2.2,12.942 2.383,12.986 C2.426,12.997 2.492,13 2.8,13 L5.2,13 C5.508,13 5.574,12.997 5.617,12.986 C5.8,12.942 5.942,12.8 5.986,12.617 C5.997,12.574 6,12.508 6,12.2 L6,9.8 C6,9.492 5.997,9.426 5.986,9.383 C5.942,9.2 5.8,9.058 5.617,9.014 C5.574,9.003 5.508,9 5.2,9 Z M9.383,2.014 C9.2,2.058 9.058,2.2 9.014,2.383 C9.003,2.426 9,2.492 9,2.8 L9,5.2 C9,5.508 9.003,5.574 9.014,5.617 C9.058,5.8 9.2,5.942 9.383,5.986 C9.426,5.997 9.492,6 9.8,6 L12.2,6 C12.508,6 12.574,5.997 12.617,5.986 C12.8,5.942 12.942,5.8 12.986,5.617 C12.997,5.574 13,5.508 13,5.2 L13,2.8 C13,2.492 12.997,2.426 12.986,2.383 C12.942,2.2 12.8,2.058 12.617,2.014 C12.574,2.003 12.508,2 12.2,2 L9.8,2 C9.492,2 9.426,2.003 9.383,2.014 Z M9.383,9.014 C9.2,9.058 9.058,9.2 9.014,9.383 C9.003,9.426 9,9.492 9,9.8 L9,12.2 C9,12.508 9.003,12.574 9.014,12.617 C9.058,12.8 9.2,12.942 9.383,12.986 C9.426,12.997 9.492,13 9.8,13 L12.2,13 C12.508,13 12.574,12.997 12.617,12.986 C12.8,12.942 12.942,12.8 12.986,12.617 C12.997,12.574 13,12.508 13,12.2 L13,9.8 C13,9.492 12.997,9.426 12.986,9.383 C12.942,9.2 12.8,9.058 12.617,9.014 C12.574,9.003 12.508,9 12.2,9 L9.8,9 C9.492,9 9.426,9.003 9.383,9.014 Z"/>
</svg>

