<svg xmlns="http://www.w3.org/2000/svg" width="15" height="15" viewBox="0 0 15 15">
  <defs/>
  <path fill="currentColor" d="M1.25,2 L13.75,2 C14.44,2 15,2.56 15,3.25 L15,10.75 C15,11.44 14.44,12 13.75,12 L9.927,12 L10.17,13.299 C10.234,13.637 9.974,13.95 9.63,13.95 L5.37,13.95 C5.026,13.95 4.766,13.637 4.83,13.299 L5.073,12 L1.25,12 C0.56,12 0,11.44 0,10.75 L0,3.25 C0,2.56 0.56,2 1.25,2 Z M1,3.25 L1,10.75 C1,10.888 1.112,11 1.25,11 L13.75,11 C13.888,11 14,10.888 14,10.75 L14,3.25 C14,3.112 13.888,3 13.75,3 L1.25,3 C1.112,3 1,3.112 1,3.25 Z M9.011,12 L5.989,12 L5.792,13.05 L9.208,13.05 Z"/>
</svg>

