<svg xmlns="http://www.w3.org/2000/svg" width="15" height="15" viewBox="0 0 15 15">
  <defs/>
  <path clip-rule="evenodd" fill="currentColor" d="M5.078,1.806 C5.289,1.839 5.469,1.948 5.602,2.048 C5.741,2.153 5.871,2.283 5.982,2.414 C6.146,2.606 6.304,2.84 6.405,3.062 C6.746,3.023 7.112,3 7.5,3 C7.887,3 8.252,3.023 8.593,3.062 C8.694,2.84 8.852,2.605 9.015,2.414 C9.127,2.283 9.256,2.153 9.396,2.048 C9.528,1.948 9.709,1.839 9.92,1.806 C9.964,1.799 10.008,1.798 10.052,1.803 C10.896,1.895 12.179,2.35 12.936,2.76 C12.988,2.789 13.035,2.826 13.074,2.871 C13.39,3.232 13.676,3.821 13.899,4.374 C14.129,4.944 14.319,5.545 14.428,5.979 C14.781,7.389 14.974,9.081 15,10.686 L15,10.713 C14.998,10.789 14.978,10.865 14.943,10.933 C14.639,11.51 13.989,12.044 13.34,12.432 C12.683,12.826 11.916,13.138 11.296,13.198 C11.14,13.213 10.986,13.154 10.88,13.039 C10.724,12.87 10.461,12.478 10.263,12.175 C10.158,12.014 10.061,11.862 9.99,11.75 C9.985,11.742 9.98,11.735 9.976,11.728 C9.304,11.889 8.484,12 7.5,12 C6.515,12 5.694,11.889 5.022,11.727 C5.017,11.734 5.013,11.742 5.008,11.75 C4.937,11.862 4.839,12.014 4.734,12.175 C4.536,12.478 4.273,12.87 4.118,13.039 C4.011,13.154 3.858,13.213 3.702,13.198 C3.081,13.138 2.314,12.826 1.658,12.432 C1.009,12.044 0.359,11.51 0.055,10.933 C0.025,10.876 0.006,10.814 0,10.751 L0,10.557 C0.034,8.991 0.226,7.351 0.57,5.979 C0.678,5.545 0.869,4.944 1.099,4.374 C1.322,3.821 1.608,3.232 1.924,2.871 C1.963,2.826 2.009,2.789 2.062,2.76 C2.819,2.35 4.101,1.895 4.946,1.803 C4.99,1.798 5.034,1.799 5.078,1.806 Z M10.966,11.421 C11.008,11.486 11.054,11.556 11.101,11.628 C11.231,11.827 11.359,12.018 11.459,12.158 C11.851,12.068 12.348,11.861 12.826,11.575 C13.366,11.251 13.791,10.881 13.998,10.568 C13.965,9.065 13.779,7.505 13.458,6.221 C13.361,5.833 13.185,5.277 12.972,4.749 C12.772,4.253 12.56,3.835 12.375,3.595 C11.728,3.26 10.713,2.907 10.05,2.811 C10.036,2.819 10.019,2.83 9.999,2.846 C9.932,2.896 9.855,2.97 9.776,3.062 C9.724,3.123 9.678,3.185 9.638,3.243 C10.006,3.328 10.33,3.429 10.608,3.53 C10.975,3.663 11.261,3.798 11.458,3.9 C11.557,3.952 11.633,3.996 11.687,4.027 C11.713,4.043 11.734,4.056 11.75,4.066 L11.768,4.078 L11.774,4.082 L11.776,4.083 L11.777,4.084 L11.777,4.084 C11.777,4.084 11.775,4.087 11.515,4.478 L11.777,4.084 C12.007,4.237 12.069,4.548 11.916,4.777 C11.763,5.007 11.454,5.069 11.224,4.917 L11.224,4.917 L11.223,4.916 L11.223,4.916 L11.223,4.916 C11.223,4.916 11.223,4.916 11.5,4.5 L11.223,4.916 L11.215,4.912 C11.208,4.906 11.194,4.898 11.175,4.887 C11.137,4.864 11.076,4.829 10.995,4.787 C10.833,4.702 10.588,4.587 10.267,4.47 C9.625,4.236 8.683,4 7.5,4 C6.317,4 5.375,4.236 4.733,4.47 C4.412,4.587 4.167,4.702 4.005,4.787 C3.924,4.829 3.864,4.864 3.825,4.887 C3.806,4.898 3.792,4.906 3.784,4.912 L3.777,4.916 L3.777,4.916 C3.547,5.069 3.237,5.007 3.084,4.777 C2.931,4.548 2.993,4.237 3.223,4.084 L3.5,4.5 C3.223,4.085 3.223,4.084 3.223,4.084 L3.223,4.084 L3.224,4.083 L3.226,4.082 L3.232,4.078 L3.25,4.066 C3.266,4.056 3.287,4.043 3.313,4.027 C3.367,3.996 3.444,3.952 3.542,3.9 C3.739,3.798 4.025,3.663 4.392,3.53 C4.669,3.429 4.993,3.329 5.359,3.243 C5.32,3.185 5.273,3.124 5.221,3.062 C5.143,2.97 5.065,2.896 4.999,2.846 C4.978,2.83 4.961,2.819 4.948,2.811 C4.284,2.907 3.27,3.26 2.623,3.595 C2.438,3.835 2.226,4.253 2.026,4.749 C1.813,5.277 1.637,5.833 1.54,6.221 C1.219,7.505 1.033,9.065 1,10.568 C1.207,10.881 1.632,11.251 2.172,11.575 C2.65,11.861 3.146,12.068 3.538,12.158 C3.639,12.018 3.767,11.827 3.897,11.628 C3.944,11.556 3.99,11.486 4.032,11.42 C3.937,11.383 3.846,11.345 3.761,11.308 C3.36,11.131 3.066,10.952 2.867,10.812 C2.768,10.743 2.692,10.682 2.639,10.638 C2.613,10.615 2.592,10.597 2.576,10.582 C2.569,10.575 2.562,10.569 2.557,10.564 L2.551,10.558 L2.548,10.556 L2.547,10.555 L2.547,10.554 C2.547,10.554 2.549,10.551 2.9,10.2 L2.546,10.554 C2.351,10.358 2.351,10.042 2.546,9.847 C2.741,9.652 3.055,9.651 3.25,9.844 L3.254,9.847 C3.26,9.852 3.27,9.861 3.285,9.874 C3.316,9.901 3.368,9.942 3.442,9.994 C3.59,10.098 3.827,10.244 4.164,10.393 C4.837,10.689 5.918,11 7.5,11 C9.082,11 10.163,10.689 10.836,10.393 C11.173,10.244 11.41,10.098 11.558,9.994 C11.632,9.942 11.684,9.901 11.715,9.874 C11.73,9.861 11.741,9.852 11.746,9.847 L11.75,9.844 C11.945,9.651 12.259,9.652 12.454,9.847 C12.649,10.042 12.649,10.358 12.454,10.554 L12.105,10.205 C12.45,10.55 12.453,10.554 12.453,10.554 L12.453,10.555 L12.452,10.556 L12.449,10.558 L12.443,10.564 C12.438,10.569 12.431,10.575 12.424,10.582 C12.408,10.597 12.387,10.615 12.361,10.638 C12.308,10.682 12.232,10.743 12.133,10.812 C11.934,10.952 11.64,11.131 11.239,11.308 C11.153,11.346 11.062,11.384 10.966,11.421 Z M9.999,6.6 C10.344,6.602 10.675,6.75 10.918,7.012 C11.162,7.275 11.299,7.63 11.299,8 C11.299,8.37 11.162,8.725 10.918,8.988 C10.675,9.25 10.344,9.398 9.999,9.4 C9.654,9.398 9.323,9.25 9.079,8.988 C8.836,8.725 8.699,8.37 8.699,8 C8.699,7.63 8.836,7.275 9.079,7.012 C9.323,6.75 9.654,6.602 9.999,6.6 Z M4.08,7.012 C4.324,6.75 4.655,6.602 5,6.6 C5.345,6.602 5.676,6.75 5.92,7.012 C6.163,7.275 6.3,7.63 6.3,8 C6.3,8.37 6.163,8.725 5.92,8.988 C5.676,9.25 5.345,9.398 5,9.4 C4.655,9.398 4.324,9.25 4.08,8.988 C3.837,8.725 3.7,8.37 3.7,8 C3.7,7.63 3.837,7.275 4.08,7.012 Z"/>
</svg>

