<svg xmlns="http://www.w3.org/2000/svg" width="15" height="15" viewBox="0 0 15 15">
  <defs/>
  <path fill="currentColor" d="M7.5,0.877 C11.158,0.877 14.123,3.842 14.123,7.5 C14.123,11.158 11.158,14.123 7.5,14.123 C3.842,14.123 0.877,11.158 0.877,7.5 C0.877,3.842 3.842,0.877 7.5,0.877 Z M1.827,7.5 C1.827,10.633 4.367,13.173 7.5,13.173 C10.633,13.173 13.173,10.633 13.173,7.5 C13.173,4.367 10.633,1.827 7.5,1.827 C4.367,1.827 1.827,4.367 1.827,7.5 Z M9.323,7.5 C9.323,8.507 8.507,9.323 7.5,9.323 C6.494,9.323 5.678,8.507 5.678,7.5 C5.678,6.493 6.494,5.677 7.5,5.677 C8.507,5.677 9.323,6.493 9.323,7.5 Z M8.373,7.5 C8.373,7.018 7.982,6.627 7.5,6.627 C7.018,6.627 6.628,7.018 6.628,7.5 C6.628,7.982 7.018,8.373 7.5,8.373 C7.982,8.373 8.373,7.982 8.373,7.5 Z"/>
</svg>

