<svg xmlns="http://www.w3.org/2000/svg" width="15" height="15" viewBox="0 0 15 15">
  <defs/>
  <path fill="currentColor" d="M12.854,3.854 L9.207,7.5 L12.854,11.146 C13.049,11.342 13.049,11.658 12.854,11.854 C12.658,12.049 12.342,12.049 12.146,11.854 L8.146,7.854 C7.951,7.658 7.951,7.342 8.146,7.146 L12.146,3.146 C12.342,2.951 12.658,2.951 12.854,3.146 C13.049,3.342 13.049,3.658 12.854,3.854 Z M6.854,3.854 L3.207,7.5 L6.854,11.146 C7.049,11.342 7.049,11.658 6.854,11.854 C6.658,12.049 6.342,12.049 6.146,11.854 L2.146,7.854 C1.951,7.658 1.951,7.342 2.146,7.146 L6.146,3.146 C6.342,2.951 6.658,2.951 6.854,3.146 C7.049,3.342 7.049,3.658 6.854,3.854 Z"/>
</svg>

