<svg xmlns="http://www.w3.org/2000/svg" width="15" height="15" viewBox="0 0 15 15">
  <defs/>
  <path fill="currentColor" d="M8.146,11.146 L11.793,7.5 L8.146,3.854 C7.951,3.658 7.951,3.342 8.146,3.146 C8.342,2.951 8.658,2.951 8.854,3.146 L12.854,7.146 C13.049,7.342 13.049,7.658 12.854,7.854 L8.854,11.854 C8.658,12.049 8.342,12.049 8.146,11.854 C7.951,11.658 7.951,11.342 8.146,11.146 Z M2.146,11.146 L5.793,7.5 L2.146,3.854 C1.951,3.658 1.951,3.342 2.146,3.146 C2.342,2.951 2.658,2.951 2.854,3.146 L6.854,7.146 C7.049,7.342 7.049,7.658 6.854,7.854 L2.854,11.854 C2.658,12.049 2.342,12.049 2.146,11.854 C1.951,11.658 1.951,11.342 2.146,11.146 Z"/>
</svg>

