<svg xmlns="http://www.w3.org/2000/svg" width="15" height="15" viewBox="0 0 15 15">
  <defs/>
  <path fill="currentColor" d="M4.1,12.5 L4.1,2.5 C4.1,2.279 4.279,2.1 4.5,2.1 C4.721,2.1 4.9,2.279 4.9,2.5 L4.9,12.5 C4.9,12.721 4.721,12.9 4.5,12.9 C4.279,12.9 4.1,12.721 4.1,12.5 Z M6.1,12.5 L6.1,2.5 C6.1,2.279 6.279,2.1 6.5,2.1 C6.721,2.1 6.9,2.279 6.9,2.5 L6.9,12.5 C6.9,12.721 6.721,12.9 6.5,12.9 C6.279,12.9 6.1,12.721 6.1,12.5 Z M8.5,12.9 C8.279,12.9 8.1,12.721 8.1,12.5 L8.1,2.5 C8.1,2.279 8.279,2.1 8.5,2.1 C8.721,2.1 8.9,2.279 8.9,2.5 L8.9,12.5 C8.9,12.721 8.721,12.9 8.5,12.9 Z M10.1,12.5 L10.1,2.5 C10.1,2.279 10.279,2.1 10.5,2.1 C10.721,2.1 10.9,2.279 10.9,2.5 L10.9,12.5 C10.9,12.721 10.721,12.9 10.5,12.9 C10.279,12.9 10.1,12.721 10.1,12.5 Z"/>
</svg>

