<svg xmlns="http://www.w3.org/2000/svg" width="15" height="15" viewBox="0 0 15 15">
  <defs/>
  <path fill="currentColor" d="M10.328,1.136 L11.389,2.197 L12.803,3.611 L13.864,4.672 C14.059,4.867 14.059,5.183 13.864,5.379 C13.669,5.574 13.352,5.574 13.157,5.379 L12.504,4.726 L8.867,9.574 L9.975,10.682 C10.17,10.877 10.17,11.194 9.975,11.389 C9.78,11.584 9.463,11.584 9.268,11.389 L7.854,9.975 L6.793,8.914 L3.523,12.185 C3.327,12.38 3.011,12.38 2.815,12.185 C2.62,11.989 2.62,11.673 2.815,11.477 L6.086,8.207 L5.025,7.146 L3.611,5.732 C3.416,5.537 3.416,5.22 3.611,5.025 C3.806,4.83 4.123,4.83 4.318,5.025 L5.426,6.133 L10.274,2.496 L9.621,1.843 C9.426,1.648 9.426,1.331 9.621,1.136 C9.817,0.941 10.133,0.941 10.328,1.136 Z M6.14,6.847 L8.153,8.86 L11.79,4.011 L10.989,3.21 Z"/>
</svg>

