<svg xmlns="http://www.w3.org/2000/svg" width="15" height="15" viewBox="0 0 15 15">
  <defs/>
  <path fill="currentColor" d="M2.5,9.25 L0,6 L5,6 Z M7.5,5.1 L14.5,5.1 C14.721,5.1 14.9,5.279 14.9,5.5 C14.9,5.721 14.721,5.9 14.5,5.9 L7.5,5.9 C7.279,5.9 7.1,5.721 7.1,5.5 C7.1,5.279 7.279,5.1 7.5,5.1 Z M7.5,3.1 L14.5,3.1 C14.721,3.1 14.9,3.279 14.9,3.5 C14.9,3.721 14.721,3.9 14.5,3.9 L7.5,3.9 C7.279,3.9 7.1,3.721 7.1,3.5 C7.1,3.279 7.279,3.1 7.5,3.1 Z M7.5,9.1 L14.5,9.1 C14.721,9.1 14.9,9.279 14.9,9.5 C14.9,9.721 14.721,9.9 14.5,9.9 L7.5,9.9 C7.279,9.9 7.1,9.721 7.1,9.5 C7.1,9.279 7.279,9.1 7.5,9.1 Z M7.1,11.5 C7.1,11.279 7.279,11.1 7.5,11.1 L14.5,11.1 C14.721,11.1 14.9,11.279 14.9,11.5 C14.9,11.721 14.721,11.9 14.5,11.9 L7.5,11.9 C7.279,11.9 7.1,11.721 7.1,11.5 Z M7.1,7.5 C7.1,7.279 7.279,7.1 7.5,7.1 L14.5,7.1 C14.721,7.1 14.9,7.279 14.9,7.5 C14.9,7.721 14.721,7.9 14.5,7.9 L7.5,7.9 C7.279,7.9 7.1,7.721 7.1,7.5 Z"/>
</svg>

