<svg xmlns="http://www.w3.org/2000/svg" width="15" height="15" viewBox="0 0 15 15">
  <defs/>
  <path fill="currentColor" d="M4.5,1 L12,1 C12.552,1 13,1.448 13,2 L13,13 C13,13.552 12.552,14 12,14 L4.5,14 C4.224,14 4,13.776 4,13.5 C4,13.224 4.224,13 4.5,13 L12,13 L12,2 L4.5,2 C4.224,2 4,1.776 4,1.5 C4,1.224 4.224,1 4.5,1 Z M6.604,4.896 L8.854,7.146 C9.049,7.342 9.049,7.658 8.854,7.854 L6.604,10.104 C6.408,10.299 6.092,10.299 5.896,10.104 C5.701,9.908 5.701,9.592 5.896,9.396 L7.293,8 L0.5,8 C0.224,8 0,7.776 0,7.5 C0,7.224 0.224,7 0.5,7 L7.293,7 L5.896,5.604 C5.701,5.408 5.701,5.092 5.896,4.896 C6.092,4.701 6.408,4.701 6.604,4.896 Z"/>
</svg>

