<svg xmlns="http://www.w3.org/2000/svg" width="15" height="15" viewBox="0 0 15 15">
  <defs/>
  <path fill="currentColor" d="M2,2.5 C2,2.224 2.224,2 2.5,2 L5.5,2 C5.776,2 6,2.224 6,2.5 C6,2.776 5.776,3 5.5,3 L3,3 L3,5.5 C3,5.776 2.776,6 2.5,6 C2.224,6 2,5.776 2,5.5 Z M2.5,9 C2.776,9 3,9.224 3,9.5 L3,12 L5.5,12 C5.776,12 6,12.224 6,12.5 C6,12.776 5.776,13 5.5,13 L2.5,13 C2.224,13 2,12.776 2,12.5 L2,9.5 C2,9.224 2.224,9 2.5,9 Z M9,2.5 C9,2.224 9.224,2 9.5,2 L12.5,2 C12.776,2 13,2.224 13,2.5 L13,5.5 C13,5.776 12.776,6 12.5,6 C12.224,6 12,5.776 12,5.5 L12,3 L9.5,3 C9.224,3 9,2.776 9,2.5 Z M12.5,9 C12.776,9 13,9.224 13,9.5 L13,12.5 C13,12.776 12.776,13 12.5,13 L9.5,13 C9.224,13 9,12.776 9,12.5 C9,12.224 9.224,12 9.5,12 L12,12 L12,9.5 C12,9.224 12.224,9 12.5,9 Z"/>
</svg>

