<svg xmlns="http://www.w3.org/2000/svg" width="15" height="15" viewBox="0 0 15 15">
  <defs/>
  <path fill="currentColor" d="M8.445,0.609 L14.839,11.337 C15.276,12.07 14.748,13 13.894,13 L1.106,13 C0.253,13 -0.276,12.07 0.161,11.337 L6.555,0.609 C6.982,-0.107 8.018,-0.107 8.445,0.609 Z M7.414,1.121 L1.02,11.849 C0.98,11.915 1.028,12 1.106,12 L13.894,12 C13.972,12 14.02,11.915 13.98,11.849 L7.586,1.121 C7.547,1.056 7.453,1.056 7.414,1.121 Z M6.827,4.486 C6.812,4.104 7.118,3.787 7.5,3.787 C7.882,3.787 8.188,4.104 8.173,4.486 L8.019,8.487 C8.008,8.766 7.779,8.987 7.5,8.987 C7.221,8.987 6.992,8.766 6.981,8.487 Z M8.25,10.476 C8.25,10.89 7.914,11.226 7.5,11.226 C7.086,11.226 6.75,10.89 6.75,10.476 C6.75,10.062 7.086,9.726 7.5,9.726 C7.914,9.726 8.25,10.062 8.25,10.476 Z"/>
</svg>

