<svg xmlns="http://www.w3.org/2000/svg" width="15" height="15" viewBox="0 0 15 15">
  <defs/>
  <path fill="currentColor" d="M3,1 L10.5,1 C10.776,1 11,1.224 11,1.5 C11,1.776 10.776,2 10.5,2 L3,2 L3,13 L10.5,13 C10.776,13 11,13.224 11,13.5 C11,13.776 10.776,14 10.5,14 L3,14 C2.448,14 2,13.552 2,13 L2,2 C2,1.448 2.448,1 3,1 Z M12.604,4.896 L14.854,7.146 C15.049,7.342 15.049,7.658 14.854,7.854 L12.604,10.104 C12.408,10.299 12.092,10.299 11.896,10.104 C11.701,9.908 11.701,9.592 11.896,9.396 L13.293,8 L6.5,8 C6.224,8 6,7.776 6,7.5 C6,7.224 6.224,7 6.5,7 L13.293,7 L11.896,5.604 C11.701,5.408 11.701,5.092 11.896,4.896 C12.092,4.701 12.408,4.701 12.604,4.896 Z"/>
</svg>

