<svg xmlns="http://www.w3.org/2000/svg" width="15" height="15" viewBox="0 0 15 15">
  <defs/>
  <path fill="currentColor" d="M3,2 L6.5,2 C6.776,2 7,2.224 7,2.5 C7,2.776 6.776,3 6.5,3 L3,3 L3,12 L12,12 L12,8.5 C12,8.224 12.224,8 12.5,8 C12.776,8 13,8.224 13,8.5 L13,12 C13,12.552 12.552,13 12,13 L3,13 C2.448,13 2,12.552 2,12 L2,3 C2,2.448 2.448,2 3,2 Z M12.854,2.146 C12.901,2.194 12.938,2.25 12.962,2.309 C12.986,2.367 13,2.43 13,2.497 L13,5.5 C13,5.776 12.776,6 12.5,6 C12.224,6 12,5.776 12,5.5 L12,3.707 L6.854,8.854 C6.658,9.049 6.342,9.049 6.146,8.854 C5.951,8.658 5.951,8.342 6.146,8.146 L11.293,3 L9.5,3 C9.224,3 9,2.776 9,2.5 C9,2.224 9.224,2 9.5,2 L12.5,2 C12.568,2 12.632,2.013 12.691,2.038 C12.75,2.062 12.806,2.099 12.854,2.146 Z"/>
</svg>

