<svg xmlns="http://www.w3.org/2000/svg" width="15" height="15" viewBox="0 0 15 15">
  <defs/>
  <path fill="currentColor" d="M7.5,3 C10.692,3 13.344,4.706 14.924,7.235 C15.025,7.397 15.025,7.603 14.924,7.765 C13.344,10.294 10.692,12 7.5,12 C4.308,12 1.656,10.294 0.076,7.765 C-0.025,7.603 -0.025,7.397 0.076,7.235 C1.656,4.706 4.308,3 7.5,3 Z M7.5,11 C10.197,11 12.47,9.622 13.904,7.5 C12.47,5.378 10.197,4 7.5,4 C4.803,4 2.53,5.378 1.096,7.5 C2.53,9.622 4.803,11 7.5,11 Z M7.5,9.5 C6.395,9.5 5.5,8.605 5.5,7.5 C5.5,6.395 6.395,5.5 7.5,5.5 C8.605,5.5 9.5,6.395 9.5,7.5 C9.5,8.605 8.605,9.5 7.5,9.5 Z"/>
</svg>

