<svg xmlns="http://www.w3.org/2000/svg" width="15" height="15" viewBox="0 0 15 15">
  <defs/>
  <path fill="currentColor" d="M13.354,2.354 L11.639,4.068 C12.977,4.814 14.097,5.912 14.924,7.235 C15.025,7.397 15.025,7.603 14.924,7.765 C13.344,10.294 10.692,12 7.5,12 C6.362,12 5.293,11.783 4.317,11.39 L2.354,13.354 C2.158,13.549 1.842,13.549 1.646,13.354 C1.451,13.158 1.451,12.842 1.646,12.646 L3.361,10.932 C2.023,10.186 0.903,9.088 0.076,7.765 C-0.025,7.603 -0.025,7.397 0.076,7.235 C1.656,4.706 4.308,3 7.5,3 C8.638,3 9.707,3.217 10.683,3.61 L12.646,1.646 C12.842,1.451 13.158,1.451 13.354,1.646 C13.549,1.842 13.549,2.158 13.354,2.354 Z M5.096,10.611 C5.847,10.864 6.652,11 7.5,11 C10.197,11 12.47,9.622 13.904,7.5 C13.127,6.35 12.104,5.419 10.9,4.807 Z M9.904,4.389 C9.153,4.136 8.348,4 7.5,4 C4.803,4 2.53,5.378 1.096,7.5 C1.873,8.65 2.896,9.581 4.1,10.193 Z"/>
</svg>

