<svg xmlns="http://www.w3.org/2000/svg" width="15" height="15" viewBox="0 0 15 15">
  <defs/>
  <path fill="currentColor" d="M14.765,6.076 C14.999,6.222 15.07,6.531 14.924,6.765 C14.485,7.467 13.963,8.106 13.37,8.663 L14.571,9.864 C14.766,10.059 14.766,10.376 14.571,10.571 C14.376,10.766 14.059,10.766 13.864,10.571 L12.601,9.308 C11.805,9.903 10.909,10.362 9.934,10.651 L10.383,12.328 C10.454,12.594 10.296,12.868 10.029,12.94 C9.763,13.012 9.488,12.853 9.417,12.587 L8.959,10.877 C8.487,10.958 8,11 7.5,11 C7,11 6.513,10.958 6.041,10.877 L5.583,12.586 C5.512,12.853 5.237,13.012 4.971,12.94 C4.704,12.869 4.546,12.594 4.617,12.328 L5.066,10.651 C4.091,10.362 3.195,9.903 2.399,9.308 L1.136,10.571 C0.941,10.766 0.624,10.766 0.429,10.571 C0.234,10.376 0.234,10.059 0.429,9.864 L1.63,8.663 C1.037,8.106 0.515,7.467 0.076,6.765 C-0.07,6.531 0.001,6.222 0.235,6.076 C0.469,5.93 0.778,6.001 0.924,6.235 C1.404,7.002 1.989,7.681 2.662,8.243 C2.673,8.251 2.684,8.26 2.694,8.269 C4.009,9.355 5.655,10 7.5,10 C10.308,10 12.656,8.506 14.076,6.235 C14.222,6.001 14.531,5.93 14.765,6.076 Z"/>
</svg>

