<svg xmlns="http://www.w3.org/2000/svg" width="15" height="15" viewBox="0 0 15 15">
  <defs/>
  <path fill="currentColor" d="M7.5,0.877 C11.158,0.877 14.123,3.842 14.123,7.5 C14.123,11.157 11.158,14.123 7.5,14.123 C3.842,14.123 0.877,11.157 0.877,7.5 C0.877,3.842 3.842,0.877 7.5,0.877 Z M1.827,7.5 C1.827,10.633 4.367,13.173 7.5,13.173 C10.633,13.173 13.173,10.633 13.173,7.5 C13.173,4.367 10.633,1.827 7.5,1.827 C4.367,1.827 1.827,4.367 1.827,7.5 Z M5.037,9.214 C5.58,9.992 6.481,10.5 7.5,10.5 C8.519,10.5 9.42,9.992 9.963,9.214 C10.121,8.987 10.432,8.932 10.659,9.09 C10.885,9.248 10.941,9.56 10.783,9.786 C10.061,10.821 8.86,11.5 7.5,11.5 C6.14,11.5 4.939,10.821 4.217,9.786 C4.059,9.56 4.115,9.248 4.341,9.09 C4.568,8.932 4.879,8.987 5.037,9.214 Z M5.375,6.85 C4.892,6.85 4.5,6.458 4.5,5.975 C4.5,5.492 4.892,5.1 5.375,5.1 C5.858,5.1 6.25,5.492 6.25,5.975 C6.25,6.458 5.858,6.85 5.375,6.85 Z M10.5,5.975 C10.5,6.458 10.108,6.85 9.625,6.85 C9.142,6.85 8.75,6.458 8.75,5.975 C8.75,5.492 9.142,5.1 9.625,5.1 C10.108,5.1 10.5,5.492 10.5,5.975 Z"/>
</svg>

