<svg xmlns="http://www.w3.org/2000/svg" width="15" height="15" viewBox="0 0 15 15">
  <defs/>
  <path fill="currentColor" d="M8,1.05 L9.475,1.05 C10.842,1.05 11.95,2.158 11.95,3.525 C11.95,4.332 11.564,5.048 10.967,5.5 C11.564,5.952 11.95,6.668 11.95,7.475 C11.95,8.842 10.842,9.95 9.475,9.95 C8.922,9.95 8.412,9.769 8,9.463 L8,11.425 C8,12.792 6.892,13.9 5.525,13.9 C4.158,13.9 3.05,12.792 3.05,11.425 C3.05,10.618 3.436,9.902 4.033,9.45 C3.436,8.998 3.05,8.282 3.05,7.475 C3.05,6.668 3.436,5.952 4.033,5.5 C3.436,5.048 3.05,4.332 3.05,3.525 C3.05,2.158 4.158,1.05 5.525,1.05 L8,1.05 Z M7,2.05 L5.525,2.05 C4.71,2.05 4.05,2.71 4.05,3.525 C4.05,4.34 4.71,5 5.525,5 L7,5 Z M5.525,8.95 L7,8.95 L7,6 L5.525,6 C4.71,6 4.05,6.66 4.05,7.475 C4.05,8.288 4.707,8.947 5.519,8.95 Z M8,2.05 L8,5 L9.475,5 C10.29,5 10.95,4.34 10.95,3.525 C10.95,2.71 10.29,2.05 9.475,2.05 Z M4.05,11.425 C4.05,12.24 4.71,12.9 5.525,12.9 C6.34,12.9 7,12.24 7,11.425 L7,9.95 L5.525,9.95 L5.519,9.95 C4.707,9.953 4.05,10.612 4.05,11.425 Z M8,7.472 L8,7.478 C8.002,8.291 8.661,8.95 9.475,8.95 C10.29,8.95 10.95,8.29 10.95,7.475 C10.95,6.66 10.29,6 9.475,6 C8.661,6 8.002,6.659 8,7.472 Z"/>
</svg>

