<svg xmlns="http://www.w3.org/2000/svg" width="15" height="15" viewBox="0 0 15 15">
  <defs/>
  <path fill="currentColor" d="M2,2.5 C2,1.672 2.672,1 3.5,1 L9.5,1 C9.633,1 9.76,1.053 9.854,1.146 L12.78,4.073 C12.921,4.214 13,4.405 13,4.604 L13,12.5 C13,13.328 12.328,14 11.5,14 L3.5,14 C2.672,14 2,13.328 2,12.5 Z M3.5,2 C3.224,2 3,2.224 3,2.5 L3,12.5 C3,12.776 3.224,13 3.5,13 L11.5,13 C11.776,13 12,12.776 12,12.5 L12,4.707 L9.293,2 Z M4.75,7.5 C4.75,7.224 4.974,7 5.25,7 L7,7 L7,5.25 C7,4.974 7.224,4.75 7.5,4.75 C7.776,4.75 8,4.974 8,5.25 L8,7 L9.75,7 C10.026,7 10.25,7.224 10.25,7.5 C10.25,7.776 10.026,8 9.75,8 L8,8 L8,9.75 C8,10.026 7.776,10.25 7.5,10.25 C7.224,10.25 7,10.026 7,9.75 L7,8 L5.25,8 C4.974,8 4.75,7.776 4.75,7.5 Z"/>
</svg>

