<svg xmlns="http://www.w3.org/2000/svg" width="15" height="15" viewBox="0 0 15 15">
  <defs/>
  <path fill="currentColor" d="M3.5,1 L9.086,1 C9.484,1 9.865,1.158 10.146,1.439 L12.561,3.854 C12.842,4.135 13,4.516 13,4.914 L13,12.5 C13,13.328 12.328,14 11.5,14 L3.5,14 C2.672,14 2,13.328 2,12.5 L2,2.5 C2,1.672 2.672,1 3.5,1 Z M3,2.5 L3,12.5 C3,12.776 3.224,13 3.5,13 L11.5,13 C11.776,13 12,12.776 12,12.5 L12,4.914 C12,4.782 11.947,4.654 11.854,4.561 L9.439,2.146 C9.346,2.053 9.218,2 9.086,2 L3.5,2 C3.224,2 3,2.224 3,2.5 Z M4.5,7 L10.5,7 C10.776,7 11,7.224 11,7.5 C11,7.776 10.776,8 10.5,8 L4.5,8 C4.224,8 4,7.776 4,7.5 C4,7.224 4.224,7 4.5,7 Z M4.5,10 L10.5,10 C10.776,10 11,10.224 11,10.5 C11,10.776 10.776,11 10.5,11 L4.5,11 C4.224,11 4,10.776 4,10.5 C4,10.224 4.224,10 4.5,10 Z M4.5,4 L7.5,4 C7.776,4 8,4.224 8,4.5 C8,4.776 7.776,5 7.5,5 L4.5,5 C4.224,5 4,4.776 4,4.5 C4,4.224 4.224,4 4.5,4 Z"/>
</svg>

