<svg xmlns="http://www.w3.org/2000/svg" width="15" height="15" viewBox="0 0 15 15">
  <defs/>
  <path fill="currentColor" d="M10.5,2.75 C10.711,2.75 10.899,2.882 10.97,3.08 L13.97,11.4 C14.064,11.66 13.929,11.946 13.67,12.04 C13.41,12.134 13.123,11.999 13.03,11.739 L12.048,9.016 L8.952,9.016 L7.97,11.739 C7.877,11.999 7.59,12.134 7.33,12.04 C7.071,11.946 6.936,11.66 7.03,11.4 L10.03,3.08 C10.101,2.882 10.289,2.75 10.5,2.75 Z M2.782,2.217 L4.782,4.217 C4.939,4.373 4.939,4.627 4.782,4.783 C4.626,4.939 4.373,4.939 4.217,4.783 L2.899,3.466 L2.899,11.534 L4.217,10.217 C4.373,10.061 4.626,10.061 4.782,10.217 C4.939,10.373 4.939,10.627 4.782,10.783 L2.782,12.783 C2.707,12.858 2.606,12.9 2.499,12.9 C2.393,12.9 2.292,12.858 2.217,12.783 L0.217,10.783 C0.06,10.627 0.06,10.373 0.217,10.217 C0.373,10.061 0.626,10.061 0.782,10.217 L2.099,11.534 L2.099,3.466 L0.782,4.783 C0.626,4.939 0.373,4.939 0.217,4.783 C0.06,4.627 0.06,4.373 0.217,4.217 L2.217,2.217 C2.292,2.142 2.393,2.1 2.499,2.1 C2.606,2.1 2.707,2.142 2.782,2.217 Z M10.5,4.724 L9.259,8.166 L11.741,8.166 Z"/>
</svg>

