<svg xmlns="http://www.w3.org/2000/svg" width="15" height="15" viewBox="0 0 15 15">
  <defs/>
  <path fill="currentColor" d="M4.8,3.5 C4.8,3.252 5.001,3.05 5.25,3.05 L9.75,3.05 C9.998,3.05 10.2,3.252 10.2,3.5 C10.2,3.749 9.998,3.95 9.75,3.95 L8.1,3.95 L8.1,11.05 L9.75,11.05 C9.998,11.05 10.2,11.252 10.2,11.5 C10.2,11.749 9.998,11.95 9.75,11.95 L5.25,11.95 C5.001,11.95 4.8,11.749 4.8,11.5 C4.8,11.252 5.001,11.05 5.25,11.05 L6.9,11.05 L6.9,3.95 L5.25,3.95 C5.001,3.95 4.8,3.749 4.8,3.5 Z"/>
</svg>

