<svg xmlns="http://www.w3.org/2000/svg" width="15" height="15" viewBox="0 0 15 15">
  <defs/>
  <path fill="currentColor" d="M1.038,9.981 C0.935,9.658 1.116,9.377 1.4,9.249 C1.684,9.12 2.095,9.134 2.271,9.454 C2.854,10.515 3.646,10.728 4.487,10.728 C5.527,10.728 6.297,10.262 6.297,9.454 C6.297,8.805 5.912,8.464 4.871,8.143 L4.159,7.922 C2.645,7.449 1.888,6.692 1.888,5.456 C1.888,3.797 3.276,2.688 5.243,2.688 C6.917,2.688 7.974,3.335 8.438,4.311 C8.571,4.589 8.576,4.913 8.228,5.191 C7.88,5.469 7.524,5.348 7.233,5.038 C6.472,4.227 5.995,4.05 5.256,4.05 C4.14,4.05 3.547,4.636 3.547,5.279 C3.547,5.866 3.963,6.232 4.947,6.534 L5.679,6.761 C7.23,7.234 7.974,7.96 7.974,9.17 C7.974,10.772 6.694,12.09 4.461,12.09 C2.866,12.09 1.4,11.113 1.038,9.981 Z M11.849,8.78 C10.661,8.395 10.165,7.861 10.165,6.988 C10.165,5.867 11.164,5.046 12.613,5.046 C13.855,5.046 14.663,5.633 14.978,6.635 C15.044,6.846 14.959,6.98 14.748,7.049 C14.539,7.117 14.318,7.1 14.238,6.896 C13.936,6.123 13.352,5.763 12.6,5.763 C11.647,5.763 11.014,6.252 11.014,6.916 C11.014,7.451 11.346,7.75 12.247,8.044 L12.835,8.233 C14.062,8.63 14.552,9.138 14.552,10.018 C14.552,11.197 13.481,12.044 11.993,12.044 C10.644,12.044 9.656,11.281 9.42,10.336 C9.365,10.119 9.412,10.029 9.7,9.962 C9.989,9.895 10.071,9.899 10.172,10.137 C10.455,10.811 11.153,11.328 12.032,11.328 C12.991,11.328 13.683,10.78 13.683,10.063 C13.683,9.536 13.396,9.288 12.437,8.975 Z"/>
</svg>

