<svg xmlns="http://www.w3.org/2000/svg" width="15" height="15" viewBox="0 0 15 15">
  <defs/>
  <path fill="currentColor" d="M2.5,4.5 C2.5,3.099 3.599,2 5,2 L12.499,2 C12.775,2 13,2.224 13,2.5 C13,2.776 12.776,3 12.5,3 L8.692,3 L8.405,3.855 C8.189,4.498 7.894,5.372 7.581,6.298 C7.503,6.53 7.423,6.765 7.343,7 L8.5,7 C8.776,7 9,7.224 9,7.5 C9,7.776 8.776,8 8.5,8 L7.004,8 C6.567,9.285 6.164,10.461 5.958,11.039 C5.636,11.939 5.207,12.486 4.667,12.778 C4.163,13.051 3.642,13.05 3.284,13.05 L3.25,13.05 C2.946,13.05 2.7,12.804 2.7,12.5 C2.7,12.196 2.946,11.95 3.25,11.95 C3.642,11.95 3.904,11.941 4.144,11.81 C4.364,11.691 4.655,11.415 4.922,10.668 C5.107,10.151 5.454,9.141 5.842,8 L4.5,8 C4.224,8 4,7.776 4,7.5 C4,7.224 4.224,7 4.5,7 L6.182,7 C6.301,6.648 6.421,6.293 6.539,5.946 C6.852,5.02 7.146,4.146 7.363,3.504 L7.532,3 L5,3 C4.151,3 3.5,3.651 3.5,4.5 C3.5,4.776 3.276,5 3,5 C2.724,5 2.5,4.776 2.5,4.5 Z"/>
</svg>

