<svg xmlns="http://www.w3.org/2000/svg" width="15" height="15" viewBox="0 0 15 15">
  <defs/>
  <path fill="currentColor" d="M11,1.5 L11,4 L13.5,4 C13.776,4 14,4.224 14,4.5 C14,4.776 13.776,5 13.5,5 L11,5 L11,10 L13.5,10 C13.776,10 14,10.224 14,10.5 C14,10.776 13.776,11 13.5,11 L11,11 L11,13.5 C11,13.776 10.776,14 10.5,14 C10.224,14 10,13.776 10,13.5 L10,11 L5,11 L5,13.5 C5,13.776 4.776,14 4.5,14 C4.224,14 4,13.776 4,13.5 L4,11 L1.5,11 C1.224,11 1,10.776 1,10.5 C1,10.224 1.224,10 1.5,10 L4,10 L4,5 L1.5,5 C1.224,5 1,4.776 1,4.5 C1,4.224 1.224,4 1.5,4 L4,4 L4,1.5 C4,1.224 4.224,1 4.5,1 C4.776,1 5,1.224 5,1.5 L5,4 L10,4 L10,1.5 C10,1.224 10.224,1 10.5,1 C10.776,1 11,1.224 11,1.5 Z M10,10 L10,5 L5,5 L5,10 Z"/>
</svg>

