<svg xmlns="http://www.w3.org/2000/svg" width="15" height="15" viewBox="0 0 15 15">
  <defs/>
  <path fill="currentColor" d="M3.382,1.296 C3.462,1.114 3.642,0.997 3.84,0.997 L11.5,0.997 C11.776,0.997 12,1.221 12,1.497 L12,5.5 C12,5.776 11.776,6 11.5,6 L8.635,6 L11.529,9.162 C11.663,9.309 11.697,9.52 11.618,9.702 C11.538,9.883 11.358,10 11.16,10 L8,10 L8,13.5 C8,13.702 7.878,13.884 7.691,13.962 C7.504,14.039 7.289,13.997 7.146,13.854 L3.146,9.854 C3.053,9.76 3,9.633 3,9.5 L3,5.5 C3,5.224 3.224,5 3.5,5 L6.365,5 L3.471,1.835 C3.337,1.688 3.303,1.477 3.382,1.296 Z M7.72,5 L11,5 L11,1.997 L4.975,1.997 Z M7.28,6 L4,6 L4,9 L10.025,9 Z M4.707,10 L7,12.293 L7,10 Z"/>
</svg>

