<svg xmlns="http://www.w3.org/2000/svg" width="15" height="15" viewBox="0 0 15 15">
  <defs/>
  <path fill="currentColor" d="M7.499,0.25 C11.504,0.25 14.75,3.496 14.75,7.5 C14.75,10.703 12.675,13.418 9.796,14.379 C9.428,14.45 9.297,14.224 9.297,14.03 C9.297,13.792 9.306,13.01 9.306,12.041 C9.306,11.365 9.074,10.922 8.815,10.698 C10.429,10.519 12.125,9.906 12.125,7.121 C12.125,6.329 11.844,5.683 11.38,5.176 C11.454,4.992 11.703,4.255 11.307,3.257 C11.307,3.257 10.699,3.062 9.315,4 C8.736,3.839 8.116,3.759 7.5,3.756 C6.884,3.759 6.263,3.839 5.685,4 C4.3,3.062 3.692,3.257 3.692,3.257 C3.297,4.255 3.546,4.992 3.621,5.176 C3.157,5.683 2.874,6.329 2.874,7.121 C2.874,9.899 4.567,10.521 6.177,10.704 C5.97,10.885 5.782,11.205 5.716,11.673 C5.303,11.859 4.253,12.179 3.606,11.071 C3.606,11.071 3.224,10.375 2.496,10.324 C2.496,10.324 1.788,10.315 2.446,10.764 C2.446,10.764 2.921,10.987 3.251,11.825 C3.251,11.825 3.677,13.235 5.693,12.797 C5.697,13.402 5.703,13.858 5.703,14.03 C5.703,14.222 5.571,14.446 5.208,14.38 C2.327,13.421 0.25,10.703 0.25,7.5 C0.25,3.496 3.496,0.25 7.499,0.25 Z"/>
</svg>

