<svg xmlns="http://www.w3.org/2000/svg" width="15" height="15" viewBox="0 0 15 15">
  <defs/>
  <path fill="currentColor" d="M0.9,7.5 C0.9,3.855 3.855,0.9 7.5,0.9 C11.145,0.9 14.1,3.855 14.1,7.5 C14.1,11.145 11.145,14.1 7.5,14.1 C3.855,14.1 0.9,11.145 0.9,7.5 Z M7.5,1.8 C4.352,1.8 1.8,4.352 1.8,7.5 C1.8,10.648 4.352,13.2 7.5,13.2 C10.648,13.2 13.2,10.648 13.2,7.5 C13.2,4.352 10.648,1.8 7.5,1.8 Z"/>
  <path fill="currentColor" d="M13.5,7.9 L1.5,7.9 L1.5,7.1 L13.5,7.1 L13.5,7.9 Z"/>
  <path fill="currentColor" d="M7.1,13.5 L7.1,1.5 L7.9,1.5 L7.9,13.5 Z M10.375,7.5 C10.375,5.327 9.594,3.178 8.062,1.757 L8.538,1.243 C10.24,2.822 11.075,5.173 11.075,7.5 C11.075,9.827 10.24,12.178 8.538,13.757 L8.062,13.243 C9.594,11.822 10.375,9.673 10.375,7.5 Z M4,7.5 C4,5.176 4.808,2.827 6.458,1.247 L6.942,1.753 C5.458,3.173 4.7,5.324 4.7,7.5 C4.7,9.676 5.458,11.827 6.942,13.247 L6.458,13.753 C4.808,12.173 4,9.824 4,7.5 Z"/>
  <path fill="currentColor" d="M7.5,3.958 C9.669,3.958 11.875,4.359 13.371,5.194 C13.539,5.289 13.6,5.502 13.505,5.671 C13.411,5.839 13.198,5.9 13.029,5.806 C11.679,5.052 9.608,4.658 7.5,4.658 C5.392,4.658 3.321,5.052 1.971,5.806 C1.802,5.9 1.589,5.839 1.494,5.671 C1.4,5.502 1.461,5.289 1.629,5.194 C3.125,4.359 5.331,3.958 7.5,3.958 Z M7.5,10.85 C5.331,10.85 3.125,10.449 1.629,9.613 C1.461,9.519 1.4,9.306 1.494,9.137 C1.589,8.969 1.802,8.908 1.971,9.002 C3.321,9.756 5.392,10.15 7.5,10.15 C9.608,10.15 11.679,9.756 13.029,9.002 C13.198,8.908 13.411,8.969 13.505,9.137 C13.6,9.306 13.539,9.519 13.371,9.613 C11.875,10.449 9.669,10.85 7.5,10.85 Z"/>
</svg>

