<svg xmlns="http://www.w3.org/2000/svg" width="15" height="15" viewBox="0 0 15 15">
  <defs/>
  <path fill="currentColor" d="M13.95,11.45 L13.95,13.45 C13.95,13.726 13.726,13.95 13.45,13.95 L11.45,13.95 C11.174,13.95 10.95,13.726 10.95,13.45 C10.95,13.174 11.174,12.95 11.45,12.95 L12.949,12.95 L12.95,11.45 C12.95,11.174 13.174,10.95 13.45,10.95 C13.726,10.95 13.95,11.174 13.95,11.45 Z M1.45,10.95 C1.726,10.95 1.95,11.174 1.95,11.45 L1.95,12.95 L3.45,12.95 C3.726,12.95 3.95,13.174 3.95,13.45 C3.95,13.726 3.726,13.95 3.45,13.95 L1.45,13.95 C1.174,13.95 0.95,13.726 0.95,13.45 L0.95,11.45 C0.95,11.174 1.174,10.95 1.45,10.95 Z M1.45,0.95 L3.45,0.95 C3.726,0.95 3.95,1.174 3.95,1.45 C3.95,1.726 3.726,1.95 3.45,1.95 L1.95,1.95 L1.95,3.45 C1.95,3.726 1.726,3.95 1.45,3.95 C1.174,3.95 0.95,3.726 0.95,3.45 L0.95,1.45 C0.95,1.317 1.003,1.19 1.096,1.096 C1.19,1.003 1.317,0.95 1.45,0.95 Z M11.45,0.95 L13.449,0.95 C13.725,0.95 13.95,1.174 13.95,1.45 L13.95,3.45 C13.95,3.726 13.726,3.95 13.45,3.95 C13.174,3.95 12.95,3.726 12.95,3.45 L12.95,1.95 L11.45,1.95 C11.174,1.95 10.95,1.726 10.95,1.45 C10.95,1.174 11.174,0.95 11.45,0.95 Z M5.45,13.45 C5.45,13.174 5.674,12.95 5.95,12.95 L8.95,12.95 C9.226,12.95 9.45,13.174 9.45,13.45 C9.45,13.726 9.226,13.95 8.95,13.95 L5.95,13.95 C5.674,13.95 5.45,13.726 5.45,13.45 Z M13.45,5.45 C13.726,5.45 13.95,5.674 13.95,5.95 L13.95,8.95 C13.95,9.226 13.726,9.45 13.45,9.45 C13.174,9.45 12.95,9.226 12.95,8.95 L12.95,5.95 C12.95,5.674 13.174,5.45 13.45,5.45 Z M5.95,0.95 L8.95,0.95 C9.226,0.95 9.45,1.174 9.45,1.45 C9.45,1.726 9.226,1.95 8.95,1.95 L5.95,1.95 C5.674,1.95 5.45,1.726 5.45,1.45 C5.45,1.174 5.674,0.95 5.95,0.95 Z M1.95,5.95 L1.95,8.95 C1.95,9.226 1.726,9.45 1.45,9.45 C1.174,9.45 0.95,9.226 0.95,8.95 L0.95,5.95 C0.95,5.674 1.174,5.45 1.45,5.45 C1.726,5.45 1.95,5.674 1.95,5.95 Z"/>
</svg>

