<svg xmlns="http://www.w3.org/2000/svg" width="15" height="15" viewBox="0 0 15 15">
  <defs/>
  <path fill="currentColor" d="M9.412,1.362 C9.511,1.266 9.619,1.184 9.735,1.117 C10.111,0.9 10.535,0.859 10.923,0.948 C11.691,1.123 12.359,1.811 12.422,2.762 C12.424,2.785 12.425,2.808 12.427,2.831 C12.737,2.605 13.128,2.526 13.576,2.615 C13.98,2.695 14.487,2.992 14.774,3.63 C15.056,4.259 15.096,5.153 14.729,6.392 C14.398,7.513 14.024,8.449 13.687,9.292 C13.522,9.706 13.365,10.097 13.227,10.476 C12.802,11.646 12.5,12.821 12.5,14.5 C12.5,14.776 12.276,15 12,15 L5,15 C4.724,15 4.5,14.776 4.5,14.5 C4.5,13.463 3.809,12.49 2.861,11.46 C2.632,11.211 2.395,10.966 2.157,10.719 L2.15,10.712 C1.911,10.465 1.67,10.216 1.444,9.968 C0.996,9.479 0.574,8.965 0.305,8.429 C0.066,7.972 -0.102,7.313 0.101,6.763 L0.104,6.754 C0.241,6.404 0.454,6.092 0.778,5.884 C1.104,5.675 1.489,5.607 1.903,5.648 C2.519,5.708 2.964,5.981 3.339,6.313 C3.194,5.899 3.021,5.488 2.842,5.061 C2.82,5.009 2.798,4.957 2.776,4.905 C2.524,4.303 2.265,3.668 2.093,2.997 L2.09,2.987 C1.944,2.367 2.134,1.74 2.536,1.32 C2.949,0.887 3.587,0.679 4.266,0.917 C4.926,1.149 5.394,1.674 5.731,2.267 C5.752,2.015 5.782,1.758 5.823,1.493 L5.824,1.49 C5.988,0.466 6.865,-0.008 7.654,0 C8.399,0.008 9.215,0.448 9.412,1.362 Z M6.811,1.647 C6.622,2.879 6.683,3.885 6.768,5.305 L6.768,5.305 C6.784,5.564 6.801,5.837 6.817,6.128 C6.831,6.392 6.638,6.622 6.375,6.652 C6.112,6.683 5.871,6.503 5.825,6.243 L5.748,5.807 C5.644,5.165 5.484,4.255 5.178,3.447 C4.862,2.613 4.449,2.041 3.934,1.86 C3.65,1.761 3.419,1.843 3.259,2.011 C3.087,2.19 2.998,2.471 3.063,2.754 C3.215,3.344 3.446,3.917 3.698,4.518 C3.721,4.572 3.743,4.625 3.766,4.68 C3.995,5.225 4.236,5.797 4.416,6.391 L4.417,6.392 C4.562,6.876 4.656,7.26 4.731,7.562 C4.76,7.681 4.787,7.788 4.812,7.884 C4.868,8.096 4.778,8.32 4.592,8.436 C4.405,8.552 4.164,8.532 3.999,8.387 C3.737,8.158 3.515,7.928 3.318,7.718 C3.276,7.673 3.236,7.63 3.197,7.588 C3.048,7.428 2.917,7.288 2.783,7.16 C2.46,6.851 2.184,6.68 1.806,6.644 L1.803,6.643 C1.561,6.619 1.414,6.664 1.318,6.726 C1.219,6.789 1.12,6.904 1.038,7.112 C0.977,7.285 1.015,7.63 1.193,7.969 L1.197,7.977 C1.401,8.385 1.745,8.816 2.181,9.293 C2.397,9.529 2.629,9.768 2.869,10.017 L2.88,10.028 C3.115,10.272 3.36,10.525 3.597,10.783 C4.429,11.686 5.277,12.754 5.463,14 L11.509,14 C11.564,12.435 11.876,11.268 12.288,10.135 C12.445,9.7 12.612,9.284 12.783,8.858 C13.11,8.041 13.451,7.189 13.771,6.108 C14.099,4.997 14.01,4.37 13.861,4.04 C13.717,3.719 13.491,3.618 13.382,3.596 C13.138,3.548 13.038,3.609 12.97,3.679 C12.867,3.783 12.77,3.983 12.692,4.303 C12.617,4.613 12.575,4.965 12.533,5.325 L12.53,5.353 C12.492,5.672 12.45,6.03 12.366,6.301 C12.338,6.407 12.282,6.504 12.198,6.575 C12.138,6.626 12.01,6.708 11.831,6.693 C11.542,6.669 11.371,6.421 11.365,6.148 C11.358,5.849 11.375,5.549 11.392,5.249 C11.397,5.155 11.403,5.06 11.407,4.966 L11.408,4.963 C11.443,4.235 11.477,3.533 11.425,2.834 L11.424,2.829 C11.392,2.33 11.049,2.002 10.701,1.923 C10.531,1.884 10.369,1.906 10.235,1.984 C10.103,2.059 9.955,2.213 9.857,2.514 L9.856,2.517 C9.815,2.64 9.773,2.878 9.736,3.212 C9.7,3.535 9.673,3.913 9.652,4.294 C9.633,4.62 9.618,4.958 9.604,5.262 C9.587,5.645 9.573,5.974 9.556,6.153 C9.55,6.225 9.529,6.295 9.495,6.358 C9.474,6.397 9.361,6.609 9.071,6.618 C8.779,6.627 8.64,6.401 8.617,6.359 C8.556,6.249 8.551,6.118 8.548,5.993 C8.545,5.881 8.543,5.718 8.542,5.548 C8.539,5.206 8.539,4.819 8.539,4.71 C8.539,3.666 8.538,2.654 8.447,1.644 C8.392,1.241 8.063,1.005 7.644,1 C7.224,0.996 6.879,1.227 6.811,1.647 Z"/>
</svg>

