<svg xmlns="http://www.w3.org/2000/svg" width="15" height="15" viewBox="0 0 15 15">
  <defs/>
  <path fill="currentColor" d="M8.754,2.05 L12.254,2.05 C12.503,2.05 12.704,2.252 12.704,2.5 C12.704,2.749 12.503,2.95 12.254,2.95 L11.05,2.95 L11.05,12.05 L12.254,12.05 C12.503,12.05 12.704,12.252 12.704,12.5 C12.704,12.749 12.503,12.95 12.254,12.95 L8.754,12.95 C8.506,12.95 8.304,12.749 8.304,12.5 C8.304,12.252 8.506,12.05 8.754,12.05 L9.95,12.05 L9.95,7.95 L5.05,7.95 L5.05,12.05 L6.254,12.05 C6.503,12.05 6.704,12.252 6.704,12.5 C6.704,12.749 6.503,12.95 6.254,12.95 L2.754,12.95 C2.506,12.95 2.304,12.749 2.304,12.5 C2.304,12.252 2.506,12.05 2.754,12.05 L3.95,12.05 L3.95,2.95 L2.754,2.95 C2.506,2.95 2.304,2.749 2.304,2.5 C2.304,2.252 2.506,2.05 2.754,2.05 L6.254,2.05 C6.503,2.05 6.704,2.252 6.704,2.5 C6.704,2.749 6.503,2.95 6.254,2.95 L5.05,2.95 L5.05,7.05 L9.95,7.05 L9.95,2.95 L8.754,2.95 C8.506,2.95 8.304,2.749 8.304,2.5 C8.304,2.252 8.506,2.05 8.754,2.05 Z"/>
</svg>

