<svg xmlns="http://www.w3.org/2000/svg" width="15" height="15" viewBox="0 0 15 15">
  <defs/>
  <path fill="currentColor" d="M1.352,4.905 C1.352,2.945 2.936,1.352 4.893,1.352 C6.258,1.352 6.861,1.923 7.5,2.935 C8.139,1.923 8.742,1.352 10.107,1.352 C12.064,1.352 13.648,2.945 13.648,4.905 C13.648,6.74 12.601,8.505 11.401,9.969 C10.264,11.356 8.922,12.551 8.006,13.366 C7.946,13.419 7.889,13.471 7.833,13.521 C7.643,13.69 7.357,13.69 7.167,13.521 C7.111,13.471 7.054,13.419 6.994,13.366 C6.078,12.551 4.736,11.356 3.599,9.969 C2.399,8.505 1.352,6.74 1.352,4.905 Z"/>
</svg>

