<svg xmlns="http://www.w3.org/2000/svg" width="15" height="15" viewBox="0 0 15 15">
  <defs/>
  <path fill="currentColor" d="M1.352,4.905 C1.352,2.945 2.936,1.352 4.893,1.352 C6.008,1.352 6.735,1.76 7.209,2.295 C7.321,2.421 7.417,2.554 7.5,2.685 C7.583,2.554 7.679,2.421 7.791,2.295 C8.265,1.76 8.992,1.352 10.107,1.352 C12.064,1.352 13.648,2.945 13.648,4.905 C13.648,6.74 12.601,8.505 11.401,9.969 C10.264,11.356 8.922,12.551 8.006,13.366 C7.946,13.419 7.889,13.471 7.833,13.521 C7.643,13.69 7.357,13.69 7.167,13.521 C7.111,13.471 7.054,13.419 6.994,13.366 C6.078,12.551 4.736,11.356 3.599,9.969 C2.399,8.505 1.352,6.74 1.352,4.905 Z M4.893,2.352 C3.492,2.352 2.352,3.494 2.352,4.905 C2.352,6.382 3.21,7.917 4.373,9.335 C5.394,10.581 6.595,11.67 7.5,12.478 C8.405,11.67 9.606,10.581 10.627,9.335 C11.79,7.917 12.648,6.382 12.648,4.905 C12.648,3.494 11.508,2.352 10.107,2.352 C9.271,2.352 8.819,2.643 8.54,2.958 C8.279,3.253 8.146,3.586 8.025,3.89 C8.004,3.943 7.983,3.995 7.962,4.046 C7.885,4.233 7.702,4.355 7.5,4.355 C7.298,4.355 7.115,4.233 7.038,4.046 C7.017,3.995 6.996,3.943 6.975,3.89 C6.854,3.586 6.721,3.253 6.46,2.958 C6.181,2.643 5.729,2.352 4.893,2.352 Z"/>
</svg>

