<svg xmlns="http://www.w3.org/2000/svg" width="15" height="15" viewBox="0 0 15 15">
  <defs/>
  <path fill="currentColor" d="M7.181,1.682 C7.357,1.506 7.642,1.506 7.818,1.682 L10.318,4.182 C10.493,4.358 10.493,4.642 10.318,4.818 C10.142,4.994 9.857,4.994 9.681,4.818 L7.95,3.086 L7.95,11.914 L9.681,10.182 C9.857,10.006 10.142,10.006 10.318,10.182 C10.493,10.358 10.493,10.642 10.318,10.818 L7.818,13.318 C7.733,13.403 7.619,13.45 7.499,13.45 C7.38,13.45 7.266,13.403 7.181,13.318 L4.681,10.818 C4.506,10.642 4.506,10.358 4.681,10.182 C4.857,10.006 5.142,10.006 5.318,10.182 L7.049,11.914 L7.049,3.086 L5.318,4.818 C5.142,4.994 4.857,4.994 4.681,4.818 C4.506,4.642 4.506,4.358 4.681,4.182 Z"/>
</svg>

