<svg xmlns="http://www.w3.org/2000/svg" width="15" height="15" viewBox="0 0 15 15">
  <defs/>
  <path fill="currentColor" d="M7.079,0.222 C7.313,-0.007 7.687,-0.007 7.921,0.222 L14.671,6.862 C14.907,7.095 14.91,7.475 14.678,7.711 C14.445,7.947 14.066,7.95 13.829,7.718 L13,6.902 L13,12.5 C13,12.776 12.776,13 12.5,13 L2.5,13 C2.224,13 2,12.776 2,12.5 L2,6.902 L1.171,7.718 C0.935,7.95 0.555,7.947 0.322,7.711 C0.09,7.475 0.093,7.095 0.329,6.862 Z M7.5,1.492 L3,5.918 L3,12 L6,12 L6,8.5 C6,8.224 6.224,8 6.5,8 L9.5,8 C9.776,8 10,8.224 10,8.5 L10,12 L12,12 L12,5.918 Z M7,12 L9,12 L9,9 L7,9 Z"/>
</svg>

