<svg xmlns="http://www.w3.org/2000/svg" width="15" height="15" viewBox="0 0 15 15">
  <defs/>
  <path fill="currentColor" d="M2.895,6.123 C3.299,5.83 3.386,5.332 2.895,5.157 C2.199,4.893 2.305,4 3,4 L12,4 C12.695,4 12.828,4.864 12.133,5.128 C11.641,5.332 11.728,5.83 12.133,6.094 C12.828,6.533 13.089,7.324 12.974,8.056 L12.163,12.477 C11.988,13.356 11.235,14 10.337,14 L4.661,14 C3.763,14 3.01,13.356 2.836,12.477 L2.025,8.056 C1.904,7.311 2.258,6.525 2.895,6.123 Z M8.2,6.25 C8.2,5.818 8.086,5.376 7.906,5 L4.111,5 C4.206,5.213 4.242,5.439 4.229,5.655 C4.195,6.224 3.846,6.669 3.48,6.933 L3.455,6.951 L3.429,6.968 C3.134,7.154 2.958,7.54 3.011,7.887 L3.818,12.289 C3.905,12.715 4.261,13 4.661,13 L10.337,13 C10.737,13 11.093,12.715 11.18,12.289 L11.987,7.89 C12.048,7.482 11.895,7.126 11.599,6.939 L11.587,6.932 L11.587,6.932 C11.195,6.676 10.833,6.228 10.799,5.648 C10.785,5.412 10.826,5.194 10.911,5 L9.055,5 C9.02,5.146 9,5.312 9,5.5 C9,5.975 9.217,6.371 9.444,6.787 C9.693,7.243 9.954,7.721 9.954,8.35 C9.954,9.27 9.499,9.842 8.622,9.842 C8.132,9.842 7.578,9.461 7.578,8.758 C7.578,8.353 7.716,8.016 7.861,7.66 C8.025,7.258 8.2,6.831 8.2,6.25 Z M7.5,0.003 C8.195,0.003 8.75,0.281 8.75,0.75 C8.75,0.997 8.576,1.12 8.423,1.227 C8.305,1.311 8.2,1.385 8.2,1.5 C8.2,1.707 8.938,1.743 9.802,1.784 C11.024,1.843 12.5,1.914 12.5,2.5 C12.5,2.776 12.276,3 12,3 L3,3 C2.724,3 2.5,2.776 2.5,2.5 C2.5,1.914 3.976,1.843 5.198,1.784 C6.062,1.743 6.8,1.707 6.8,1.5 C6.8,1.385 6.695,1.311 6.577,1.227 C6.424,1.12 6.25,0.997 6.25,0.75 C6.25,0.281 6.805,0.003 7.5,0.003 Z"/>
</svg>

