<svg xmlns="http://www.w3.org/2000/svg" width="15" height="15" viewBox="0 0 15 15">
  <defs/>
  <path fill="currentColor" d="M15,4 L15,11 C15,11.552 14.552,12 14,12 L1,12 C0.448,12 0,11.552 0,11 L0,4 C0,3.448 0.448,3 1,3 L14,3 C14.552,3 15,3.448 15,4 Z M14,11 L14,4 L1,4 L1,11 Z M2,5.25 C2,5.112 2.112,5 2.25,5 L5.75,5 C5.888,5 6,5.112 6,5.25 L6,9.75 C6,9.888 5.888,10 5.75,10 L2.25,10 C2.112,10 2,9.888 2,9.75 Z M7,9.5 C7,9.224 7.224,9 7.5,9 L12.5,9 C12.776,9 13,9.224 13,9.5 C13,9.776 12.776,10 12.5,10 L7.5,10 C7.224,10 7,9.776 7,9.5 Z M7.5,5 L11.5,5 C11.776,5 12,5.224 12,5.5 C12,5.776 11.776,6 11.5,6 L7.5,6 C7.224,6 7,5.776 7,5.5 C7,5.224 7.224,5 7.5,5 Z M7.5,7 L10.5,7 C10.776,7 11,7.224 11,7.5 C11,7.776 10.776,8 10.5,8 L7.5,8 C7.224,8 7,7.776 7,7.5 C7,7.224 7.224,7 7.5,7 Z"/>
</svg>

