<svg xmlns="http://www.w3.org/2000/svg" width="15" height="15" viewBox="0 0 15 15">
  <defs/>
  <path fill="currentColor" d="M7.95,5 L11.25,5 C11.664,5 12,5.336 12,5.75 L12,9.25 C12,9.664 11.664,10 11.25,10 L7.95,10 L7.95,13.499 C7.95,13.748 7.748,13.949 7.5,13.949 C7.251,13.949 7.05,13.748 7.05,13.499 L7.05,10 L3.75,10 C3.336,10 3,9.664 3,9.25 L3,5.75 C3,5.336 3.336,5 3.75,5 L7.05,5 L7.05,1.499 C7.05,1.251 7.251,1.049 7.5,1.049 C7.749,1.049 7.95,1.251 7.95,1.499 Z M7.95,6 L7.95,9 L11,9 L11,6 Z M7.05,9 L7.05,6 L4,6 L4,9 Z"/>
</svg>

