<svg xmlns="http://www.w3.org/2000/svg" width="15" height="15" viewBox="0 0 15 15">
  <defs/>
  <path fill="currentColor" d="M5.5,0.5 C5.5,0.224 5.724,0 6,0 L9,0 C9.276,0 9.5,0.224 9.5,0.5 C9.5,0.776 9.276,1 9,1 L8,1 L8,2.119 C9.098,2.204 10.119,2.566 10.992,3.136 C11.012,3.109 11.034,3.083 11.058,3.058 L12.058,2.058 C12.302,1.814 12.698,1.814 12.942,2.058 C13.186,2.302 13.186,2.698 12.942,2.942 L11.967,3.917 C13.16,5.079 13.9,6.703 13.9,8.5 C13.9,12.035 11.035,14.9 7.5,14.9 C3.965,14.9 1.1,12.035 1.1,8.5 C1.1,5.134 3.699,2.374 7,2.119 L7,1 L6,1 C5.724,1 5.5,0.776 5.5,0.5 Z M2.1,8.5 C2.1,11.482 4.518,13.9 7.5,13.9 C10.482,13.9 12.9,11.482 12.9,8.5 C12.9,5.518 10.482,3.1 7.5,3.1 C4.518,3.1 2.1,5.518 2.1,8.5 Z M7.5,8.5 L10.611,11.611 C9.815,12.408 8.715,12.9 7.5,12.9 C5.07,12.9 3.1,10.93 3.1,8.5 C3.1,6.07 5.07,4.1 7.5,4.1 Z"/>
</svg>

