<svg xmlns="http://www.w3.org/2000/svg" width="15" height="15" viewBox="0 0 15 15">
  <defs/>
  <path fill="currentColor" d="M2.899,5.207 C3.792,5.207 4.605,5.601 5.154,6.223 L5.154,5.72 C5.154,5.471 5.356,5.27 5.604,5.27 C5.853,5.27 6.054,5.471 6.054,5.72 L6.054,11.53 C6.054,11.778 5.853,11.98 5.604,11.98 C5.356,11.98 5.154,11.778 5.154,11.53 L5.154,11.022 C4.574,11.669 3.721,12.012 2.899,12.012 C1.358,12.012 0.009,10.634 0.009,8.61 C0.009,6.686 1.258,5.207 2.899,5.207 Z M11.29,2.75 C11.496,2.75 11.682,2.877 11.757,3.07 L14.966,11.39 C15.066,11.648 14.938,11.937 14.68,12.036 C14.422,12.136 14.133,12.008 14.033,11.75 L12.982,9.025 L9.611,9.025 L8.567,11.749 C8.468,12.007 8.179,12.136 7.921,12.037 C7.663,11.938 7.534,11.649 7.633,11.391 L10.823,3.071 C10.897,2.878 11.083,2.75 11.29,2.75 Z M5.154,9.798 L5.154,7.302 C4.764,6.581 3.941,6.058 3.087,6.058 C2.109,6.058 1.035,6.966 1.035,8.61 C1.035,10.153 2.009,11.161 3.087,11.161 C3.97,11.161 4.772,10.495 5.154,9.798 Z M11.292,4.643 L9.937,8.175 L12.654,8.175 Z"/>
</svg>

