<svg xmlns="http://www.w3.org/2000/svg" width="15" height="15" viewBox="0 0 15 15">
  <defs/>
  <path fill="currentColor" d="M10.899,5.207 C11.792,5.207 12.605,5.601 13.154,6.223 L13.154,5.72 C13.154,5.471 13.356,5.27 13.604,5.27 C13.853,5.27 14.054,5.471 14.054,5.72 L14.054,11.53 C14.054,11.778 13.853,11.98 13.604,11.98 C13.356,11.98 13.154,11.778 13.154,11.53 L13.154,11.022 C12.574,11.669 11.721,12.012 10.899,12.012 C9.358,12.012 8.009,10.634 8.009,8.61 C8.009,6.686 9.258,5.207 10.899,5.207 Z M3.69,2.75 C3.897,2.75 4.082,2.877 4.157,3.07 L7.367,11.39 C7.466,11.648 7.338,11.937 7.08,12.036 C6.822,12.136 6.533,12.008 6.434,11.75 L5.383,9.025 L2.011,9.025 L0.967,11.749 C0.868,12.007 0.579,12.136 0.321,12.037 C0.063,11.938 -0.066,11.649 0.033,11.391 L3.223,3.071 C3.298,2.878 3.483,2.75 3.69,2.75 Z M13.154,9.798 L13.154,7.302 C12.764,6.581 11.941,6.058 11.087,6.058 C10.109,6.058 9.035,6.966 9.035,8.61 C9.035,10.153 10.009,11.161 11.087,11.161 C11.97,11.161 12.772,10.495 13.154,9.798 Z M3.692,4.643 L2.337,8.175 L5.055,8.175 Z"/>
</svg>

