<svg xmlns="http://www.w3.org/2000/svg" width="15" height="15" viewBox="0 0 15 15">
  <defs/>
  <path fill="currentColor" d="M3.625,2.75 C3.835,2.75 4.022,2.88 4.094,3.077 L7.17,11.396 C7.266,11.655 7.133,11.943 6.874,12.039 C6.615,12.134 6.328,12.002 6.232,11.743 L5.224,9.016 L2.027,9.016 L1.019,11.743 C0.923,12.002 0.636,12.134 0.377,12.039 C0.118,11.943 -0.015,11.655 0.081,11.396 L3.157,3.077 C3.229,2.88 3.416,2.75 3.625,2.75 Z M11.372,2.75 C11.581,2.75 11.768,2.88 11.841,3.077 L14.916,11.396 C15.012,11.655 14.88,11.943 14.621,12.039 C14.362,12.134 14.074,12.002 13.978,11.743 L12.97,9.016 L9.773,9.016 L8.765,11.743 C8.67,12.002 8.382,12.134 8.123,12.039 C7.864,11.943 7.732,11.655 7.827,11.396 L10.903,3.077 C10.975,2.88 11.163,2.75 11.372,2.75 Z M3.625,4.692 L2.341,8.166 L4.91,8.166 Z M11.372,4.692 L10.088,8.166 L12.656,8.166 Z"/>
</svg>

