<svg xmlns="http://www.w3.org/2000/svg" width="15" height="15" viewBox="0 0 15 15">
  <defs/>
  <path fill="currentColor" d="M10.799,5.207 C11.692,5.207 12.505,5.601 13.054,6.223 L13.054,5.72 C13.054,5.471 13.256,5.27 13.504,5.27 C13.753,5.27 13.954,5.471 13.954,5.72 L13.954,11.53 C13.954,11.778 13.753,11.98 13.504,11.98 C13.256,11.98 13.054,11.778 13.054,11.53 L13.054,11.022 C12.474,11.669 11.622,12.012 10.799,12.012 C9.258,12.012 7.909,10.634 7.909,8.61 C7.909,6.686 9.158,5.207 10.799,5.207 Z M3.699,5.207 C4.592,5.207 5.405,5.601 5.954,6.223 L5.954,5.72 C5.954,5.471 6.155,5.27 6.404,5.27 C6.652,5.27 6.854,5.471 6.854,5.72 L6.854,11.53 C6.854,11.778 6.652,11.98 6.404,11.98 C6.155,11.98 5.954,11.778 5.954,11.53 L5.954,11.022 C5.374,11.669 4.521,12.012 3.699,12.012 C2.158,12.012 0.809,10.634 0.809,8.61 C0.809,6.686 2.058,5.207 3.699,5.207 Z M13.054,9.798 L13.054,7.302 C12.664,6.581 11.842,6.058 10.987,6.058 C10.009,6.058 8.935,6.966 8.935,8.61 C8.935,10.153 9.909,11.161 10.987,11.161 C11.87,11.161 12.672,10.495 13.054,9.798 Z M5.954,9.799 L5.954,7.301 C5.563,6.581 4.741,6.058 3.887,6.058 C2.909,6.058 1.835,6.966 1.835,8.61 C1.835,10.153 2.809,11.161 3.887,11.161 C4.77,11.161 5.571,10.496 5.954,9.799 Z"/>
</svg>

