<svg xmlns="http://www.w3.org/2000/svg" width="15" height="15" viewBox="0 0 15 15">
  <defs/>
  <path fill="currentColor" d="M8.697,0.04 C8.909,0.131 9.031,0.355 8.993,0.582 L8.09,6 L12.5,6 C12.689,6 12.863,6.107 12.947,6.276 C13.032,6.446 13.014,6.648 12.9,6.8 L6.9,14.8 C6.762,14.984 6.515,15.05 6.303,14.96 C6.091,14.869 5.969,14.645 6.007,14.418 L6.91,9 L2.5,9 C2.311,9 2.137,8.893 2.053,8.724 C1.968,8.554 1.986,8.352 2.1,8.2 L8.1,0.2 C8.238,0.016 8.485,-0.05 8.697,0.04 Z M3.5,8 L7.5,8 C7.647,8 7.786,8.065 7.881,8.177 C7.976,8.289 8.017,8.437 7.993,8.582 L7.33,12.56 L11.5,7 L7.5,7 C7.353,7 7.213,6.935 7.118,6.823 C7.023,6.711 6.983,6.563 7.007,6.418 L7.67,2.44 Z"/>
</svg>

