<svg xmlns="http://www.w3.org/2000/svg" width="15" height="15" viewBox="0 0 15 15">
  <defs/>
  <path fill="currentColor" d="M3.782,2.217 L5.782,4.217 C5.939,4.373 5.939,4.627 5.782,4.783 C5.626,4.939 5.373,4.939 5.217,4.783 L3.899,3.466 L3.899,11.534 L5.217,10.217 C5.373,10.061 5.626,10.061 5.782,10.217 C5.939,10.373 5.939,10.627 5.782,10.783 L3.782,12.783 C3.707,12.858 3.606,12.9 3.499,12.9 C3.393,12.9 3.292,12.858 3.217,12.783 L1.217,10.783 C1.06,10.627 1.06,10.373 1.217,10.217 C1.373,10.061 1.626,10.061 1.782,10.217 L3.099,11.534 L3.099,3.466 L1.782,4.783 C1.626,4.939 1.373,4.939 1.217,4.783 C1.06,4.627 1.06,4.373 1.217,4.217 L3.217,2.217 C3.292,2.142 3.393,2.1 3.499,2.1 C3.606,2.1 3.707,2.142 3.782,2.217 Z M8.5,10 L14.5,10 C14.776,10 15,10.224 15,10.5 C15,10.776 14.776,11 14.5,11 L8.5,11 C8.224,11 8,10.776 8,10.5 C8,10.224 8.224,10 8.5,10 Z M8,7.5 C8,7.224 8.224,7 8.5,7 L14.5,7 C14.776,7 15,7.224 15,7.5 C15,7.776 14.776,8 14.5,8 L8.5,8 C8.224,8 8,7.776 8,7.5 Z M8.5,4 L14.5,4 C14.776,4 15,4.224 15,4.5 C15,4.776 14.776,5 14.5,5 L8.5,5 C8.224,5 8,4.776 8,4.5 C8,4.224 8.224,4 8.5,4 Z"/>
</svg>

