<svg xmlns="http://www.w3.org/2000/svg" width="15" height="15" viewBox="0 0 15 15">
  <defs/>
  <path fill="currentColor" d="M2,1 L13,1 C13.552,1 14,1.448 14,2 L14,13 C14,13.552 13.552,14 13,14 L2,14 C1.448,14 1,13.552 1,13 L1,2 C1,1.448 1.448,1 2,1 Z M12,8.357 C12,6.552 10.833,5.85 9.674,5.85 C9.295,5.832 8.917,5.911 8.579,6.081 C8.322,6.21 8.053,6.505 7.845,7.019 L7.792,7.019 L7.792,6 L6,6 L6,12.005 L7.906,12.005 L7.906,8.811 C7.879,8.484 7.983,8.061 8.197,7.81 C8.412,7.558 8.718,7.498 8.95,7.468 L9.023,7.468 C9.629,7.468 10.079,7.843 10.079,8.789 L10.079,12.005 L11.985,12.005 Z M3.05,6 L3.05,12 L4.95,12 L4.95,6 Z M5.075,4.005 C5.075,3.411 4.594,2.93 4,2.93 C3.406,2.93 2.925,3.411 2.925,4.005 C2.925,4.599 3.406,5.08 4,5.08 C4.594,5.08 5.075,4.599 5.075,4.005 Z"/>
</svg>

