<svg xmlns="http://www.w3.org/2000/svg" width="15" height="15" viewBox="0 0 15 15">
  <defs/>
  <path fill="currentColor" d="M8.512,3.005 C8.358,3.11 8.192,3.273 7.765,3.7 L7.146,4.318 C6.951,4.514 6.635,4.514 6.439,4.318 C6.244,4.123 6.244,3.806 6.439,3.611 L7.058,2.992 L7.101,2.95 C7.47,2.58 7.707,2.343 7.95,2.178 C8.944,1.503 10.238,1.468 11.228,2.118 C11.469,2.277 11.7,2.508 12.052,2.859 L12.096,2.904 L12.141,2.949 C12.492,3.3 12.723,3.531 12.882,3.772 C13.532,4.763 13.497,6.056 12.822,7.05 C12.657,7.293 12.42,7.53 12.051,7.899 L12.008,7.942 L11.389,8.561 C11.194,8.756 10.877,8.756 10.682,8.561 C10.487,8.366 10.487,8.049 10.682,7.854 L11.301,7.235 C11.728,6.808 11.89,6.643 11.995,6.488 C12.454,5.812 12.463,4.957 12.046,4.321 C11.951,4.177 11.801,4.023 11.389,3.611 C10.977,3.199 10.823,3.049 10.679,2.954 C10.043,2.537 9.188,2.546 8.512,3.005 Z M4.318,7.147 L3.699,7.765 C3.272,8.192 3.11,8.358 3.005,8.512 C2.546,9.189 2.537,10.044 2.954,10.679 C3.049,10.823 3.199,10.977 3.611,11.389 C4.023,11.801 4.177,11.952 4.321,12.046 C4.956,12.464 5.812,12.455 6.488,11.995 C6.642,11.89 6.808,11.728 7.235,11.301 L7.853,10.682 C8.049,10.487 8.365,10.487 8.561,10.682 C8.756,10.877 8.756,11.194 8.561,11.389 L7.942,12.008 L7.899,12.051 C7.529,12.421 7.293,12.657 7.05,12.822 C6.056,13.498 4.762,13.532 3.772,12.882 C3.531,12.724 3.3,12.493 2.948,12.141 L2.904,12.097 L2.859,12.052 C2.508,11.7 2.277,11.469 2.118,11.228 C1.468,10.238 1.503,8.944 2.178,7.95 C2.343,7.707 2.58,7.471 2.949,7.101 L3.611,6.44 C3.806,6.244 4.123,6.244 4.318,6.44 C4.513,6.635 4.513,6.951 4.318,7.147 Z M9.622,6.086 L6.086,9.621 C5.891,9.816 5.574,9.816 5.379,9.621 C5.184,9.426 5.184,9.109 5.379,8.914 L8.915,5.378 C9.11,5.183 9.426,5.183 9.622,5.378 C9.817,5.574 9.817,5.89 9.622,6.086 Z"/>
</svg>

