<svg xmlns="http://www.w3.org/2000/svg" width="15" height="15" viewBox="0 0 15 15">
  <defs/>
  <path fill="currentColor" d="M13.354,2.354 L2.354,13.354 C2.158,13.549 1.842,13.549 1.646,13.354 C1.451,13.158 1.451,12.842 1.646,12.646 L12.646,1.646 C12.842,1.451 13.158,1.451 13.354,1.646 C13.549,1.842 13.549,2.158 13.354,2.354 Z M2.037,8.467 C2.174,9.126 2.669,9.671 3.339,9.893 L2.578,10.654 C1.808,10.253 1.238,9.537 1.058,8.67 C1,8.387 1,8.06 1,7.563 L1,7.563 L1,7.5 L1,7.437 L1,7.437 C1,6.94 1,6.613 1.058,6.33 C1.298,5.171 2.238,4.28 3.418,4.055 C3.707,4 4.041,4 4.564,4 L5.5,4 C5.776,4 6,4.224 6,4.5 C6,4.776 5.776,5 5.5,5 L4.625,5 C4.021,5 3.789,5.002 3.606,5.037 C2.803,5.191 2.192,5.789 2.037,6.533 C2.002,6.702 2,6.918 2,7.5 C2,8.083 2.002,8.298 2.037,8.467 Z M12.962,6.533 C12.825,5.874 12.33,5.329 11.661,5.107 L12.422,4.346 C13.191,4.747 13.762,5.463 13.941,6.33 C14,6.613 14,6.94 14,7.436 L14,7.564 C14,8.06 14,8.387 13.941,8.67 C13.701,9.83 12.762,10.72 11.581,10.945 C11.292,11 10.958,11 10.435,11 L9.5,11 C9.224,11 9,10.776 9,10.5 C9,10.224 9.224,10 9.5,10 L10.375,10 C10.979,10 11.21,9.998 11.394,9.963 C12.197,9.809 12.808,9.211 12.962,8.467 C12.997,8.298 13,8.083 13,7.5 C13,6.918 12.997,6.702 12.962,6.533 Z"/>
</svg>

