<svg xmlns="http://www.w3.org/2000/svg" width="15" height="15" viewBox="0 0 15 15">
  <defs/>
  <path fill="currentColor" d="M4,4.5 C4,4.224 4.224,4 4.5,4 L13.5,4 C13.776,4 14,4.224 14,4.5 C14,4.776 13.776,5 13.5,5 L4.5,5 C4.224,5 4,4.776 4,4.5 Z M4.5,7 L13.5,7 C13.776,7 14,7.224 14,7.5 C14,7.776 13.776,8 13.5,8 L4.5,8 C4.224,8 4,7.776 4,7.5 C4,7.224 4.224,7 4.5,7 Z M4.5,10 L13.5,10 C13.776,10 14,10.224 14,10.5 C14,10.776 13.776,11 13.5,11 L4.5,11 C4.224,11 4,10.776 4,10.5 C4,10.224 4.224,10 4.5,10 Z M1.5,5.25 C1.086,5.25 0.75,4.914 0.75,4.5 C0.75,4.086 1.086,3.75 1.5,3.75 C1.914,3.75 2.25,4.086 2.25,4.5 C2.25,4.914 1.914,5.25 1.5,5.25 Z M2.25,7.5 C2.25,7.914 1.914,8.25 1.5,8.25 C1.086,8.25 0.75,7.914 0.75,7.5 C0.75,7.086 1.086,6.75 1.5,6.75 C1.914,6.75 2.25,7.086 2.25,7.5 Z M1.5,11.25 C1.086,11.25 0.75,10.914 0.75,10.5 C0.75,10.086 1.086,9.75 1.5,9.75 C1.914,9.75 2.25,10.086 2.25,10.5 C2.25,10.914 1.914,11.25 1.5,11.25 Z"/>
</svg>

