<svg xmlns="http://www.w3.org/2000/svg" width="15" height="15" viewBox="0 0 15 15">
  <defs/>
  <path fill="currentColor" d="M7.499,0 C8.571,0 9.465,0.338 10.088,1.002 C10.707,1.662 11,2.581 11,3.636 L11,6 L12,6 C12.552,6 13,6.448 13,7 L13,13 C13,13.552 12.552,14 12,14 L3,14 C2.448,14 2,13.552 2,13 L2,7 C2,6.448 2.448,6 3,6 L10,6 L10,3.636 C10,2.76 9.758,2.112 9.358,1.686 C8.963,1.265 8.357,1 7.499,1 C6.552,1 5.916,1.306 5.528,1.806 C5.197,2.233 5,2.843 5,3.633 L4,3.633 C4,2.682 4.237,1.839 4.738,1.194 C5.361,0.389 6.326,0 7.499,0 Z M3,7 L3,13 L12,13 L12,7 Z"/>
</svg>

