<svg xmlns="http://www.w3.org/2000/svg" width="15" height="15" viewBox="0 0 15 15">
  <defs/>
  <path fill="currentColor" d="M4,6 L4,4.636 C4,3.581 4.293,2.658 4.91,1.993 C5.533,1.323 6.427,0.978 7.501,0.978 C8.576,0.978 9.47,1.322 10.091,1.992 C10.708,2.656 11,3.579 11,4.633 L11,6 L12,6 C12.552,6 13,6.448 13,7 L13,13 C13,13.552 12.552,14 12,14 L3,14 C2.448,14 2,13.552 2,13 L2,7 C2,6.448 2.448,6 3,6 Z M3,7 L3,13 L12,13 L12,7 Z M5,4.636 L5,6 L10,6 L10,4.633 C10,3.757 9.758,3.103 9.358,2.672 C8.963,2.247 8.357,1.978 7.501,1.978 C6.646,1.978 6.039,2.247 5.643,2.674 C5.242,3.105 5,3.76 5,4.636 Z"/>
</svg>

