<svg xmlns="http://www.w3.org/2000/svg" width="15" height="15" viewBox="0 0 15 15">
  <defs/>
  <path fill="currentColor" d="M9,3.636 L9,6 L10,6 C10.552,6 11,6.448 11,7 L11,13 C11,13.552 10.552,14 10,14 L1,14 C0.448,14 0,13.552 0,13 L0,7 C0,6.448 0.448,6 1,6 L8,6 L8,3.636 C8,2.581 8.294,1.662 8.912,1.002 C9.535,0.338 10.429,0 11.501,0 C12.674,0 13.639,0.389 14.262,1.194 C14.763,1.839 15,2.682 15,3.633 L14,3.633 C14,2.843 13.803,2.233 13.472,1.806 C13.084,1.306 12.448,1 11.501,1 C10.643,1 10.037,1.265 9.642,1.686 C9.242,2.112 9,2.76 9,3.636 Z M1,7 L1,13 L10,13 L10,7 Z"/>
</svg>

