<svg xmlns="http://www.w3.org/2000/svg" width="15" height="15" viewBox="0 0 15 15">
  <defs/>
  <path fill="currentColor" d="M9.854,5.146 C10.049,5.342 10.049,5.658 9.854,5.854 L2.854,12.854 C2.658,13.049 2.342,13.049 2.146,12.854 C1.951,12.658 1.951,12.342 2.146,12.146 L9.146,5.146 C9.342,4.951 9.658,4.951 9.854,5.146 Z M8.9,0.5 L8.9,1.1 L9.5,1.1 C9.721,1.1 9.9,1.279 9.9,1.5 C9.9,1.721 9.721,1.9 9.5,1.9 L8.9,1.9 L8.9,2.5 C8.9,2.721 8.721,2.9 8.5,2.9 C8.279,2.9 8.1,2.721 8.1,2.5 L8.1,1.9 L7.5,1.9 C7.279,1.9 7.1,1.721 7.1,1.5 C7.1,1.279 7.279,1.1 7.5,1.1 L8.1,1.1 L8.1,0.5 C8.1,0.279 8.279,0.1 8.5,0.1 C8.721,0.1 8.9,0.279 8.9,0.5 Z M13.9,0.5 L13.9,1.1 L14.5,1.1 C14.721,1.1 14.9,1.279 14.9,1.5 C14.9,1.721 14.721,1.9 14.5,1.9 L13.9,1.9 L13.9,2.5 C13.9,2.721 13.721,2.9 13.5,2.9 C13.279,2.9 13.1,2.721 13.1,2.5 L13.1,1.9 L12.5,1.9 C12.279,1.9 12.1,1.721 12.1,1.5 C12.1,1.279 12.279,1.1 12.5,1.1 L13.1,1.1 L13.1,0.5 C13.1,0.279 13.279,0.1 13.5,0.1 C13.721,0.1 13.9,0.279 13.9,0.5 Z M13.5,5.1 C13.721,5.1 13.9,5.279 13.9,5.5 L13.9,6.1 L14.5,6.1 C14.721,6.1 14.9,6.279 14.9,6.5 C14.9,6.721 14.721,6.9 14.5,6.9 L13.9,6.9 L13.9,7.5 C13.9,7.721 13.721,7.9 13.5,7.9 C13.279,7.9 13.1,7.721 13.1,7.5 L13.1,6.9 L12.5,6.9 C12.279,6.9 12.1,6.721 12.1,6.5 C12.1,6.279 12.279,6.1 12.5,6.1 L13.1,6.1 L13.1,5.5 C13.1,5.279 13.279,5.1 13.5,5.1 Z M11.854,3.146 C12.049,3.342 12.049,3.658 11.854,3.854 L10.854,4.854 C10.658,5.049 10.342,5.049 10.146,4.854 C9.951,4.658 9.951,4.342 10.146,4.146 L11.146,3.146 C11.342,2.951 11.658,2.951 11.854,3.146 Z"/>
</svg>

