<svg xmlns="http://www.w3.org/2000/svg" width="15" height="15" viewBox="0 0 15 15">
  <defs/>
  <path fill="currentColor" d="M4,5 C4,4.448 4.448,4 5,4 L10,4 C10.552,4 11,4.448 11,5 L11,10 C11,10.552 10.552,11 10,11 L5,11 C4.448,11 4,10.552 4,10 Z M5,5 L5,10 L10,10 L10,5 Z M11,13.5 C11,13.776 10.776,14 10.5,14 C10.224,14 10,13.776 10,13.5 C10,13.224 10.224,13 10.5,13 C10.776,13 11,13.224 11,13.5 Z M10.5,2 C10.224,2 10,1.776 10,1.5 C10,1.224 10.224,1 10.5,1 C10.776,1 11,1.224 11,1.5 C11,1.776 10.776,2 10.5,2 Z M13.5,11 C13.224,11 13,10.776 13,10.5 C13,10.224 13.224,10 13.5,10 C13.776,10 14,10.224 14,10.5 C14,10.776 13.776,11 13.5,11 Z M13.5,14 C13.224,14 13,13.776 13,13.5 C13,13.224 13.224,13 13.5,13 C13.776,13 14,13.224 14,13.5 C14,13.776 13.776,14 13.5,14 Z M2,10.5 C2,10.776 1.776,11 1.5,11 C1.224,11 1,10.776 1,10.5 C1,10.224 1.224,10 1.5,10 C1.776,10 2,10.224 2,10.5 Z M1.5,14 C1.224,14 1,13.776 1,13.5 C1,13.224 1.224,13 1.5,13 C1.776,13 2,13.224 2,13.5 C2,13.776 1.776,14 1.5,14 Z M14,7.5 C14,7.776 13.776,8 13.5,8 C13.224,8 13,7.776 13,7.5 C13,7.224 13.224,7 13.5,7 C13.776,7 14,7.224 14,7.5 Z M7.5,14 C7.224,14 7,13.776 7,13.5 C7,13.224 7.224,13 7.5,13 C7.776,13 8,13.224 8,13.5 C8,13.776 7.776,14 7.5,14 Z M13.5,5 C13.224,5 13,4.776 13,4.5 C13,4.224 13.224,4 13.5,4 C13.776,4 14,4.224 14,4.5 C14,4.776 13.776,5 13.5,5 Z M5,13.5 C5,13.776 4.776,14 4.5,14 C4.224,14 4,13.776 4,13.5 C4,13.224 4.224,13 4.5,13 C4.776,13 5,13.224 5,13.5 Z M14,1.5 C14,1.776 13.776,2 13.5,2 C13.224,2 13,1.776 13,1.5 C13,1.224 13.224,1 13.5,1 C13.776,1 14,1.224 14,1.5 Z M1.5,8 C1.224,8 1,7.776 1,7.5 C1,7.224 1.224,7 1.5,7 C1.776,7 2,7.224 2,7.5 C2,7.776 1.776,8 1.5,8 Z M2,4.5 C2,4.776 1.776,5 1.5,5 C1.224,5 1,4.776 1,4.5 C1,4.224 1.224,4 1.5,4 C1.776,4 2,4.224 2,4.5 Z M1.5,2 C1.224,2 1,1.776 1,1.5 C1,1.224 1.224,1 1.5,1 C1.776,1 2,1.224 2,1.5 C2,1.776 1.776,2 1.5,2 Z M8,1.5 C8,1.776 7.776,2 7.5,2 C7.224,2 7,1.776 7,1.5 C7,1.224 7.224,1 7.5,1 C7.776,1 8,1.224 8,1.5 Z M4.5,2 C4.224,2 4,1.776 4,1.5 C4,1.224 4.224,1 4.5,1 C4.776,1 5,1.224 5,1.5 C5,1.776 4.776,2 4.5,2 Z"/>
</svg>

