<svg xmlns="http://www.w3.org/2000/svg" width="15" height="15" viewBox="0 0 15 15">
  <defs/>
  <path fill="currentColor" d="M0,2 C0,1.448 0.448,1 1,1 L14,1 C14.552,1 15,1.448 15,2 L15,13 C15,13.552 14.552,14 14,14 L1,14 C0.448,14 0,13.552 0,13 Z M1,2 L1,13 L14,13 L14,2 Z M7.5,3.875 C9.502,3.875 11.125,5.498 11.125,7.5 C11.125,9.502 9.502,11.125 7.5,11.125 C5.498,11.125 3.875,9.502 3.875,7.5 C3.875,5.498 5.498,3.875 7.5,3.875 Z M4.875,7.5 C4.875,8.95 6.05,10.125 7.5,10.125 C8.95,10.125 10.125,8.95 10.125,7.5 C10.125,6.05 8.95,4.875 7.5,4.875 C6.05,4.875 4.875,6.05 4.875,7.5 Z"/>
</svg>

