<svg xmlns="http://www.w3.org/2000/svg" width="15" height="15" viewBox="0 0 15 15">
  <defs/>
  <path fill="currentColor" d="M8.3,9 C8.3,8.613 8.613,8.3 9,8.3 L13,8.3 C13.387,8.3 13.7,8.613 13.7,9 L13.7,13 C13.7,13.387 13.387,13.7 13,13.7 L9,13.7 C8.613,13.7 8.3,13.387 8.3,13 Z M4,1.249 C5.519,1.249 6.751,2.481 6.751,4 C6.751,5.519 5.519,6.751 4,6.751 C2.481,6.751 1.249,5.519 1.249,4 C1.249,2.481 2.481,1.249 4,1.249 Z M2.639,8.212 L6.572,10.388 C7.054,10.654 7.054,11.346 6.572,11.613 L2.639,13.789 C2.172,14.047 1.6,13.709 1.6,13.176 L1.6,8.824 C1.6,8.291 2.172,7.953 2.639,8.212 Z M9.2,9.2 L9.2,12.8 L12.8,12.8 L12.8,9.2 Z M13.443,2.193 L11.636,4 L13.443,5.807 C13.619,5.982 13.619,6.267 13.443,6.443 C13.267,6.619 12.983,6.619 12.807,6.443 L11,4.636 L9.193,6.443 C9.017,6.619 8.733,6.619 8.557,6.443 C8.381,6.267 8.381,5.982 8.557,5.807 L10.364,4 L8.557,2.193 C8.381,2.017 8.381,1.732 8.557,1.557 C8.733,1.381 9.017,1.381 9.193,1.557 L11,3.364 L12.807,1.557 C12.983,1.381 13.267,1.381 13.443,1.557 C13.619,1.732 13.619,2.017 13.443,2.193 Z M2.149,4 C2.149,5.022 2.978,5.851 4,5.851 C5.022,5.851 5.851,5.022 5.851,4 C5.851,2.978 5.022,2.149 4,2.149 C2.978,2.149 2.149,2.978 2.149,4 Z M5.82,11 L2.5,9.163 L2.5,12.837 Z"/>
</svg>

