<svg xmlns="http://www.w3.org/2000/svg" width="15" height="15" viewBox="0 0 15 15">
  <defs/>
  <path fill="currentColor" d="M5,1.5 L5,7 C5,7.017 4.999,7.033 4.998,7.05 C6.14,7.28 7,8.29 7,9.5 C7,10.71 6.14,11.72 4.998,11.95 C4.999,11.967 5,11.983 5,12 L5,13.5 C5,13.776 4.776,14 4.5,14 C4.224,14 4,13.776 4,13.5 L4,12 C4,11.983 4.001,11.967 4.002,11.95 C2.86,11.72 2,10.71 2,9.5 C2,8.29 2.86,7.28 4.002,7.05 C4.001,7.033 4,7.017 4,7 L4,1.5 C4,1.224 4.224,1 4.5,1 C4.776,1 5,1.224 5,1.5 Z M11,1.5 L11,3 C11,3.017 10.999,3.033 10.998,3.05 C12.14,3.28 13,4.29 13,5.5 C13,6.71 12.14,7.72 10.998,7.95 C10.999,7.967 11,7.983 11,8 L11,13.5 C11,13.776 10.776,14 10.5,14 C10.224,14 10,13.776 10,13.5 L10,8 C10,7.983 10.001,7.967 10.002,7.95 C8.86,7.72 8,6.71 8,5.5 C8,4.29 8.86,3.28 10.002,3.05 C10.001,3.033 10,3.017 10,3 L10,1.5 C10,1.224 10.224,1 10.5,1 C10.776,1 11,1.224 11,1.5 Z M9,5.5 C9,6.328 9.672,7 10.5,7 C11.328,7 12,6.328 12,5.5 C12,4.672 11.328,4 10.5,4 C9.672,4 9,4.672 9,5.5 Z M4.5,8 C3.672,8 3,8.672 3,9.5 C3,10.328 3.672,11 4.5,11 C5.328,11 6,10.328 6,9.5 C6,8.672 5.328,8 4.5,8 Z"/>
</svg>

