<svg xmlns="http://www.w3.org/2000/svg" width="15" height="15" viewBox="0 0 15 15">
  <defs/>
  <path fill="currentColor" d="M11.111,11.833 L14,9.667 L14,14 Z M14,8.222 L11.111,6.056 L14,3.889 Z M11.111,11.111 L11.111,6.778 L14,8.944 Z M14,3.167 L11.111,5.333 L11.111,1 Z M1,14 L1,9.667 L3.889,11.833 Z M4.37,6.056 L7.259,3.889 L7.259,8.222 Z M1,8.222 L1,3.889 L3.889,6.056 Z M3.889,11.111 L1,8.944 L3.889,6.778 Z M7.259,3.167 L4.37,5.333 L4.37,1 Z M3.889,5.333 L1,3.167 L3.889,1 Z M7.741,8.222 L7.741,3.889 L10.63,6.056 Z M7.741,3.167 L10.63,1 L10.63,5.333 Z"/>
</svg>

