<svg xmlns="http://www.w3.org/2000/svg" width="15" height="15" viewBox="0 0 15 15">
  <defs/>
  <path fill="currentColor" d="M3.258,3.117 C3.678,3.458 3.835,3.432 4.624,3.379 L12.057,2.933 C12.215,2.933 12.084,2.776 12.031,2.75 L10.796,1.857 C10.56,1.673 10.245,1.463 9.641,1.516 L2.443,2.041 C2.181,2.067 2.128,2.198 2.233,2.303 L3.258,3.117 Z M3.704,4.849 L3.704,12.67 C3.704,13.091 3.914,13.248 4.387,13.222 L12.556,12.749 C13.029,12.723 13.082,12.434 13.082,12.093 L13.082,4.324 C13.082,3.983 12.951,3.799 12.661,3.825 L4.124,4.324 C3.809,4.35 3.704,4.508 3.704,4.849 Z M11.769,5.269 C11.821,5.505 11.769,5.741 11.532,5.768 L11.138,5.846 L11.138,11.62 C10.796,11.804 10.481,11.909 10.219,11.909 C9.798,11.909 9.693,11.778 9.378,11.384 L6.803,7.342 L6.803,11.253 L7.618,11.437 C7.618,11.437 7.618,11.909 6.961,11.909 L5.149,12.014 C5.096,11.909 5.149,11.647 5.333,11.594 L5.805,11.463 L5.805,6.293 L5.149,6.24 C5.096,6.004 5.227,5.663 5.595,5.636 L7.539,5.505 L10.219,9.6 L10.219,5.978 L9.536,5.899 C9.483,5.61 9.693,5.4 9.956,5.374 L11.769,5.269 Z M1.839,1.332 L9.326,0.781 C10.245,0.702 10.482,0.755 11.059,1.175 L13.449,2.854 C13.844,3.143 13.975,3.222 13.975,3.537 L13.975,12.749 C13.975,13.327 13.765,13.668 13.029,13.72 L4.335,14.245 C3.783,14.272 3.52,14.193 3.231,13.825 L1.471,11.542 C1.156,11.122 1.025,10.807 1.025,10.439 L1.025,2.25 C1.025,1.778 1.235,1.384 1.839,1.332 Z"/>
</svg>

