<svg xmlns="http://www.w3.org/2000/svg" width="15" height="15" viewBox="0 0 15 15">
  <defs/>
  <path fill="currentColor" opacity="0.05" d="M12.14,3.886 C13.855,4.942 15,6.837 15,9 C15,12.314 12.314,15 9,15 C6.844,15 4.953,13.862 3.896,12.155 L4.321,11.892 C5.291,13.458 7.024,14.5 9,14.5 C12.038,14.5 14.5,12.038 14.5,9 C14.5,7.018 13.452,5.28 11.878,4.312 Z"/>
  <path fill="currentColor" opacity="0.2" d="M12.851,5.073 C13.868,6.071 14.5,7.462 14.5,9 C14.5,12.038 12.038,14.5 9,14.5 C7.462,14.5 6.071,13.868 5.073,12.851 L5.43,12.501 C6.338,13.426 7.602,14 9,14 C11.761,14 14,11.761 14,9 C14,7.602 13.426,6.338 12.501,5.43 Z"/>
  <path fill="currentColor" opacity="0.35" d="M13.302,6.451 C13.745,7.197 14,8.069 14,9 C14,11.761 11.761,14 9,14 C8.049,14 7.159,13.734 6.401,13.272 L6.661,12.845 C7.343,13.261 8.143,13.5 9,13.5 C11.485,13.5 13.5,11.485 13.5,9 C13.5,8.162 13.271,7.378 12.872,6.706 Z"/>
  <path fill="currentColor" opacity="0.5" d="M13.374,7.94 C13.457,8.28 13.5,8.635 13.5,9 C13.5,11.485 11.485,13.5 9,13.5 C8.611,13.5 8.233,13.451 7.873,13.358 L7.998,12.873 C8.318,12.956 8.654,13 9,13 C11.209,13 13,11.209 13,9 C13,8.675 12.961,8.36 12.888,8.058 Z"/>
  <path fill="currentColor" opacity="0.65" d="M12.915,9.821 C12.59,11.381 11.356,12.607 9.792,12.922 L9.694,12.431 C11.061,12.156 12.141,11.083 12.426,9.719 Z"/>
  <path fill="currentColor" d="M1.277,7.503 C1.277,4.065 4.064,1.278 7.502,1.278 C10.94,1.278 13.727,4.065 13.727,7.503 C13.727,10.941 10.94,13.727 7.502,13.727 C4.064,13.727 1.277,10.941 1.277,7.503 Z M7.502,2.228 C4.589,2.228 2.227,4.589 2.227,7.503 C2.227,10.416 4.589,12.778 7.502,12.778 C10.415,12.778 12.777,10.416 12.777,7.503 C12.777,4.589 10.415,2.228 7.502,2.228 Z"/>
</svg>

