<svg xmlns="http://www.w3.org/2000/svg" width="15" height="15" viewBox="0 0 15 15">
  <defs/>
  <path fill="currentColor" d="M1,2.857 C1,1.831 1.831,1 2.857,1 L12.143,1 C13.168,1 14,1.831 14,2.857 L14,12.143 C14,13.168 13.168,14 12.143,14 L2.857,14 C1.831,14 1,13.168 1,12.143 Z M2.857,2 C2.384,2 2,2.384 2,2.857 L2,12.143 C2,12.616 2.384,13 2.857,13 L12.143,13 C12.616,13 13,12.616 13,12.143 L13,2.857 C13,2.384 12.616,2 12.143,2 Z M11,10.5 C11,10.776 10.776,11 10.5,11 C10.224,11 10,10.776 10,10.5 C10,10.224 10.224,10 10.5,10 C10.776,10 11,10.224 11,10.5 Z M11,4.5 C11,4.776 10.776,5 10.5,5 C10.224,5 10,4.776 10,4.5 C10,4.224 10.224,4 10.5,4 C10.776,4 11,4.224 11,4.5 Z M10.5,8 C10.224,8 10,7.776 10,7.5 C10,7.224 10.224,7 10.5,7 C10.776,7 11,7.224 11,7.5 C11,7.776 10.776,8 10.5,8 Z M7.5,11 C7.224,11 7,10.776 7,10.5 C7,10.224 7.224,10 7.5,10 C7.776,10 8,10.224 8,10.5 C8,10.776 7.776,11 7.5,11 Z M4.5,11 C4.224,11 4,10.776 4,10.5 C4,10.224 4.224,10 4.5,10 C4.776,10 5,10.224 5,10.5 C5,10.776 4.776,11 4.5,11 Z M7.5,5 C7.224,5 7,4.776 7,4.5 C7,4.224 7.224,4 7.5,4 C7.776,4 8,4.224 8,4.5 C8,4.776 7.776,5 7.5,5 Z M5,7.5 C5,7.776 4.776,8 4.5,8 C4.224,8 4,7.776 4,7.5 C4,7.224 4.224,7 4.5,7 C4.776,7 5,7.224 5,7.5 Z M4.5,5 C4.224,5 4,4.776 4,4.5 C4,4.224 4.224,4 4.5,4 C4.776,4 5,4.224 5,4.5 C5,4.776 4.776,5 4.5,5 Z"/>
</svg>

