<svg xmlns="http://www.w3.org/2000/svg" width="15" height="15" viewBox="0 0 15 15">
  <defs/>
  <path fill="currentColor" d="M12.146,1.146 C12.342,0.951 12.658,0.951 12.854,1.146 L14.854,3.146 C15.049,3.342 15.049,3.658 14.854,3.854 L10.911,7.796 C10.835,7.872 10.747,7.935 10.651,7.984 L6.724,9.947 C6.531,10.043 6.299,10.006 6.146,9.854 C5.994,9.701 5.957,9.469 6.053,9.276 L8.016,5.349 C8.065,5.253 8.128,5.165 8.204,5.089 Z M10,2 L9,3 L4.9,3 C4.472,3 4.181,3 3.956,3.019 C3.736,3.037 3.624,3.069 3.546,3.109 C3.358,3.205 3.205,3.358 3.109,3.546 C3.069,3.624 3.037,3.736 3.019,3.956 C3,4.181 3,4.472 3,4.9 L3,11.1 C3,11.528 3,11.819 3.019,12.045 C3.037,12.264 3.069,12.376 3.109,12.454 C3.205,12.642 3.358,12.795 3.546,12.891 C3.624,12.931 3.736,12.963 3.956,12.981 C4.181,13 4.472,13 4.9,13 L11.1,13 C11.528,13 11.819,13 12.045,12.981 C12.264,12.963 12.376,12.931 12.454,12.891 C12.642,12.795 12.795,12.642 12.891,12.454 C12.931,12.376 12.963,12.264 12.981,12.045 C13,11.819 13,11.528 13,11.1 L13,7 L14,6 L14,11.121 C14,11.523 14,11.855 13.978,12.126 C13.955,12.407 13.906,12.665 13.782,12.908 C13.59,13.284 13.284,13.59 12.908,13.782 C12.665,13.906 12.407,13.955 12.126,13.978 C11.855,14 11.523,14 11.121,14 L4.879,14 C4.477,14 4.145,14 3.874,13.978 C3.593,13.955 3.335,13.906 3.092,13.782 C2.716,13.59 2.41,13.284 2.218,12.908 C2.094,12.665 2.045,12.407 2.022,12.126 C2,11.855 2,11.523 2,11.121 L2,4.879 C2,4.477 2,4.145 2.022,3.874 C2.045,3.593 2.094,3.335 2.218,3.092 C2.41,2.716 2.716,2.41 3.092,2.218 C3.335,2.094 3.593,2.045 3.874,2.022 C4.145,2 4.477,2 4.879,2 Z M12.5,2.207 L8.911,5.796 L7.873,7.873 L8.127,8.127 L10.204,7.089 L13.793,3.5 Z"/>
</svg>

