<svg xmlns="http://www.w3.org/2000/svg" width="15" height="15" viewBox="0 0 15 15">
  <defs/>
  <path fill="currentColor" d="M11.854,1.146 L13.854,3.146 C14.049,3.342 14.049,3.658 13.854,3.854 L6.422,11.285 C6.332,11.375 6.225,11.447 6.108,11.498 L2.697,12.96 C2.509,13.04 2.291,12.998 2.146,12.854 C2.002,12.709 1.96,12.491 2.04,12.303 L3.503,8.892 C3.553,8.775 3.625,8.668 3.715,8.578 L11.146,1.146 C11.342,0.951 11.658,0.951 11.854,1.146 Z M4.422,9.285 L3.781,10.781 L4.219,11.219 L5.715,10.578 L12.793,3.5 L11.5,2.207 Z"/>
</svg>

