<svg xmlns="http://www.w3.org/2000/svg" width="15" height="15" viewBox="0 0 15 15">
  <defs/>
  <path fill="currentColor" d="M3.932,7.432 L7.182,4.182 C7.358,4.006 7.643,4.006 7.818,4.182 L11.068,7.432 C11.244,7.607 11.244,7.892 11.068,8.068 C10.892,8.244 10.608,8.244 10.432,8.068 L7.95,5.586 L7.95,13.5 C7.95,13.748 7.749,13.95 7.5,13.95 C7.252,13.95 7.05,13.748 7.05,13.5 L7.05,5.586 L4.568,8.068 C4.393,8.244 4.108,8.244 3.932,8.068 C3.756,7.892 3.756,7.607 3.932,7.432 Z M1.5,1.05 L13.5,1.05 C13.749,1.05 13.95,1.252 13.95,1.5 C13.95,1.749 13.749,1.95 13.5,1.95 L1.5,1.95 C1.252,1.95 1.05,1.749 1.05,1.5 C1.05,1.252 1.252,1.05 1.5,1.05 Z"/>
</svg>

