<svg xmlns="http://www.w3.org/2000/svg" width="15" height="15" viewBox="0 0 15 15">
  <defs/>
  <path fill="currentColor" d="M8.432,11.068 L5.182,7.818 C5.006,7.642 5.006,7.357 5.182,7.182 L8.432,3.932 C8.607,3.756 8.892,3.756 9.068,3.932 C9.244,4.107 9.244,4.392 9.068,4.568 L6.586,7.05 L14.5,7.05 C14.748,7.05 14.95,7.251 14.95,7.5 C14.95,7.748 14.748,7.95 14.5,7.95 L6.586,7.95 L9.068,10.432 C9.244,10.608 9.244,10.892 9.068,11.068 C8.892,11.244 8.607,11.244 8.432,11.068 Z M2.05,13.5 L2.05,1.5 C2.05,1.251 2.252,1.05 2.5,1.05 C2.749,1.05 2.95,1.251 2.95,1.5 L2.95,13.5 C2.95,13.748 2.749,13.95 2.5,13.95 C2.252,13.95 2.05,13.748 2.05,13.5 Z"/>
</svg>

