<svg xmlns="http://www.w3.org/2000/svg" width="15" height="15" viewBox="0 0 15 15">
  <defs/>
  <path fill="currentColor" d="M6.568,3.932 L9.818,7.182 C9.994,7.358 9.994,7.643 9.818,7.818 L6.568,11.068 C6.393,11.244 6.108,11.244 5.932,11.068 C5.756,10.892 5.756,10.608 5.932,10.432 L8.414,7.95 L0.5,7.95 C0.251,7.95 0.05,7.749 0.05,7.5 C0.05,7.252 0.251,7.05 0.5,7.05 L8.414,7.05 L5.932,4.568 C5.756,4.393 5.756,4.108 5.932,3.932 C6.108,3.756 6.393,3.756 6.568,3.932 Z M12.95,1.5 L12.95,13.5 C12.95,13.749 12.748,13.95 12.5,13.95 C12.251,13.95 12.05,13.749 12.05,13.5 L12.05,1.5 C12.05,1.252 12.251,1.05 12.5,1.05 C12.748,1.05 12.95,1.252 12.95,1.5 Z"/>
</svg>

