<svg xmlns="http://www.w3.org/2000/svg" width="15" height="15" viewBox="0 0 15 15">
  <defs/>
  <path fill="currentColor" d="M0.877,7.5 C0.877,3.842 3.842,0.877 7.5,0.877 C11.158,0.877 14.123,3.842 14.123,7.5 C14.123,11.157 11.158,14.123 7.5,14.123 C3.842,14.123 0.877,11.157 0.877,7.5 Z M7.5,1.827 C4.367,1.827 1.827,4.367 1.827,7.5 C1.827,10.633 4.367,13.173 7.5,13.173 C10.633,13.173 13.173,10.633 13.173,7.5 C13.173,4.367 10.633,1.827 7.5,1.827 Z M6.05,6.25 C6.05,6.554 5.804,6.8 5.5,6.8 C5.196,6.8 4.95,6.554 4.95,6.25 C4.95,4.928 6.065,3.825 7.5,3.825 C8.935,3.825 10.05,4.928 10.05,6.25 C10.05,7.354 9.32,7.89 8.786,8.215 C8.683,8.277 8.594,8.329 8.516,8.374 L8.516,8.374 C8.365,8.462 8.252,8.527 8.151,8.606 C8.085,8.657 8.059,8.69 8.051,8.703 L8.05,8.704 C8.048,9.006 7.802,9.25 7.5,9.25 C7.196,9.25 6.95,9.004 6.95,8.7 C6.95,8.232 7.232,7.927 7.474,7.738 C7.638,7.611 7.855,7.485 8.038,7.379 L8.038,7.379 C8.103,7.341 8.163,7.307 8.214,7.275 C8.68,6.992 8.95,6.741 8.95,6.25 C8.95,5.572 8.365,4.925 7.5,4.925 C6.635,4.925 6.05,5.572 6.05,6.25 Z M8.25,10.5 C8.25,10.914 7.914,11.25 7.5,11.25 C7.086,11.25 6.75,10.914 6.75,10.5 C6.75,10.086 7.086,9.75 7.5,9.75 C7.914,9.75 8.25,10.086 8.25,10.5 Z"/>
</svg>

