<svg xmlns="http://www.w3.org/2000/svg" width="15" height="15" viewBox="0 0 15 15">
  <defs/>
  <path fill="currentColor" d="M5.075,4.1 C5.075,4.418 4.818,4.675 4.5,4.675 C4.182,4.675 3.925,4.418 3.925,4.1 C3.925,2.128 5.781,0.775 7.5,0.775 C9.219,0.775 11.075,2.128 11.075,4.1 C11.075,5.738 10.15,6.558 9.402,7.221 L9.382,7.239 C8.629,7.906 8.075,8.415 8.075,9.5 C8.075,9.818 7.818,10.075 7.5,10.075 C7.182,10.075 6.925,9.818 6.925,9.5 C6.925,7.88 7.845,7.065 8.588,6.406 L8.619,6.379 C9.368,5.714 9.925,5.199 9.925,4.1 C9.925,2.911 8.743,1.925 7.5,1.925 C6.257,1.925 5.075,2.911 5.075,4.1 Z M7.5,13.358 C7.017,13.358 6.625,12.966 6.625,12.483 C6.625,11.999 7.017,11.608 7.5,11.608 C7.983,11.608 8.375,11.999 8.375,12.483 C8.375,12.966 7.983,13.358 7.5,13.358 Z"/>
</svg>

