<svg xmlns="http://www.w3.org/2000/svg" width="15" height="15" viewBox="0 0 15 15">
  <defs/>
  <path fill="currentColor" d="M3.425,3.441 C4.056,3.237 4.784,3.24 5.379,3.546 C6.753,4.252 7.348,6.072 6.795,8 C6.547,8.865 6.11,9.705 5.186,10.552 C4.262,11.4 2.98,11.9 2.386,11.9 C2.173,11.9 2,11.732 2,11.525 C2,11.318 2.176,11.15 2.386,11.15 C3.065,11.15 3.672,10.78 4.391,10.236 C4.941,9.819 5.37,9.286 5.608,8.822 C6.063,7.934 6.078,6.682 5.343,6.349 C4.99,6.735 4.529,6.959 3.977,6.959 C2.777,6.959 2.07,5.994 2.101,5.12 C2.13,4.285 2.66,3.69 3.425,3.441 Z M9.425,3.441 C10.056,3.237 10.784,3.24 11.379,3.546 C12.753,4.252 13.348,6.072 12.795,8 C12.547,8.865 12.11,9.705 11.186,10.552 C10.262,11.4 8.98,11.9 8.386,11.9 C8.173,11.9 8,11.732 8,11.525 C8,11.318 8.176,11.15 8.386,11.15 C9.065,11.15 9.672,10.78 10.391,10.236 C10.941,9.819 11.37,9.286 11.608,8.822 C12.063,7.934 12.078,6.682 11.343,6.349 C10.99,6.735 10.53,6.959 9.977,6.959 C8.777,6.959 8.07,5.994 8.101,5.12 C8.13,4.285 8.66,3.69 9.425,3.441 Z"/>
</svg>

