<svg xmlns="http://www.w3.org/2000/svg" width="15" height="15" viewBox="0 0 15 15">
  <defs/>
  <path fill="currentColor" d="M1.85,7.5 C1.85,10.335 4.06,13.15 7.5,13.15 C9.165,13.15 10.53,12.496 11.501,11.507 C12.025,10.974 12.436,10.342 12.717,9.66 C12.822,9.405 13.114,9.283 13.37,9.388 C13.625,9.493 13.747,9.785 13.642,10.041 C13.313,10.839 12.832,11.581 12.215,12.208 C11.062,13.381 9.444,14.15 7.5,14.15 C3.437,14.15 0.85,10.815 0.85,7.5 C0.85,4.185 3.437,0.85 7.5,0.85 C10.666,0.85 12.295,3.071 13,4.313 L13,2.5 C13,2.224 13.224,2 13.5,2 C13.776,2 14,2.224 14,2.5 L14,5.5 C14,5.776 13.776,6 13.5,6 L10.5,6 C10.224,6 10,5.776 10,5.5 C10,5.224 10.224,5 10.5,5 L12.237,5 C11.651,3.906 10.278,1.85 7.5,1.85 C4.06,1.85 1.85,4.665 1.85,7.5 Z"/>
</svg>

