<svg xmlns="http://www.w3.org/2000/svg" width="15" height="15" viewBox="0 0 15 15">
  <defs/>
  <path fill="currentColor" d="M4.854,2.146 C5.049,2.342 5.049,2.658 4.854,2.854 L3.707,4 L9,4 C11.485,4 13.5,6.015 13.5,8.5 C13.5,10.985 11.485,13 9,13 L5,13 C4.724,13 4.5,12.776 4.5,12.5 C4.5,12.224 4.724,12 5,12 L9,12 C10.933,12 12.5,10.433 12.5,8.5 C12.5,6.567 10.933,5 9,5 L3.707,5 L4.854,6.146 C5.049,6.342 5.049,6.658 4.854,6.854 C4.658,7.049 4.342,7.049 4.146,6.854 L2.146,4.854 C1.951,4.658 1.951,4.342 2.146,4.146 L4.146,2.146 C4.342,1.951 4.658,1.951 4.854,2.146 Z"/>
</svg>

