<svg xmlns="http://www.w3.org/2000/svg" width="15" height="15" viewBox="0 0 15 15">
  <defs/>
  <path fill="currentColor" d="M2.5,4 L9.5,4 C10.328,4 11,4.672 11,5.5 L11,12.5 C11,13.328 10.328,14 9.5,14 L2.5,14 C1.672,14 1,13.328 1,12.5 L1,5.5 C1,4.672 1.672,4 2.5,4 Z M9.5,5 L2.5,5 C2.224,5 2,5.224 2,5.5 L2,12.5 C2,12.776 2.224,13 2.5,13 L9.5,13 C9.776,13 10,12.776 10,12.5 L10,5.5 C10,5.224 9.776,5 9.5,5 Z M7.597,2.936 L6.004,1.697 C5.875,1.597 5.875,1.403 6.004,1.303 L7.597,0.064 C7.761,-0.064 8,0.053 8,0.261 L8,1 C10.056,1 11.603,1.368 12.618,2.382 C13.632,3.397 14,4.944 14,7 C14,7.276 13.776,7.5 13.5,7.5 C13.224,7.5 13,7.276 13,7 C13,5.019 12.636,3.815 11.91,3.089 C11.185,2.364 9.981,2 8,2 L8,2.739 C8,2.947 7.761,3.064 7.597,2.936 Z"/>
</svg>

