<svg xmlns="http://www.w3.org/2000/svg" width="15" height="15" viewBox="0 0 15 15">
  <defs/>
  <path fill="currentColor" d="M1.5,7 L13.5,7 C13.776,7 14,7.224 14,7.5 C14,7.776 13.776,8 13.5,8 L1.5,8 C1.224,8 1,7.776 1,7.5 C1,7.224 1.224,7 1.5,7 Z M7.818,0.682 L9.818,2.682 C9.994,2.858 9.994,3.142 9.818,3.318 C9.643,3.494 9.358,3.494 9.182,3.318 L7.95,2.086 L7.95,5.5 C7.95,5.749 7.749,5.95 7.5,5.95 C7.252,5.95 7.05,5.749 7.05,5.5 L7.05,2.086 L5.818,3.318 C5.643,3.494 5.358,3.494 5.182,3.318 C5.006,3.142 5.006,2.858 5.182,2.682 L7.182,0.682 C7.358,0.506 7.643,0.506 7.818,0.682 Z M7.95,12.914 L9.182,11.682 C9.358,11.506 9.643,11.506 9.818,11.682 C9.994,11.858 9.994,12.142 9.818,12.318 L7.818,14.318 C7.734,14.403 7.619,14.45 7.5,14.45 C7.381,14.45 7.266,14.403 7.182,14.318 L5.182,12.318 C5.006,12.142 5.006,11.858 5.182,11.682 C5.358,11.506 5.643,11.506 5.818,11.682 L7.05,12.914 L7.05,9.5 C7.05,9.252 7.252,9.05 7.5,9.05 C7.749,9.05 7.95,9.252 7.95,9.5 Z"/>
</svg>

