<svg xmlns="http://www.w3.org/2000/svg" width="15" height="15" viewBox="0 0 15 15">
  <defs/>
  <path fill="currentColor" d="M0.5,4 L14.5,4 C14.776,4 15,4.224 15,4.5 L15,10.5 C15,10.776 14.776,11 14.5,11 L0.5,11 C0.224,11 0,10.776 0,10.5 L0,4.5 C0,4.224 0.224,4 0.5,4 Z M1,10 L14,10 L14,5 L12.925,5 L12.925,6.5 C12.925,6.735 12.735,6.925 12.5,6.925 C12.265,6.925 12.075,6.735 12.075,6.5 L12.075,5 L10.925,5 L10.925,6.5 C10.925,6.735 10.735,6.925 10.5,6.925 C10.265,6.925 10.075,6.735 10.075,6.5 L10.075,5 L8.925,5 L8.925,7.5 C8.925,7.735 8.735,7.925 8.5,7.925 C8.265,7.925 8.075,7.735 8.075,7.5 L8.075,5 L6.925,5 L6.925,6.5 C6.925,6.735 6.735,6.925 6.5,6.925 C6.265,6.925 6.075,6.735 6.075,6.5 L6.075,5 L4.925,5 L4.925,6.5 C4.925,6.735 4.735,6.925 4.5,6.925 C4.265,6.925 4.075,6.735 4.075,6.5 L4.075,5 L2.925,5 L2.925,7.5 C2.925,7.735 2.735,7.925 2.5,7.925 C2.265,7.925 2.075,7.735 2.075,7.5 L2.075,5 L1,5 Z"/>
</svg>

