<svg xmlns="http://www.w3.org/2000/svg" width="15" height="15" viewBox="0 0 15 15">
  <defs/>
  <path fill="currentColor" d="M0.5,0 L14.5,0 C14.776,0 15,0.224 15,0.5 L15,4.5 C15,4.776 14.776,5 14.5,5 L5,5 L5,14.5 C5,14.776 4.776,15 4.5,15 L0.5,15 C0.224,15 0,14.776 0,14.5 L0,0.5 C0,0.224 0.224,0 0.5,0 Z M4.925,4 L6.075,4 L6.075,2.75 C6.075,2.515 6.265,2.325 6.5,2.325 C6.735,2.325 6.925,2.515 6.925,2.75 L6.925,4 L8.075,4 L8.075,2.75 C8.075,2.515 8.265,2.325 8.5,2.325 C8.735,2.325 8.925,2.515 8.925,2.75 L8.925,4 L10.075,4 L10.075,2.25 C10.075,2.015 10.265,1.825 10.5,1.825 C10.735,1.825 10.925,2.015 10.925,2.25 L10.925,4 L12.075,4 L12.075,2.75 C12.075,2.515 12.265,2.325 12.5,2.325 C12.735,2.325 12.925,2.515 12.925,2.75 L12.925,4 L14,4 L14,1 L4.925,1 Z M1,4.925 L1,14 L4,14 L4,12.925 L2.75,12.925 C2.515,12.925 2.325,12.735 2.325,12.5 C2.325,12.265 2.515,12.075 2.75,12.075 L4,12.075 L4,10.925 L2.25,10.925 C2.015,10.925 1.825,10.735 1.825,10.5 C1.825,10.265 2.015,10.075 2.25,10.075 L4,10.075 L4,8.925 L2.75,8.925 C2.515,8.925 2.325,8.735 2.325,8.5 C2.325,8.265 2.515,8.075 2.75,8.075 L4,8.075 L4,6.925 L2.75,6.925 C2.515,6.925 2.325,6.735 2.325,6.5 C2.325,6.265 2.515,6.075 2.75,6.075 L4,6.075 L4,4.925 Z M1,4.075 L4.075,4.075 L4.075,1 L1,1 Z"/>
</svg>

