<svg xmlns="http://www.w3.org/2000/svg" width="15" height="15" viewBox="0 0 15 15">
  <defs/>
  <path fill="currentColor" d="M2,4 L13,4 C13.552,4 14,4.448 14,5 L14,10 C14,10.552 13.552,11 13,11 L2,11 C1.448,11 1,10.552 1,10 L1,5 C1,4.448 1.448,4 2,4 Z M2,5 L2,10 L13,10 L13,5 Z M6,1.5 C6,1.776 5.776,2 5.5,2 C5.224,2 5,1.776 5,1.5 C5,1.224 5.224,1 5.5,1 C5.776,1 6,1.224 6,1.5 Z M8,1.5 C8,1.776 7.776,2 7.5,2 C7.224,2 7,1.776 7,1.5 C7,1.224 7.224,1 7.5,1 C7.776,1 8,1.224 8,1.5 Z M10,1.5 C10,1.776 9.776,2 9.5,2 C9.224,2 9,1.776 9,1.5 C9,1.224 9.224,1 9.5,1 C9.776,1 10,1.224 10,1.5 Z M2,1.5 C2,1.776 1.776,2 1.5,2 C1.224,2 1,1.776 1,1.5 C1,1.224 1.224,1 1.5,1 C1.776,1 2,1.224 2,1.5 Z M4,1.5 C4,1.776 3.776,2 3.5,2 C3.224,2 3,1.776 3,1.5 C3,1.224 3.224,1 3.5,1 C3.776,1 4,1.224 4,1.5 Z M5.5,14 C5.224,14 5,13.776 5,13.5 C5,13.224 5.224,13 5.5,13 C5.776,13 6,13.224 6,13.5 C6,13.776 5.776,14 5.5,14 Z M7.5,14 C7.224,14 7,13.776 7,13.5 C7,13.224 7.224,13 7.5,13 C7.776,13 8,13.224 8,13.5 C8,13.776 7.776,14 7.5,14 Z M9.5,14 C9.224,14 9,13.776 9,13.5 C9,13.224 9.224,13 9.5,13 C9.776,13 10,13.224 10,13.5 C10,13.776 9.776,14 9.5,14 Z M1.5,14 C1.224,14 1,13.776 1,13.5 C1,13.224 1.224,13 1.5,13 C1.776,13 2,13.224 2,13.5 C2,13.776 1.776,14 1.5,14 Z M3.5,14 C3.224,14 3,13.776 3,13.5 C3,13.224 3.224,13 3.5,13 C3.776,13 4,13.224 4,13.5 C4,13.776 3.776,14 3.5,14 Z M12,1.5 C12,1.776 11.776,2 11.5,2 C11.224,2 11,1.776 11,1.5 C11,1.224 11.224,1 11.5,1 C11.776,1 12,1.224 12,1.5 Z M14,1.5 C14,1.776 13.776,2 13.5,2 C13.224,2 13,1.776 13,1.5 C13,1.224 13.224,1 13.5,1 C13.776,1 14,1.224 14,1.5 Z M11.5,14 C11.224,14 11,13.776 11,13.5 C11,13.224 11.224,13 11.5,13 C11.776,13 12,13.224 12,13.5 C12,13.776 11.776,14 11.5,14 Z M13.5,14 C13.224,14 13,13.776 13,13.5 C13,13.224 13.224,13 13.5,13 C13.776,13 14,13.224 14,13.5 C14,13.776 13.776,14 13.5,14 Z"/>
</svg>

