<svg xmlns="http://www.w3.org/2000/svg" width="15" height="15" viewBox="0 0 15 15">
  <defs/>
  <path fill="currentColor" opacity="0.05" d="M12.162,3.852 C8.358,4.889 4.889,8.358 3.852,12.162 L3.37,12.03 C4.454,8.056 8.056,4.453 12.03,3.369 Z"/>
  <path fill="currentColor" opacity="0.1" d="M11.881,3.427 C8.034,4.505 4.506,8.034 3.427,11.88 L2.946,11.746 C4.071,7.731 7.731,4.071 11.746,2.946 Z"/>
  <path fill="currentColor" opacity="0.15" d="M11.52,3.026 C7.691,4.162 4.168,7.683 3.028,11.512 L2.549,11.369 C3.737,7.379 7.387,3.731 11.378,2.546 Z"/>
  <path fill="currentColor" opacity="0.2" d="M11.047,2.662 C7.311,3.877 3.879,7.308 2.663,11.043 L2.188,10.889 C3.453,7.001 7.004,3.451 10.892,2.186 Z"/>
  <path fill="currentColor" opacity="0.25" d="M10.52,2.324 C6.921,3.614 3.624,6.909 2.328,10.507 L1.858,10.338 C3.204,6.599 6.612,3.194 10.351,1.853 Z"/>
  <path fill="currentColor" opacity="0.3" d="M9.902,2.031 C6.5,3.395 3.4,6.494 2.034,9.896 L1.57,9.709 C2.987,6.181 6.187,2.981 9.716,1.567 Z"/>
  <path fill="currentColor" opacity="0.35" d="M9.207,1.789 C6.061,3.203 3.211,6.052 1.793,9.197 L1.337,8.992 C2.805,5.735 5.745,2.798 9.002,1.333 Z"/>
  <path fill="currentColor" opacity="0.4" d="M8.407,1.621 C5.593,3.051 3.058,5.585 1.625,8.398 L1.18,8.172 C2.66,5.264 5.272,2.653 8.181,1.175 Z"/>
  <path fill="currentColor" opacity="0.45" d="M7.462,1.567 C5.087,2.947 2.954,5.079 1.572,7.454 L1.14,7.202 C2.565,4.753 4.761,2.558 7.211,1.135 Z"/>
  <path fill="currentColor" opacity="0.5" d="M6.304,1.705 C4.52,2.911 2.91,4.521 1.704,6.305 L1.29,6.025 C2.531,4.188 4.187,2.532 6.024,1.291 Z"/>
  <path fill="currentColor" d="M0.877,7.5 C0.877,3.842 3.842,0.877 7.5,0.877 C11.158,0.877 14.123,3.842 14.123,7.5 C14.123,11.158 11.158,14.123 7.5,14.123 C3.842,14.123 0.877,11.158 0.877,7.5 Z M7.5,1.827 C4.367,1.827 1.827,4.367 1.827,7.5 C1.827,10.633 4.367,13.173 7.5,13.173 C10.633,13.173 13.173,10.633 13.173,7.5 C13.173,4.367 10.633,1.827 7.5,1.827 Z"/>
</svg>

