<svg xmlns="http://www.w3.org/2000/svg" width="15" height="15" viewBox="0 0 15 15">
  <defs/>
  <path fill="currentColor" d="M3.5,5 C3.224,5 3,5.224 3,5.5 L3,11.5 C3,11.776 3.224,12 3.5,12 L11.5,12 C11.776,12 12,11.776 12,11.5 L12,5.5 C12,5.224 11.776,5 11.5,5 L10.25,5 C9.974,5 9.75,4.776 9.75,4.5 C9.75,4.224 9.974,4 10.25,4 L11.5,4 C12.328,4 13,4.672 13,5.5 L13,11.5 C13,12.328 12.328,13 11.5,13 L3.5,13 C2.672,13 2,12.328 2,11.5 L2,5.5 C2,4.672 2.672,4 3.5,4 L4.75,4 C5.026,4 5.25,4.224 5.25,4.5 C5.25,4.776 5.026,5 4.75,5 Z M7,1.636 L5.568,3.068 C5.392,3.244 5.108,3.244 4.932,3.068 C4.756,2.892 4.756,2.608 4.932,2.432 L7.182,0.182 C7.266,0.097 7.381,0.05 7.5,0.05 C7.619,0.05 7.734,0.097 7.818,0.182 L10.068,2.432 C10.244,2.608 10.244,2.892 10.068,3.068 C9.892,3.244 9.608,3.244 9.432,3.068 L8,1.636 L8,8.5 C8,8.776 7.776,9 7.5,9 C7.224,9 7,8.776 7,8.5 Z"/>
</svg>

