<svg xmlns="http://www.w3.org/2000/svg" width="15" height="15" viewBox="0 0 15 15">
  <defs/>
  <path fill="currentColor" d="M12.354,1.146 L14.354,3.146 C14.549,3.342 14.549,3.658 14.354,3.854 L12.354,5.854 C12.158,6.049 11.842,6.049 11.646,5.854 C11.451,5.658 11.451,5.342 11.646,5.146 L12.793,4 L12,4 C11.046,4 10.289,4.416 9.565,5.111 C8.961,5.691 8.417,6.427 7.82,7.234 L7.82,7.234 L7.82,7.235 C7.683,7.42 7.544,7.608 7.4,7.8 C5.891,9.812 4.01,12 0.5,12 C0.224,12 0,11.776 0,11.5 C0,11.224 0.224,11 0.5,11 C3.49,11 5.109,9.188 6.6,7.2 C6.732,7.025 6.863,6.847 6.995,6.668 C7.593,5.857 8.201,5.034 8.872,4.389 C9.711,3.584 10.704,3 12,3 L12.793,3 L11.646,1.854 C11.451,1.658 11.451,1.342 11.646,1.146 C11.842,0.951 12.158,0.951 12.354,1.146 Z M8.872,10.611 C8.373,10.131 7.909,9.553 7.458,8.955 C7.647,8.717 7.827,8.481 8,8.25 L8.09,8.13 C8.584,8.794 9.053,9.398 9.565,9.889 C10.289,10.584 11.046,11 12,11 L12.793,11 L11.646,9.854 C11.451,9.658 11.451,9.342 11.646,9.146 C11.842,8.951 12.158,8.951 12.354,9.146 L14.354,11.146 C14.549,11.342 14.549,11.658 14.354,11.854 L12.354,13.854 C12.158,14.049 11.842,14.049 11.646,13.854 C11.451,13.658 11.451,13.342 11.646,13.146 L12.793,12 L12,12 C10.704,12 9.711,11.416 8.872,10.611 Z M0.5,3 C3.353,3 5.13,4.446 6.505,6.067 L6.376,6.243 C6.248,6.416 6.123,6.586 6,6.75 C5.964,6.798 5.928,6.846 5.892,6.893 C4.573,5.293 3.026,4 0.5,4 C0.224,4 0,3.776 0,3.5 C0,3.224 0.224,3 0.5,3 Z"/>
</svg>

