<svg xmlns="http://www.w3.org/2000/svg" width="15" height="15" viewBox="0 0 15 15">
  <defs/>
  <path fill="currentColor" d="M11.205,8 C10.97,9.28 9.848,10.25 8.5,10.25 C7.152,10.25 6.03,9.28 5.795,8 L0.5,8 C0.224,8 0,7.776 0,7.5 C0,7.224 0.224,7 0.5,7 L5.795,7 C6.03,5.72 7.152,4.749 8.5,4.749 C9.848,4.749 10.97,5.72 11.205,7 L14.5,7 C14.776,7 15,7.224 15,7.5 C15,7.776 14.776,8 14.5,8 Z M10.3,7.5 C10.3,6.506 9.494,5.699 8.5,5.699 C7.505,5.699 6.699,6.506 6.699,7.5 C6.699,8.494 7.505,9.3 8.5,9.3 C9.494,9.3 10.3,8.494 10.3,7.5 Z"/>
</svg>

