<svg xmlns="http://www.w3.org/2000/svg" width="15" height="15" viewBox="0 0 15 15">
  <defs/>
  <path fill="currentColor" d="M7.47,1.051 C7.641,1.135 7.75,1.309 7.75,1.5 L7.75,13.5 C7.75,13.691 7.641,13.865 7.47,13.949 C7.298,14.033 7.094,14.012 6.943,13.895 L3.221,11 L1.5,11 C0.672,11 0,10.328 0,9.5 L0,5.5 C0,4.672 0.672,4 1.5,4 L3.221,4 L6.943,1.105 C7.094,0.988 7.298,0.967 7.47,1.051 Z M6.75,2.522 L3.7,4.895 C3.612,4.963 3.504,5 3.393,5 L1.5,5 C1.224,5 1,5.224 1,5.5 L1,9.5 C1,9.776 1.224,10 1.5,10 L3.393,10 C3.504,10 3.612,10.037 3.7,10.105 L6.75,12.478 Z M12.679,1.43 C15.641,4.926 15.641,10.074 12.679,13.57 C12.536,13.738 12.283,13.759 12.115,13.616 C11.946,13.473 11.925,13.221 12.068,13.052 C14.777,9.855 14.777,5.145 12.068,1.948 C11.925,1.779 11.946,1.527 12.115,1.384 C12.283,1.241 12.536,1.262 12.679,1.43 Z M10.278,3.848 C10.462,3.726 10.711,3.776 10.833,3.959 C12.256,6.098 12.256,8.902 10.833,11.04 C10.711,11.224 10.462,11.274 10.278,11.152 C10.094,11.03 10.045,10.781 10.167,10.597 C11.411,8.727 11.411,6.273 10.167,4.403 C10.045,4.219 10.094,3.97 10.278,3.848 Z"/>
</svg>

