<svg xmlns="http://www.w3.org/2000/svg" width="15" height="15" viewBox="0 0 15 15">
  <defs/>
  <path fill="currentColor" d="M6.979,1.252 L7.107,0.945 L7.223,0.666 C7.326,0.42 7.675,0.42 7.777,0.666 L7.893,0.945 L8.021,1.252 L8.042,1.302 L9.413,4.6 C9.457,4.704 9.554,4.775 9.666,4.784 L13.227,5.07 L13.282,5.074 L13.613,5.101 L13.914,5.125 C14.18,5.146 14.288,5.478 14.085,5.652 L13.856,5.848 L13.603,6.064 L13.562,6.1 L10.849,8.424 C10.764,8.497 10.726,8.612 10.752,8.721 L11.581,12.196 L11.594,12.249 L11.671,12.573 L11.741,12.866 C11.803,13.126 11.521,13.331 11.293,13.192 L11.035,13.034 L10.752,12.861 L10.705,12.833 L7.656,10.97 C7.56,10.912 7.44,10.912 7.344,10.97 L4.295,12.833 L4.249,12.861 L3.965,13.034 L3.707,13.192 C3.479,13.331 3.197,13.126 3.259,12.866 L3.329,12.573 L3.406,12.249 L3.419,12.196 L4.248,8.721 C4.274,8.612 4.236,8.497 4.151,8.424 L1.438,6.1 L1.397,6.064 L1.144,5.848 L0.915,5.652 C0.712,5.478 0.82,5.146 1.086,5.125 L1.387,5.101 L1.718,5.074 L1.773,5.07 L5.334,4.784 C5.446,4.775 5.543,4.704 5.587,4.6 Z M7.5,2.604 L6.51,4.984 C6.323,5.435 5.899,5.742 5.414,5.781 L2.844,5.987 L4.802,7.664 C5.172,7.981 5.334,8.479 5.22,8.953 L4.622,11.461 L6.822,10.117 C7.238,9.863 7.762,9.863 8.178,10.117 L10.378,11.461 L9.78,8.953 C9.667,8.479 9.828,7.981 10.198,7.664 L12.156,5.987 L9.587,5.781 C9.101,5.742 8.677,5.435 8.49,4.984 Z"/>
</svg>

