<svg xmlns="http://www.w3.org/2000/svg" width="15" height="15" viewBox="0 0 15 15">
  <defs/>
  <path fill="currentColor" d="M7.5,4.5 C9.157,4.5 10.5,5.843 10.5,7.5 C10.5,9.157 9.157,10.5 7.5,10.5 C5.843,10.5 4.5,9.157 4.5,7.5 C4.5,5.843 5.843,4.5 7.5,4.5 Z M5.5,7.5 C5.5,8.605 6.395,9.5 7.5,9.5 C8.605,9.5 9.5,8.605 9.5,7.5 C9.5,6.395 8.605,5.5 7.5,5.5 C6.395,5.5 5.5,6.395 5.5,7.5 Z M2.197,2.197 C2.392,2.001 2.709,2.001 2.904,2.197 L4.318,3.611 C4.513,3.806 4.513,4.123 4.318,4.318 C4.123,4.513 3.806,4.513 3.611,4.318 L2.197,2.904 C2.001,2.709 2.001,2.392 2.197,2.197 Z M2.197,12.803 C2.001,12.608 2.001,12.292 2.197,12.096 L3.611,10.682 C3.806,10.487 4.123,10.487 4.318,10.682 C4.513,10.877 4.513,11.194 4.318,11.389 L2.904,12.803 C2.709,12.999 2.392,12.999 2.197,12.803 Z M10.682,4.318 C10.487,4.123 10.487,3.806 10.682,3.611 L12.096,2.197 C12.292,2.001 12.608,2.001 12.803,2.197 C12.999,2.392 12.999,2.709 12.803,2.904 L11.389,4.318 C11.194,4.513 10.877,4.513 10.682,4.318 Z M10.682,10.682 C10.877,10.487 11.194,10.487 11.389,10.682 L12.803,12.096 C12.999,12.292 12.999,12.608 12.803,12.803 C12.608,12.999 12.292,12.999 12.096,12.803 L10.682,11.389 C10.487,11.194 10.487,10.877 10.682,10.682 Z M0.5,7 L2.5,7 C2.776,7 3,7.224 3,7.5 C3,7.776 2.776,8 2.5,8 L0.5,8 C0.224,8 0,7.776 0,7.5 C0,7.224 0.224,7 0.5,7 Z M7.5,0 C7.776,0 8,0.224 8,0.5 L8,2.5 C8,2.776 7.776,3 7.5,3 C7.224,3 7,2.776 7,2.5 L7,0.5 C7,0.224 7.224,0 7.5,0 Z M12.5,7 L14.5,7 C14.776,7 15,7.224 15,7.5 C15,7.776 14.776,8 14.5,8 L12.5,8 C12.224,8 12,7.776 12,7.5 C12,7.224 12.224,7 12.5,7 Z M8,12.5 L8,14.5 C8,14.776 7.776,15 7.5,15 C7.224,15 7,14.776 7,14.5 L7,12.5 C7,12.224 7.224,12 7.5,12 C7.776,12 8,12.224 8,12.5 Z"/>
</svg>

