<svg xmlns="http://www.w3.org/2000/svg" width="15" height="15" viewBox="0 0 15 15">
  <defs/>
  <path fill="currentColor" d="M1.903,7.297 C1.903,10.341 4.11,12.415 6.589,12.844 C6.873,12.893 7.063,13.163 7.014,13.446 C6.964,13.73 6.695,13.92 6.411,13.871 C3.499,13.367 0.861,10.913 0.861,7.297 C0.861,5.76 1.56,4.552 2.376,3.634 C2.961,2.976 3.63,2.441 4.168,2.032 L2.532,2.032 C2.256,2.032 2.032,1.808 2.032,1.532 C2.032,1.256 2.256,1.032 2.532,1.032 L5.532,1.032 C5.808,1.032 6.032,1.256 6.032,1.532 L6.032,4.532 C6.032,4.808 5.808,5.032 5.532,5.032 C5.256,5.032 5.032,4.808 5.032,4.532 L5.032,2.686 L5.031,2.688 L5.03,2.688 L5.03,2.688 L5.03,2.688 C4.459,3.119 3.761,3.645 3.156,4.326 C2.441,5.13 1.903,6.102 1.903,7.297 Z M13.011,7.703 C13.011,4.691 10.851,2.63 8.404,2.17 C8.121,2.117 7.935,1.845 7.988,1.562 C8.041,1.279 8.313,1.093 8.596,1.146 C11.47,1.685 14.053,4.126 14.053,7.703 C14.053,9.24 13.354,10.448 12.538,11.366 C11.953,12.024 11.284,12.559 10.746,12.968 L12.382,12.968 C12.658,12.968 12.882,13.192 12.882,13.468 C12.882,13.744 12.658,13.968 12.382,13.968 L9.382,13.968 C9.106,13.968 8.882,13.744 8.882,13.468 L8.882,10.468 C8.882,10.192 9.106,9.968 9.382,9.968 C9.658,9.968 9.882,10.192 9.882,10.468 L9.882,12.314 L9.884,12.312 C10.455,11.881 11.153,11.355 11.759,10.674 C12.473,9.87 13.011,8.898 13.011,7.703 Z"/>
</svg>

