<svg xmlns="http://www.w3.org/2000/svg" width="15" height="15" viewBox="0 0 15 15">
  <defs/>
  <path fill="currentColor" d="M1,2.5 C1,1.672 1.672,1 2.5,1 L12.5,1 C13.328,1 14,1.672 14,2.5 L14,12.5 C14,13.328 13.328,14 12.5,14 L2.5,14 C1.672,14 1,13.328 1,12.5 Z M2,6 L2,9 L7,9 L7,6 Z M8,6 L8,9 L13,9 L13,6 Z M7,5 L7,2 L2.5,2 C2.224,2 2,2.224 2,2.5 L2,5 Z M8,2 L8,5 L13,5 L13,2.5 C13,2.224 12.776,2 12.5,2 Z M2,12.5 C2,12.776 2.224,13 2.5,13 L7,13 L7,10 L2,10 Z M8,10 L8,13 L12.5,13 C12.776,13 13,12.776 13,12.5 L13,10 Z"/>
</svg>

