<svg xmlns="http://www.w3.org/2000/svg" width="15" height="15" viewBox="0 0 15 15">
  <defs/>
  <path fill="currentColor" d="M2,4.5 C2,4.224 2.224,4 2.5,4 L12.5,4 C12.776,4 13,4.224 13,4.5 C13,4.776 12.776,5 12.5,5 L2.5,5 C2.224,5 2,4.776 2,4.5 Z M4,10.5 C4,10.224 4.224,10 4.5,10 L12.5,10 C12.776,10 13,10.224 13,10.5 C13,10.776 12.776,11 12.5,11 L4.5,11 C4.224,11 4,10.776 4,10.5 Z M7,7.5 C7,7.224 7.224,7 7.5,7 L12.5,7 C12.776,7 13,7.224 13,7.5 C13,7.776 12.776,8 12.5,8 L7.5,8 C7.224,8 7,7.776 7,7.5 Z"/>
</svg>

