<svg xmlns="http://www.w3.org/2000/svg" width="15" height="15" viewBox="0 0 15 15">
  <defs/>
  <path fill="currentColor" d="M3.899,9.5 C3.899,9.721 3.72,9.9 3.499,9.9 C3.279,9.9 3.099,9.721 3.099,9.5 L3.099,2.466 L1.782,3.783 C1.626,3.939 1.373,3.939 1.217,3.783 C1.06,3.627 1.06,3.373 1.217,3.217 L3.217,1.217 C3.292,1.142 3.393,1.1 3.499,1.1 C3.606,1.1 3.707,1.142 3.782,1.217 L5.782,3.217 C5.939,3.373 5.939,3.627 5.782,3.783 C5.626,3.939 5.373,3.939 5.217,3.783 L3.899,2.466 Z M8,8.5 C8,8.224 8.224,8 8.5,8 L14.5,8 C14.776,8 15,8.224 15,8.5 C15,8.776 14.776,9 14.5,9 L8.5,9 C8.224,9 8,8.776 8,8.5 Z M8.5,5 L14.5,5 C14.776,5 15,5.224 15,5.5 C15,5.776 14.776,6 14.5,6 L8.5,6 C8.224,6 8,5.776 8,5.5 C8,5.224 8.224,5 8.5,5 Z M8.5,2 L14.5,2 C14.776,2 15,2.224 15,2.5 C15,2.776 14.776,3 14.5,3 L8.5,3 C8.224,3 8,2.776 8,2.5 C8,2.224 8.224,2 8.5,2 Z"/>
</svg>

