<svg xmlns="http://www.w3.org/2000/svg" width="15" height="15" viewBox="0 0 15 15">
  <defs/>
  <path fill="currentColor" d="M3.499,14.9 C3.279,14.9 3.099,14.721 3.099,14.5 L3.099,10.466 L1.782,11.783 C1.626,11.939 1.373,11.939 1.217,11.783 C1.06,11.627 1.06,11.373 1.217,11.217 L3.217,9.217 C3.292,9.142 3.393,9.1 3.499,9.1 C3.606,9.1 3.707,9.142 3.782,9.217 L5.782,11.217 C5.939,11.373 5.939,11.627 5.782,11.783 C5.626,11.939 5.373,11.939 5.217,11.783 L3.899,10.466 L3.899,14.5 C3.899,14.721 3.72,14.9 3.499,14.9 Z M3.899,0.5 L3.899,4.534 L5.217,3.217 C5.373,3.061 5.626,3.061 5.782,3.217 C5.939,3.373 5.939,3.627 5.782,3.783 L3.782,5.783 C3.707,5.858 3.606,5.9 3.499,5.9 C3.393,5.9 3.292,5.858 3.217,5.783 L1.217,3.783 C1.06,3.627 1.06,3.373 1.217,3.217 C1.373,3.061 1.626,3.061 1.782,3.217 L3.099,4.534 L3.099,0.5 C3.099,0.279 3.279,0.1 3.499,0.1 C3.72,0.1 3.899,0.279 3.899,0.5 Z M8,10.5 C8,10.224 8.224,10 8.5,10 L14.5,10 C14.776,10 15,10.224 15,10.5 C15,10.776 14.776,11 14.5,11 L8.5,11 C8.224,11 8,10.776 8,10.5 Z M8,7.5 C8,7.224 8.224,7 8.5,7 L14.5,7 C14.776,7 15,7.224 15,7.5 C15,7.776 14.776,8 14.5,8 L8.5,8 C8.224,8 8,7.776 8,7.5 Z M8.5,5 C8.224,5 8,4.776 8,4.5 C8,4.224 8.224,4 8.5,4 L14.5,4 C14.776,4 15,4.224 15,4.5 C15,4.776 14.776,5 14.5,5 Z"/>
</svg>

