<svg xmlns="http://www.w3.org/2000/svg" width="15" height="15" viewBox="0 0 15 15">
  <defs/>
  <path fill="currentColor" d="M2,4.5 C2,4.224 2.224,4 2.5,4 L12.5,4 C12.776,4 13,4.224 13,4.5 C13,4.776 12.776,5 12.5,5 L2.5,5 C2.224,5 2,4.776 2,4.5 Z M3,10.5 C3,10.224 3.224,10 3.5,10 L11.5,10 C11.776,10 12,10.224 12,10.5 C12,10.776 11.776,11 11.5,11 L3.5,11 C3.224,11 3,10.776 3,10.5 Z M4,7.5 C4,7.224 4.224,7 4.5,7 L10.5,7 C10.776,7 11,7.224 11,7.5 C11,7.776 10.776,8 10.5,8 L4.5,8 C4.224,8 4,7.776 4,7.5 Z"/>
</svg>

