<svg xmlns="http://www.w3.org/2000/svg" width="15" height="15" viewBox="0 0 15 15">
  <defs/>
  <path fill="currentColor" d="M13.354,2.354 L8.05,7.657 L8.05,12.05 L9.254,12.05 C9.503,12.05 9.704,12.252 9.704,12.5 C9.704,12.749 9.503,12.95 9.254,12.95 L5.754,12.95 C5.506,12.95 5.304,12.749 5.304,12.5 C5.304,12.252 5.506,12.05 5.754,12.05 L6.95,12.05 L6.95,8.757 L2.354,13.354 C2.158,13.549 1.842,13.549 1.646,13.354 C1.451,13.158 1.451,12.842 1.646,12.646 L6.95,7.343 L6.95,2.95 L3.95,2.95 L3.95,4.5 C3.95,4.749 3.749,4.95 3.5,4.95 C3.252,4.95 3.05,4.749 3.05,4.5 L3.05,2.5 C3.05,2.452 3.057,2.407 3.071,2.364 C3.129,2.182 3.299,2.05 3.5,2.05 L11.5,2.05 C11.655,2.05 11.792,2.129 11.873,2.248 C11.897,2.284 11.916,2.322 11.929,2.364 L12.646,1.646 C12.842,1.451 13.158,1.451 13.354,1.646 C13.549,1.842 13.549,2.158 13.354,2.354 Z M8.05,6.243 L11.05,3.243 L11.05,2.95 L8.05,2.95 Z"/>
</svg>

