<svg xmlns="http://www.w3.org/2000/svg" width="15" height="15" viewBox="0 0 15 15">
  <defs/>
  <path fill="currentColor" d="M3.899,5.5 L3.899,12.534 L5.217,11.217 C5.373,11.061 5.626,11.061 5.782,11.217 C5.939,11.373 5.939,11.627 5.782,11.783 L3.782,13.783 C3.707,13.858 3.606,13.9 3.499,13.9 C3.393,13.9 3.292,13.858 3.217,13.783 L1.217,11.783 C1.06,11.627 1.06,11.373 1.217,11.217 C1.373,11.061 1.626,11.061 1.782,11.217 L3.099,12.534 L3.099,5.5 C3.099,5.279 3.279,5.1 3.499,5.1 C3.72,5.1 3.899,5.279 3.899,5.5 Z M8,6.5 C8,6.224 8.224,6 8.5,6 L14.5,6 C14.776,6 15,6.224 15,6.5 C15,6.776 14.776,7 14.5,7 L8.5,7 C8.224,7 8,6.776 8,6.5 Z M8.5,13 C8.224,13 8,12.776 8,12.5 C8,12.224 8.224,12 8.5,12 L14.5,12 C14.776,12 15,12.224 15,12.5 C15,12.776 14.776,13 14.5,13 Z M8.5,10 C8.224,10 8,9.776 8,9.5 C8,9.224 8.224,9 8.5,9 L14.5,9 C14.776,9 15,9.224 15,9.5 C15,9.776 14.776,10 14.5,10 Z"/>
</svg>

