<svg xmlns="http://www.w3.org/2000/svg" width="15" height="15" viewBox="0 0 15 15">
  <defs/>
  <path fill="currentColor" d="M5,3.5 C5,3.224 5.224,3 5.5,3 L9.5,3 C9.776,3 10,3.224 10,3.5 L10,6 L12.5,6 C12.687,6 12.859,6.105 12.945,6.271 C13.03,6.438 13.016,6.638 12.907,6.791 L7.907,13.791 C7.813,13.922 7.661,14 7.5,14 C7.339,14 7.187,13.922 7.093,13.791 L2.093,6.791 C1.984,6.638 1.97,6.438 2.055,6.271 C2.141,6.105 2.313,6 2.5,6 L5,6 Z M6,4 L6,6.5 C6,6.776 5.776,7 5.5,7 L3.472,7 L7.5,12.64 L11.528,7 L9.5,7 C9.224,7 9,6.776 9,6.5 L9,4 Z"/>
</svg>

