<svg xmlns="http://www.w3.org/2000/svg" width="15" height="15" viewBox="0 0 15 15">
  <defs/>
  <path fill="currentColor" d="M1,7.5 C1,7.339 1.078,7.187 1.209,7.093 L8.209,2.093 C8.362,1.984 8.562,1.97 8.729,2.055 C8.895,2.141 9,2.313 9,2.5 L9,5 L11.5,5 C11.776,5 12,5.224 12,5.5 L12,9.5 C12,9.776 11.776,10 11.5,10 L9,10 L9,12.5 C9,12.687 8.895,12.859 8.729,12.945 C8.562,13.03 8.362,13.016 8.209,12.907 L1.209,7.907 C1.078,7.813 1,7.661 1,7.5 Z M8,3.472 L2.36,7.5 L8,11.528 L8,9.5 C8,9.224 8.224,9 8.5,9 L11,9 L11,6 L8.5,6 C8.224,6 8,5.776 8,5.5 Z"/>
</svg>

