<svg xmlns="http://www.w3.org/2000/svg" width="15" height="15" viewBox="0 0 15 15">
  <defs/>
  <path fill="currentColor" d="M7.5,1 C7.661,1 7.813,1.078 7.907,1.209 L12.907,8.209 C13.016,8.362 13.03,8.562 12.945,8.729 C12.859,8.895 12.687,9 12.5,9 L10,9 L10,11.5 C10,11.776 9.776,12 9.5,12 L5.5,12 C5.224,12 5,11.776 5,11.5 L5,9 L2.5,9 C2.313,9 2.141,8.895 2.055,8.729 C1.97,8.562 1.984,8.362 2.093,8.209 L7.093,1.209 C7.187,1.078 7.339,1 7.5,1 Z M3.472,8 L5.5,8 C5.776,8 6,8.224 6,8.5 L6,11 L9,11 L9,8.5 C9,8.224 9.224,8 9.5,8 L11.528,8 L7.5,2.36 Z"/>
</svg>

