<svg xmlns="http://www.w3.org/2000/svg" width="15" height="15" viewBox="0 0 15 15">
  <defs/>
  <path fill="currentColor" d="M4.5,2 C5.881,2 7,3.119 7,4.5 C7,5.881 5.881,7 4.5,7 C3.119,7 2,5.881 2,4.5 C2,3.119 3.119,2 4.5,2 Z M10.5,2 C11.881,2 13,3.119 13,4.5 C13,5.881 11.881,7 10.5,7 C9.119,7 8,5.881 8,4.5 C8,3.119 9.119,2 10.5,2 Z M2,10.5 C2,9.119 3.119,8 4.5,8 C5.881,8 7,9.119 7,10.5 C7,11.881 5.881,13 4.5,13 C3.119,13 2,11.881 2,10.5 Z M10.5,8 C11.881,8 13,9.119 13,10.5 C13,11.881 11.881,13 10.5,13 C9.119,13 8,11.881 8,10.5 C8,9.119 9.119,8 10.5,8 Z M3,4.5 C3,5.328 3.672,6 4.5,6 C5.328,6 6,5.328 6,4.5 C6,3.672 5.328,3 4.5,3 C3.672,3 3,3.672 3,4.5 Z M4.5,9 C3.672,9 3,9.672 3,10.5 C3,11.328 3.672,12 4.5,12 C5.328,12 6,11.328 6,10.5 C6,9.672 5.328,9 4.5,9 Z M9,4.5 C9,5.328 9.672,6 10.5,6 C11.328,6 12,5.328 12,4.5 C12,3.672 11.328,3 10.5,3 C9.672,3 9,3.672 9,4.5 Z M9,10.5 C9,11.328 9.672,12 10.5,12 C11.328,12 12,11.328 12,10.5 C12,9.672 11.328,9 10.5,9 C9.672,9 9,9.672 9,10.5 Z"/>
</svg>

