<svg xmlns="http://www.w3.org/2000/svg" width="15" height="15" viewBox="0 0 15 15">
  <defs/>
  <path fill="currentColor" d="M1.95,2.75 C1.95,2.446 2.196,2.2 2.5,2.2 C2.804,2.2 3.05,2.446 3.05,2.75 L3.05,7.282 C3.095,7.188 3.17,7.109 3.267,7.058 L12.267,2.308 C12.422,2.226 12.608,2.231 12.758,2.322 C12.908,2.412 13,2.575 13,2.75 L13,12.25 C13,12.425 12.908,12.588 12.758,12.678 C12.608,12.769 12.422,12.774 12.267,12.692 L3.267,7.942 C3.17,7.891 3.095,7.812 3.05,7.717 L3.05,12.25 C3.05,12.554 2.804,12.8 2.5,12.8 C2.196,12.8 1.95,12.554 1.95,12.25 Z M4.571,7.5 L12,11.421 L12,3.579 Z"/>
</svg>

