<svg xmlns="http://www.w3.org/2000/svg" width="15" height="15" viewBox="0 0 15 15">
  <defs/>
  <path fill="currentColor" d="M0.85,1.75 C0.85,1.253 1.253,0.85 1.75,0.85 L3.25,0.85 C3.747,0.85 4.15,1.253 4.15,1.75 L4.15,2.05 L10.85,2.05 L10.85,1.75 C10.85,1.253 11.253,0.85 11.75,0.85 L13.25,0.85 C13.747,0.85 14.15,1.253 14.15,1.75 L14.15,3.25 C14.15,3.747 13.747,4.15 13.25,4.15 L12.95,4.15 L12.95,10.85 L13.25,10.85 C13.747,10.85 14.15,11.253 14.15,11.75 L14.15,13.25 C14.15,13.747 13.747,14.15 13.25,14.15 L11.75,14.15 C11.253,14.15 10.85,13.747 10.85,13.25 L10.85,12.95 L4.15,12.95 L4.15,13.25 C4.15,13.747 3.747,14.15 3.25,14.15 L1.75,14.15 C1.253,14.15 0.85,13.747 0.85,13.25 L0.85,11.75 C0.85,11.253 1.253,10.85 1.75,10.85 L2.05,10.85 L2.05,4.15 L1.75,4.15 C1.253,4.15 0.85,3.747 0.85,3.25 Z M2.95,4.15 L2.95,10.85 L3.25,10.85 C3.747,10.85 4.15,11.253 4.15,11.75 L4.15,12.05 L10.85,12.05 L10.85,11.75 C10.85,11.253 11.253,10.85 11.75,10.85 L12.05,10.85 L12.05,4.15 L11.75,4.15 C11.253,4.15 10.85,3.747 10.85,3.25 L10.85,2.95 L4.15,2.95 L4.15,3.25 C4.15,3.747 3.747,4.15 3.25,4.15 Z M5.1,6 C5.1,5.503 5.503,5.1 6,5.1 L7,5.1 C7.497,5.1 7.9,5.503 7.9,6 L7.9,7 C7.9,7.036 7.898,7.071 7.894,7.106 C7.929,7.102 7.964,7.1 8,7.1 L9,7.1 C9.497,7.1 9.9,7.503 9.9,8 L9.9,9 C9.9,9.497 9.497,9.9 9,9.9 L8,9.9 C7.503,9.9 7.1,9.497 7.1,9 L7.1,8 C7.1,7.964 7.102,7.929 7.106,7.894 C7.071,7.898 7.036,7.9 7,7.9 L6,7.9 C5.503,7.9 5.1,7.497 5.1,7 Z M2.35,11.75 L1.75,11.75 L1.75,13.25 L3.25,13.25 L3.25,11.75 L2.35,11.75 Z M12.35,11.75 L11.75,11.75 L11.75,13.25 L13.25,13.25 L13.25,11.75 L12.35,11.75 Z M1.75,1.75 L1.75,3.25 L3.25,3.25 L3.25,1.75 L1.75,1.75 Z M11.75,1.75 L11.75,3.25 L13.25,3.25 L13.25,1.75 Z M8,8 L8,9 L9,9 L9,8 Z M6,6 L6,7 L7,7 L7,6 L6,6 Z"/>
</svg>

