<svg xmlns="http://www.w3.org/2000/svg" width="15" height="15" viewBox="0 0 15 15">
  <defs/>
  <path fill="currentColor" d="M5,2.75 L5,8.05 C5,9.431 6.119,10.55 7.5,10.55 C8.881,10.55 10,9.431 10,8.05 L10,2.75 C10,2.474 10.224,2.25 10.5,2.25 C10.776,2.25 11,2.474 11,2.75 L11,8.05 C11,9.983 9.433,11.55 7.5,11.55 C5.567,11.55 4,9.983 4,8.05 L4,2.75 C4,2.474 4.224,2.25 4.5,2.25 C4.776,2.25 5,2.474 5,2.75 Z M3.5,13.1 L11.5,13.1 C11.721,13.1 11.9,13.279 11.9,13.5 C11.9,13.721 11.721,13.9 11.5,13.9 L3.5,13.9 C3.279,13.9 3.1,13.721 3.1,13.5 C3.1,13.279 3.279,13.1 3.5,13.1 Z"/>
</svg>

