<svg xmlns="http://www.w3.org/2000/svg" width="15" height="15" viewBox="0 0 15 15">
  <defs/>
  <path fill="currentColor" d="M2.5,10 C2.776,10 3,10.224 3,10.5 L3,12 C3,12.554 3.446,13 3.996,13 L11.001,13 C11.553,13 12,12.553 12,12 L12,10.5 C12,10.224 12.224,10 12.5,10 C12.776,10 13,10.224 13,10.5 L13,12 C13,13.104 12.106,14 11.001,14 L3.996,14 C2.89,14 2,13.103 2,12 L2,10.5 C2,10.224 2.224,10 2.5,10 Z M7.818,1.182 L10.818,4.182 C10.994,4.358 10.994,4.643 10.818,4.818 C10.642,4.994 10.358,4.994 10.182,4.818 L7.95,2.586 L7.95,9.5 C7.95,9.748 7.749,9.95 7.5,9.95 C7.252,9.95 7.05,9.748 7.05,9.5 L7.05,2.586 L4.818,4.818 C4.643,4.994 4.358,4.994 4.182,4.818 C4.006,4.643 4.006,4.358 4.182,4.182 L7.182,1.182 C7.358,1.006 7.643,1.006 7.818,1.182 Z"/>
</svg>

