<svg xmlns="http://www.w3.org/2000/svg" width="15" height="15" viewBox="0 0 15 15">
  <defs/>
  <path fill="currentColor" d="M0,7.525 C0,5.283 0,4.162 0.73,3.317 C0.766,3.275 0.815,3.222 0.854,3.182 C1.634,2.383 2.65,2.297 4.68,2.126 C5.569,2.05 6.527,2 7.5,2 C8.473,2 9.431,2.05 10.32,2.126 C12.35,2.297 13.366,2.383 14.146,3.182 C14.185,3.222 14.233,3.275 14.27,3.317 C15,4.162 15,5.283 15,7.525 C15,9.74 15,10.848 14.269,11.693 C14.233,11.735 14.183,11.788 14.144,11.828 C13.363,12.627 12.366,12.71 10.371,12.876 C9.48,12.95 8.508,13 7.5,13 C6.492,13 5.52,12.95 4.629,12.876 C2.634,12.71 1.637,12.627 0.856,11.828 C0.817,11.788 0.767,11.735 0.731,11.693 C0,10.848 0,9.74 0,7.525 Z M4.764,3.122 C3.72,3.21 3.045,3.27 2.528,3.392 C2.058,3.503 1.795,3.65 1.569,3.881 C1.545,3.906 1.51,3.944 1.487,3.971 C1.287,4.201 1.157,4.489 1.082,5.033 C1.002,5.616 1,6.376 1,7.525 C1,8.66 1.002,9.41 1.082,9.985 C1.156,10.521 1.286,10.806 1.487,11.039 C1.51,11.065 1.546,11.104 1.57,11.129 C1.799,11.363 2.059,11.508 2.518,11.616 C3.025,11.736 3.686,11.794 4.712,11.88 C5.581,11.952 6.524,12 7.5,12 C8.476,12 9.419,11.952 10.288,11.88 C11.314,11.794 11.975,11.736 12.482,11.616 C12.941,11.508 13.201,11.363 13.43,11.129 C13.454,11.104 13.49,11.065 13.512,11.039 C13.714,10.806 13.844,10.521 13.918,9.985 C13.998,9.41 14,8.66 14,7.525 C14,6.376 13.998,5.616 13.918,5.033 C13.844,4.489 13.713,4.201 13.513,3.971 C13.49,3.944 13.455,3.906 13.431,3.881 C13.205,3.65 12.943,3.503 12.472,3.392 C11.955,3.27 11.28,3.21 10.236,3.122 C9.368,3.049 8.439,3 7.5,3 C6.561,3 5.632,3.049 4.764,3.122 Z M5.25,5.383 C5.25,5.202 5.435,5.081 5.6,5.154 L10.428,7.271 C10.627,7.359 10.627,7.641 10.428,7.729 L5.6,9.846 C5.435,9.919 5.25,9.798 5.25,9.617 Z"/>
</svg>

