<svg xmlns="http://www.w3.org/2000/svg" width="15" height="15" viewBox="0 0 15 15">
  <defs/>
  <path fill="currentColor" d="M0.763,13.807 C0.307,13.549 0,13.061 0,12.5 L0,2.5 C0,1.672 0.672,1 1.5,1 L13.5,1 C13.731,1 13.95,1.052 14.145,1.145 L14.175,1.12 L14.237,1.193 C14.693,1.451 15,1.939 15,2.5 L15,12.5 C15,13.328 14.328,14 13.5,14 L1.5,14 C1.269,14 1.05,13.948 0.855,13.854 L0.825,13.88 Z M1,12.413 L13.148,2 L1.5,2 C1.224,2 1,2.224 1,2.5 Z M14,2.587 L1.852,13 L13.5,13 C13.776,13 14,12.776 14,12.5 Z"/>
</svg>

