<svg xmlns="http://www.w3.org/2000/svg" width="15" height="15" viewBox="0 0 15 15">
  <defs/>
  <path fill="currentColor" d="M4.818,4.682 C4.994,4.857 4.994,5.142 4.818,5.318 L3.086,7.05 L11.913,7.05 L10.182,5.318 C10.006,5.142 10.006,4.857 10.182,4.682 C10.358,4.506 10.642,4.506 10.818,4.682 L13.318,7.182 C13.494,7.357 13.494,7.642 13.318,7.818 L10.818,10.318 C10.642,10.494 10.358,10.494 10.182,10.318 C10.006,10.142 10.006,9.857 10.182,9.682 L11.913,7.95 L3.086,7.95 L4.818,9.682 C4.994,9.857 4.994,10.142 4.818,10.318 C4.642,10.494 4.357,10.494 4.182,10.318 L1.682,7.818 C1.506,7.642 1.506,7.357 1.682,7.182 L4.182,4.682 C4.357,4.506 4.642,4.506 4.818,4.682 Z"/>
</svg>

