<svg xmlns="http://www.w3.org/2000/svg" width="15" height="15" viewBox="0 0 15 15">
  <defs/>
  <path fill="currentColor" d="M6.5,11 C4.015,11 2,8.985 2,6.5 C2,4.015 4.015,2 6.5,2 C8.985,2 11,4.015 11,6.5 C11,7.563 10.632,8.539 10.016,9.309 L12.854,12.146 C13.049,12.342 13.049,12.658 12.854,12.854 C12.658,13.049 12.342,13.049 12.146,12.854 L9.309,10.016 C8.539,10.632 7.563,11 6.5,11 Z M6.5,10 C8.433,10 10,8.433 10,6.5 C10,4.567 8.433,3 6.5,3 C4.567,3 3,4.567 3,6.5 C3,8.433 4.567,10 6.5,10 Z M4.75,6 L8.25,6 C8.526,6 8.75,6.224 8.75,6.5 C8.75,6.776 8.526,7 8.25,7 L4.75,7 C4.474,7 4.25,6.776 4.25,6.5 C4.25,6.224 4.474,6 4.75,6 Z"/>
</svg>

